<svg width="136" height="136" viewBox="0 0 136 136" fill="none" xmlns="http://www.w3.org/2000/svg">
<path d="M85.9042 97.6844C86.0285 97.0646 86.1528 96.4447 86.2771 95.9489C87.0229 93.0977 87.6445 90.2465 88.3903 87.3953C88.6389 86.6515 88.7632 86.5275 89.6334 86.6515C90.3792 86.7755 91.2494 86.8994 91.9952 87.1474C92.8654 87.3953 92.9897 87.5193 92.7411 88.387C92.3682 89.9986 91.8709 91.4861 91.498 93.0977C91.1251 94.8332 90.7522 96.5687 90.3792 98.4282C90.0063 100.288 89.6334 102.023 89.2605 103.883C88.639 106.486 87.8931 108.965 87.1472 111.568C87.0229 111.816 87.023 112.064 87.023 112.436C86.7743 113.552 86.4014 114.668 86.1528 115.659C86.1528 115.783 86.0285 116.031 86.0285 116.155C85.9042 117.023 85.5313 117.271 84.6611 117.147C84.2882 117.023 84.0396 117.023 83.6667 116.899C82.4236 116.651 81.6777 115.907 81.1805 114.668C80.559 113.18 79.9374 111.568 79.1916 110.081C78.1971 107.973 77.0784 105.866 75.9596 103.759C75.711 103.263 75.4624 102.643 75.2138 102.147C75.0894 102.023 74.8408 101.775 74.8408 101.899C74.7165 101.899 74.4679 102.147 74.4679 102.271C73.8464 104.998 73.2248 107.85 72.6033 110.577C72.479 111.321 72.3547 112.188 72.1061 112.932C71.9818 113.428 71.7331 113.552 71.2359 113.428C70.4901 113.304 69.7442 113.304 69.1227 113.18C68.9984 113.18 68.7498 113.18 68.6255 113.056C67.7553 112.56 66.7608 112.436 65.8907 112.312C65.2692 112.188 65.0205 111.816 65.1448 111.197C65.5178 109.585 65.8907 107.85 66.2636 106.238C66.6365 104.626 67.0095 102.891 67.3824 101.279C67.7553 99.2959 68.1282 97.1885 68.6255 95.2051C68.9984 93.2216 69.4956 91.2382 69.9928 89.2548C70.2415 87.8911 70.6144 86.5275 70.863 85.2879C70.9873 84.5441 71.2359 83.8003 71.3602 83.0565C71.6088 82.3127 72.2304 81.9408 73.2248 82.1888C74.8408 82.5607 76.4568 82.9325 77.9485 83.3044C78.1971 83.4284 78.57 83.4284 78.8187 83.5524C79.6888 83.8003 79.9374 84.5441 80.3103 85.1639C80.6833 86.1556 81.0562 87.2713 81.5534 88.263C82.2993 89.9985 83.1694 91.7341 83.9153 93.3456C84.5368 94.5853 85.034 95.8249 85.6556 97.0646C85.7799 97.3125 85.9042 97.5604 86.0285 97.8083C85.7799 97.6844 85.9042 97.6844 85.9042 97.6844Z" fill="#3B55A2"/>
<path d="M98.8319 37.1895C98.7075 37.6854 98.7076 38.3052 98.5832 38.8011C98.086 40.4126 97.5888 41.9002 96.9672 43.5117C96.5943 44.5034 96.0971 45.4951 95.7242 46.3629C95.5999 46.7348 95.3512 46.8588 94.9783 46.7348C93.7352 46.3629 92.6165 45.991 91.3734 45.6191C90.6276 45.3712 90.006 45.1233 89.3845 44.7514C88.763 44.3795 88.5143 44.1315 88.763 43.5117C89.2602 41.9002 89.8817 40.2886 90.379 38.6771C90.5033 38.3052 90.8762 37.1895 90.8762 36.8176C91.0005 36.5697 90.2546 36.4457 89.6331 36.1978C89.0116 36.0738 88.6386 35.8259 88.39 36.3218C87.8928 37.5614 87.2713 39.5448 86.774 40.7845C86.4011 41.7762 85.9039 42.8919 85.531 43.8836C85.1581 44.8753 84.7851 45.8671 84.4122 46.8588C84.0393 47.9745 83.5421 49.0901 83.0448 50.3298C82.7962 51.0736 82.5476 51.6934 82.299 52.4372C81.8017 53.6768 81.3045 55.0405 80.9316 56.2801C80.683 57.0239 80.5587 57.7677 80.3101 58.3875C80.1857 59.0073 80.4344 59.5032 81.1802 59.7511C81.6774 59.9991 82.1747 59.7511 82.4233 59.1313C83.1691 57.6437 83.7907 56.2801 84.4122 54.7925C84.5365 54.5446 85.2824 52.5612 86.4011 52.6851C88.0171 52.9331 89.6331 53.6768 91.1248 54.4206C91.3734 54.5446 91.8706 54.6686 91.995 54.9165C92.1193 55.1644 91.8706 55.5363 91.8706 55.9082C91.7463 57.5197 90.8762 58.8834 90.379 60.247C89.8817 61.6106 89.2602 62.8502 88.5143 63.9659C87.5199 65.3295 86.1525 65.9494 84.6608 66.3213C83.0448 66.5692 81.4288 66.6932 79.9371 66.3213C78.0725 65.9494 76.5808 65.2056 75.4621 63.718C74.9648 63.0982 74.3433 62.6023 73.9704 61.9825C73.4732 61.3627 73.1002 60.6189 72.8516 59.8751C72.603 59.0073 72.4787 58.1396 72.7273 57.2718C73.1002 55.9082 73.5975 54.4206 74.0947 53.057C74.7162 51.1975 75.4621 49.3381 76.2079 47.4786C76.7052 46.239 77.0781 44.9993 77.5753 43.8836C78.0725 42.52 78.5697 41.1564 79.067 39.7928C79.8128 37.6854 80.5587 35.578 81.4288 33.4706C81.9261 32.1069 83.0448 31.2392 84.2879 30.4954C85.2824 29.8756 86.1525 29.2557 87.2713 29.2557C88.39 29.2557 89.5088 29.2557 90.5033 29.2557C91.995 29.3797 93.3623 29.7516 94.6054 30.4954C95.9728 31.3631 96.9672 32.6028 97.9617 33.9664C98.4589 34.9581 98.8319 36.0738 98.8319 37.1895Z" fill="#3B55A2"/>
<path d="M74.4678 25.5368C74.3435 26.7765 74.3435 27.8921 74.2192 29.1318C74.2192 29.9996 74.0949 30.7433 74.0949 31.6111C73.9706 32.7268 73.9706 33.8425 73.8463 34.9581C73.722 36.6937 73.4734 38.5531 73.3491 40.2886C73.2248 40.9085 73.3491 41.5283 73.2247 42.1481C73.1004 43.5117 72.9761 44.9993 72.7275 46.3629C72.6032 47.6026 72.4789 48.9662 72.106 50.0819C71.4845 52.0653 70.2414 53.5529 68.1282 54.1727C66.0149 54.7925 64.1503 54.5446 62.1614 53.6769C60.9183 53.181 59.9239 52.1893 59.4267 50.9496C58.9294 49.71 58.6808 48.2224 58.8051 46.8588C58.9294 45.991 58.9294 44.9993 58.9294 44.1315C59.178 42.0241 59.4266 40.0407 59.6753 37.9333C59.9239 35.578 60.2968 33.2226 60.5454 30.8673C60.6697 29.7516 60.6697 28.6359 60.794 27.5202C60.9183 26.0327 61.167 24.5451 61.2913 23.0575C61.4156 22.3137 61.4156 21.5699 61.4156 20.8261C61.4156 20.2063 61.4156 19.7105 61.6642 19.2146C61.7885 18.9667 62.5343 18.9667 62.7829 18.9667C64.026 18.9667 65.2691 18.9667 66.6365 18.9667C67.258 18.9667 67.5066 19.3386 67.3823 19.9584C67.258 21.5699 67.1337 23.3054 67.0094 24.917C66.8851 27.1483 66.6365 29.3797 66.5122 31.735C66.3879 33.0987 66.2635 34.3383 66.1392 35.7019C66.0149 37.8093 65.7663 39.7928 65.642 41.9002C65.5177 43.0159 65.3934 44.1316 65.2691 45.2472C65.1448 46.115 65.1448 47.1067 65.1448 47.9745C65.1448 48.0984 65.3934 48.3464 65.5177 48.3464C66.1392 48.4703 67.0094 48.5943 67.258 47.9745C67.5066 47.4786 67.6309 46.7348 67.6309 46.239C67.6309 45.2472 67.8795 44.2555 67.8795 43.2638C68.0038 41.9002 68.1282 40.5366 68.1282 39.1729C68.2525 36.5697 69.1226 29.0078 69.2469 26.4046C69.3712 25.041 69.6198 21.198 69.6198 20.5782C69.6198 19.7104 69.6198 19.4625 70.2414 19.4625C70.7386 19.4625 71.2358 19.4625 71.6087 19.4625C72.106 19.4625 72.4789 19.4625 72.9761 19.5865C73.2247 19.5865 73.4734 19.7105 73.5977 19.7105C74.2192 19.7105 74.4678 19.9584 74.4678 20.4543C74.4678 21.198 74.4678 21.9418 74.4678 22.5617C74.5921 23.1815 74.5921 24.5451 74.4678 25.5368Z" fill="#3B55A2"/>
<path d="M43.0179 69.9163C41.0289 70.784 31.7059 75.8666 29.717 76.7343C27.3551 77.7261 27.2308 77.85 25.4905 78.4699C24.6204 78.8417 23.3773 79.3376 22.7558 79.3376C22.5072 79.3376 22.1342 78.5938 22.0099 78.3459C21.2641 76.7343 20.5182 75.1228 20.2696 73.3873C20.1453 72.6435 20.1453 72.6435 20.8912 72.2716C21.8856 71.7757 23.9988 70.908 25.1176 70.5361C26.485 69.9163 37.9213 66.3213 38.6671 65.9494C39.1643 65.7014 40.1588 65.3296 40.656 65.0816C41.0289 64.9577 40.7803 64.5858 40.656 64.2139C40.4074 63.5941 39.9102 62.2304 39.6616 61.6106C39.4129 60.9908 39.04 60.4949 38.9157 59.8751C38.4185 58.6355 38.6671 58.1396 39.7859 57.5198C40.7803 57.0239 41.7748 56.4041 42.8936 56.0322C43.5151 55.7842 44.1366 55.9082 44.3852 56.652C45.2554 58.5115 46.1255 60.4949 47.12 62.3544C47.7415 63.718 48.4874 65.0816 49.1089 66.4452C49.8548 68.0568 50.4763 69.6683 51.2221 71.2799C51.7194 72.5195 51.5951 72.8914 50.4763 73.5113C49.4818 74.0071 48.4874 74.503 47.4929 74.8749C46.8714 75.1228 46.3742 74.9988 45.8769 74.503C45.2554 73.6352 44.7582 72.7674 44.2609 72.0237C43.888 71.6518 43.2665 70.4121 43.0179 69.9163Z" fill="#3B55A2"/>
<path d="M54.0811 26.6525C53.8324 26.1566 53.2109 26.5285 52.838 26.6525C51.7192 27.1483 50.7248 27.6442 49.606 28.1401C48.7358 28.512 47.7414 29.0078 46.8712 29.5037C46.374 29.7516 46.1254 29.7516 46.1254 30.2475C46.0011 30.9913 45.7525 36.0738 46.0011 36.9416C46.1254 37.1895 47.1198 40.1646 47.3685 41.0324C47.3685 41.1564 46.4983 41.5283 46.374 41.5283C46.374 41.5283 44.758 38.3052 44.3851 37.8093C44.0122 37.3135 40.9045 34.5862 40.0343 33.7185C39.7857 33.4706 39.5371 33.3466 39.1642 33.4706C38.4183 33.8425 38.1697 33.8424 37.4239 34.2143C36.1808 34.8342 34.9377 35.454 33.6946 36.0738C33.3217 36.1978 33.0731 36.3217 32.7002 36.5697C32.203 36.9416 32.203 37.3135 32.5759 37.6854C32.7002 37.9333 32.8245 38.1812 33.0731 38.3052C33.3217 38.6771 33.5703 39.049 33.9433 39.4209C34.5648 40.0407 35.3106 40.6605 35.9322 41.2803C37.2996 42.52 38.5426 43.8836 39.7857 45.2472C40.9045 46.3629 41.8989 47.6026 42.8934 48.7182C44.0122 49.9579 45.0066 51.0736 46.1254 52.3132C46.6226 52.933 47.1198 53.4289 47.3685 54.1727C47.99 56.0322 48.7358 57.7677 49.3574 59.6271C49.8546 60.8668 50.3518 62.1065 50.8491 63.2221C51.222 64.2139 51.5949 65.2056 51.9678 66.1973C52.3408 67.065 52.3408 67.6849 53.2109 67.8088C53.3352 67.8088 54.2054 67.5609 54.3297 67.4369C55.0755 67.065 55.697 66.6931 56.4429 66.4452C57.0644 66.0733 57.8103 65.8254 58.4318 65.4535C58.929 65.2056 59.4263 64.9576 60.0478 64.7097C60.6694 64.4618 60.918 64.2139 60.7936 63.4701C60.7936 63.2221 60.6693 62.9742 60.545 62.8502C60.0478 61.7346 59.5506 60.7428 59.1777 59.6271C58.6804 58.6354 58.3075 57.5198 57.9346 56.4041C57.5617 55.4123 57.0644 54.4206 56.6915 53.4289C56.3186 52.5611 55.9457 51.5694 55.5727 50.7017C55.1998 49.8339 54.7026 49.0901 54.7026 47.9744C54.8269 44.9993 54.7026 42.0241 54.7026 39.049C54.7026 37.4374 54.5783 35.7019 54.5783 34.0904C54.3297 32.1069 54.2054 27.2723 54.0811 26.6525Z" fill="#3B55A2"/>
<path d="M99.7021 95.3291H100.697C100.945 95.3291 101.194 95.453 101.442 95.577C101.567 95.701 101.691 95.9489 101.691 96.1968C101.691 96.5687 101.442 96.8166 101.194 96.9406L101.815 97.9323H101.194L100.697 97.0646H100.324V97.9323H99.8265V95.3291H99.7021ZM100.697 96.5687C100.945 96.5687 101.07 96.4447 101.07 96.1968C101.07 95.9489 100.945 95.8249 100.572 95.8249H100.324V96.5687H100.697Z" fill="#B98F44"/>
<path d="M100.572 99.2959C99.0805 99.2959 97.8374 98.0563 97.8374 96.5687C97.8374 95.0811 99.0805 93.8415 100.572 93.8415C102.064 93.8415 103.307 95.0811 103.307 96.5687C103.307 98.0563 102.064 99.2959 100.572 99.2959ZM100.572 94.4613C99.3291 94.4613 98.3346 95.453 98.3346 96.6927C98.3346 97.9323 99.3291 98.9241 100.572 98.9241C101.815 98.9241 102.81 97.9323 102.81 96.6927C102.81 95.453 101.815 94.4613 100.572 94.4613Z" fill="#B98F44"/>
<path d="M64.6474 65.4535C64.896 65.2056 65.2689 65.2056 65.5175 65.0816C65.5175 65.0816 65.5175 65.0816 65.6418 65.0816C65.6418 65.0816 65.8904 65.0816 66.0147 64.9576C66.139 64.9576 66.2634 64.8337 66.3877 64.8337C66.8849 64.8337 67.2578 64.7097 67.7551 64.7097C68.128 64.7097 68.6252 64.7097 68.9981 64.8337C69.2467 64.8337 69.3711 64.8337 69.6197 64.9576C69.9926 65.0816 70.3655 65.2056 70.7384 65.3295C70.987 65.4535 71.2357 65.5775 71.36 65.5775C71.4843 65.5775 71.4843 65.7014 71.6086 65.7014C71.9815 65.9494 72.3544 66.0733 72.603 66.3213C72.976 66.6932 73.4732 67.065 73.8461 67.4369C74.0947 67.6849 74.3433 68.0568 74.592 68.4287C74.8406 68.8006 75.0892 69.1724 75.3378 69.5443C75.5864 70.0402 75.9593 70.5361 76.0836 71.1559C76.208 71.6517 76.3323 72.0236 76.4566 72.5195C76.5809 73.0154 76.7052 73.5112 76.5809 74.0071C76.5809 74.131 76.5809 74.379 76.5809 74.5029C76.5809 74.7509 76.4566 74.8748 76.3323 74.9988C75.9593 75.1228 75.4621 75.1228 75.0892 75.2467C74.592 75.3707 74.0947 75.3707 73.5975 75.3707C73.3489 75.3707 73.1003 75.3707 72.976 75.3707C72.4787 75.3707 72.1058 75.2467 71.6086 75.1227C71.1113 74.9988 70.6141 74.7509 70.2412 74.6269C69.9926 74.6269 69.8683 74.5029 69.6197 74.379C69.1224 74.131 68.7495 73.8831 68.3766 73.5112C68.2523 73.3873 68.2523 73.3872 68.128 73.2633C68.0037 73.0153 67.7551 72.8914 67.5064 72.7674C67.3821 72.6435 67.1335 72.3955 67.0092 72.1476C66.8849 72.0236 66.7606 71.7757 66.6363 71.6517C66.6363 71.6517 66.6363 71.6517 66.6363 71.5278C66.512 71.1559 66.139 70.9079 66.0147 70.5361C65.7661 70.1642 65.6418 69.7923 65.3932 69.4204C65.1446 69.0485 65.0203 68.6766 64.896 68.3047C64.6474 67.8088 64.6474 67.313 64.5231 66.8171C64.3987 66.4452 64.3988 65.9494 64.6474 65.4535ZM65.8904 66.5692C66.0148 66.9411 66.1391 67.313 66.2634 67.5609C66.512 68.0568 66.6363 68.4287 66.8849 68.9245C67.1335 69.4204 67.5064 69.9162 67.8794 70.4121C68.0037 70.5361 68.0037 70.66 68.128 70.784C68.3766 71.0319 68.5009 71.2798 68.7495 71.4038C69.3711 72.0236 70.1169 72.5195 70.8627 73.0153C70.987 73.0153 71.1114 73.0154 71.1114 73.1393C71.2357 73.2633 71.4843 73.3872 71.7329 73.3872C72.1058 73.6352 72.603 73.6352 72.976 73.7591C73.2246 73.7591 73.4732 73.8831 73.5975 73.8831C74.0947 74.0071 74.592 73.8831 75.0892 73.8831C75.0892 73.8831 75.0892 73.8831 75.2135 73.8831C75.2135 73.6352 75.2135 73.3873 75.0892 73.1393C75.0892 73.1393 75.0892 73.1393 74.9649 73.1393C73.9704 73.0154 73.1003 72.8914 72.2301 72.6435C71.6086 72.3955 70.8627 72.2716 70.3655 71.8997C69.8683 71.6517 69.4953 71.2798 69.1224 70.908C68.8738 70.66 68.6252 70.2881 68.3766 70.0402C68.128 69.6683 67.8794 69.4204 67.7551 69.0485C67.6307 68.8006 67.5064 68.5526 67.3821 68.3047C67.2578 68.1807 67.2578 68.0568 67.1335 67.9328C67.0092 67.4369 66.7606 67.065 66.7606 66.5692C66.512 66.4452 66.1391 66.4452 65.8904 66.5692ZM68.128 66.4452C68.128 66.5692 68.128 66.5692 68.128 66.5692V66.6932C68.128 67.313 68.3766 67.8088 68.6252 68.3047C68.9981 69.0485 69.4954 69.6683 69.9926 70.1642C70.2412 70.4121 70.3655 70.5361 70.6141 70.784C71.2357 71.1559 71.8572 71.4038 72.4787 71.5278C72.8517 71.5278 73.1003 71.6517 73.4732 71.6517C73.8461 71.6517 74.219 71.6517 74.4676 71.7757C74.592 71.7757 74.592 71.7757 74.7163 71.7757C74.7163 71.5278 74.0947 70.4121 73.8461 70.1642C73.7218 70.1642 73.7218 70.2881 73.5975 70.2881C73.2246 70.5361 72.8517 70.66 72.4787 70.5361C72.2301 70.5361 72.1058 70.5361 71.8572 70.5361H71.7329C71.4843 70.4121 71.2357 70.2881 70.987 70.1642L70.8627 70.0402C70.6141 69.9162 70.4898 69.6683 70.2412 69.5443L70.1169 69.4204C69.9926 69.0485 69.8683 68.6766 69.744 68.3047C69.744 67.9328 69.6197 67.5609 69.744 67.189C69.744 67.065 69.744 66.9411 69.744 66.8171C69.4953 66.6931 68.8738 66.5692 68.128 66.4452ZM71.36 67.5609C71.1113 68.1807 71.1113 68.6766 71.6086 69.0485C72.1058 69.4204 72.603 69.4204 73.2246 69.0485C72.7273 68.5526 71.9815 68.0568 71.36 67.5609Z" fill="#B98F44"/>
<path d="M101.691 85.0399C102.064 84.4201 102.437 83.8003 102.686 83.1805C103.307 81.9408 103.929 80.5772 104.426 79.3376C105.047 78.0979 105.545 76.7343 106.166 75.4946C106.788 74.131 107.409 72.8914 108.031 71.6517C108.528 70.4121 109.15 69.1724 109.771 67.9328C110.02 67.4369 110.517 66.1973 110.641 65.9493C110.641 65.8254 110.766 65.7014 110.89 65.4535L111.138 64.9576C111.387 65.2056 112.879 66.0733 113.376 66.4452C113.873 66.8171 114.122 66.4452 114.37 65.9493C114.619 65.3295 115.365 62.8502 115.489 62.3544C115.613 62.1064 115.862 60.9908 115.986 60.7428C116.111 60.4949 116.235 60.247 116.235 60.123C116.235 59.8751 115.862 59.7511 115.614 59.5032C115.365 59.2552 115.116 59.1313 114.868 58.8834C113.873 58.0156 112.754 57.1478 111.76 56.2801C110.766 55.4123 109.771 54.6685 108.652 53.8008C108.031 53.4289 107.534 52.933 106.912 52.5611C106.663 52.4372 106.415 52.1892 106.166 52.0653C105.918 51.9413 105.669 52.1892 105.42 52.3132C104.302 53.057 103.058 53.6768 102.064 54.4206C101.442 54.7925 100.945 55.2884 100.448 55.6603C99.9508 56.1561 99.7022 56.1561 99.8265 56.4041C100.075 56.7759 100.697 57.1478 100.945 57.3958C100.945 57.3958 101.567 58.0156 101.691 58.0156L100.821 58.6354C100.324 59.0073 100.075 59.2552 99.5779 59.6271C99.3292 59.7511 97.216 61.4866 96.9674 61.7345C95.973 62.7263 95.3514 62.8502 94.357 63.594C93.8597 63.9659 91.6222 65.7014 91.125 66.0733C90.0062 66.9411 89.509 67.065 88.3902 67.9328C87.3958 68.8005 86.4013 69.6683 85.2825 70.536C85.0339 70.784 84.7853 71.0319 84.5367 71.2798C84.4124 71.4038 84.2881 71.5278 84.2881 71.6517C84.2881 71.7757 84.4124 71.8997 84.5367 71.8997C84.9096 72.1476 85.1582 72.3955 85.4068 72.6434C85.9041 73.0153 86.277 73.5112 86.7742 73.8831C87.6444 74.6269 88.5145 75.3707 89.3847 76.1145C89.7576 76.4864 90.3791 77.1062 91.0007 76.9822C91.2493 76.8583 91.6222 76.7343 91.8708 76.4864C92.1194 76.3624 92.4923 76.1145 92.741 75.9905C92.9896 75.8666 93.3625 75.6186 93.6111 75.4946C93.7354 75.3707 94.1083 75.1228 94.357 75.2467C94.8542 75.6186 95.3514 76.1145 95.8486 76.4864C96.0973 76.7343 96.4702 76.8583 96.3459 77.2302C96.2216 77.726 96.0973 78.2219 95.8486 78.5938C95.6 79.2136 95.3514 79.7095 95.1028 80.2053C94.8542 80.5772 95.1028 80.8251 95.3514 81.0731C95.8487 81.445 96.3459 81.9408 96.8431 82.3127C97.9619 83.0565 99.0806 83.8003 100.199 84.5441C100.324 84.6681 100.572 84.916 100.821 84.916C101.442 85.4118 101.567 85.1639 101.691 85.0399ZM100.448 72.8914C99.9508 72.3955 99.3293 72.0236 98.832 71.5278C98.5834 71.2798 98.2105 71.0319 97.9619 70.784C97.8376 70.66 97.3403 70.4121 97.3403 70.2881C97.4647 70.0402 97.7133 69.7923 97.8376 69.5443C98.0862 69.2964 99.2049 68.0567 99.5779 67.6848C99.8265 67.4369 99.8265 67.4369 100.199 67.4369C100.697 67.4369 101.442 67.313 101.94 67.4369C102.313 67.5609 102.437 67.8088 102.437 68.1807C102.437 68.4286 102.561 69.1724 102.561 69.2964C102.561 69.5443 102.313 69.7923 102.188 70.0402C101.691 71.0319 101.07 72.0236 100.448 73.0153C100.572 72.8914 100.572 73.0154 100.448 72.8914Z" fill="#3B55A2"/>
<path d="M54.7029 110.949C55.573 109.709 56.3188 108.345 57.0647 107.106C57.189 106.858 57.189 106.61 57.0647 106.362C56.4431 105.494 56.4431 105.494 57.0647 104.503C57.8105 103.263 58.5564 102.023 59.3022 100.784C59.6751 100.288 59.5508 99.9158 59.1779 99.4199C59.0536 99.296 59.0536 99.296 59.0536 99.172C59.0536 99.048 58.9293 98.9241 59.0536 98.8001C59.3022 98.1803 59.6751 97.5605 60.0481 97.0646C60.6696 96.0729 61.1668 95.2051 61.7884 94.3374C62.1613 93.8415 62.2856 93.4696 61.9127 93.2217C61.4155 92.8498 61.4154 92.7258 61.7884 92.106C62.5342 90.9903 63.1557 89.8746 63.9016 88.7589C64.0259 88.511 64.2745 88.1391 63.9016 87.8912C63.653 87.6433 63.4044 87.5193 63.28 87.1474C64.0259 85.9078 65.0204 84.4202 65.7662 83.1805C66.0148 82.6847 65.3933 82.3128 65.1447 81.9409C65.0204 81.8169 65.1447 81.569 65.1447 81.569C65.3933 81.1971 65.7662 80.9492 66.0148 80.5773C66.2634 80.3293 67.7551 78.5938 67.5065 78.4699C67.1336 78.098 66.885 77.85 66.512 77.4781C66.0148 76.9823 65.7662 76.6104 65.1447 76.1145C64.6474 75.6187 64.2745 75.1228 63.7773 74.627C63.4044 74.2551 63.28 74.1311 62.9071 73.7592C62.6585 73.5113 62.5342 73.6352 62.1613 73.8832C61.7884 74.255 62.037 73.8832 61.6641 74.2551C61.5397 74.379 61.0425 74.8749 60.7939 74.9988C60.2967 75.4947 59.7994 75.8666 59.3022 76.3625C59.1779 76.2385 58.4321 75.4947 58.3078 75.3707C58.1834 75.2468 57.9348 75.3707 57.8105 75.4947C57.189 75.8666 56.4432 76.4864 55.9459 76.9823C55.6973 77.1062 55.573 77.3542 55.3244 77.4781C54.9515 77.85 54.7028 77.974 54.3299 77.7261C54.0813 77.4781 53.8327 77.2302 53.4598 76.9823C53.2112 76.8583 52.9625 76.6104 52.7139 76.7344C52.341 76.8583 51.8438 77.2302 51.4709 77.6021C50.4764 78.3459 49.4819 79.0897 48.4875 79.8335C48.1146 79.3376 47.493 78.7178 47.1201 79.0897C46.6229 79.3376 45.2555 80.2054 45.0069 80.4533C44.261 80.9492 43.5152 81.569 42.645 82.0648C42.5207 82.1888 42.3964 82.1888 42.2721 82.1888C41.8992 81.9409 41.6506 81.569 41.2777 81.445C40.9047 81.1971 40.5318 81.0731 40.1589 81.445C39.4131 81.9409 38.4186 82.5607 37.6728 83.1805C37.4241 83.3045 36.3054 84.0483 35.8081 84.4202C35.5595 84.1722 35.3109 83.9243 35.0623 83.5524C34.5651 83.0566 34.3164 83.1805 33.8192 83.4285C33.322 83.6764 33.1977 83.8004 32.7005 84.1722C31.5817 84.916 30.7115 85.4119 29.5928 86.1557C29.7171 86.4036 34.0678 90.7424 34.6894 91.4862C35.8081 92.6019 36.8026 93.7175 37.9214 94.9572C38.2943 95.3291 38.6672 95.4531 39.0401 95.0812C39.6617 94.5853 39.9103 94.5853 40.5318 94.0894C41.029 93.7175 40.9047 93.8415 41.5263 93.4696C41.7749 93.3456 47.7416 99.4199 47.6173 99.6679C46.8715 100.784 46.7472 101.031 46.0013 102.147C45.877 102.271 45.6284 102.643 45.7527 102.767C46.3743 103.387 47.1201 104.131 47.7416 104.75C48.6118 105.494 49.2333 106.362 50.1035 106.982C50.6007 107.478 51.0979 107.974 51.5952 108.469C52.4653 109.461 53.4598 110.329 54.3299 111.321C54.3299 111.321 54.4542 111.197 54.7029 110.949ZM52.9625 90.4945C52.0924 89.7507 51.0979 88.7589 50.2278 87.8912C49.9792 87.5193 50.4764 87.0234 50.8493 86.7755C52.2167 85.6598 53.7084 84.5441 54.8271 83.6764C54.9515 83.6764 54.9515 83.5524 55.0758 83.6764C55.9459 84.5441 56.6918 85.2879 57.4376 85.9078C57.4376 85.9078 57.4376 86.0317 57.4376 86.1557C56.5675 87.1474 55.573 88.511 54.4542 89.8746C53.8327 90.7424 53.4598 90.9903 52.9625 90.4945Z" fill="#3B55A2"/>
<path d="M3.8613 67.189C1.25085 67.065 -0.11652 65.0816 0.00778735 62.6023C0.132095 61.3626 0.505009 60.3709 1.12655 59.7511L2.86686 60.9907C2.49394 61.4866 2.24532 61.9825 2.12101 62.6023C1.9967 63.718 2.61824 64.8337 3.98562 64.8337C5.22869 64.9576 6.09884 63.9659 6.09884 62.8502C6.09884 62.2304 5.97454 61.6106 5.60162 61.1147L7.46623 60.123C7.96346 60.8668 8.21207 61.8585 8.08777 63.0981C8.08777 65.5774 6.47176 67.313 3.8613 67.189Z" fill="#3B55A2"/>
<path d="M8.08767 51.6934L9.95228 52.0653L8.83351 57.1478L1.12646 55.4123L2.24524 50.5777L4.10985 50.9496L3.48831 53.8008L4.35846 54.0487L4.85568 51.5694L6.72029 51.9413L6.22307 54.4206L7.34182 54.6685L8.08767 51.6934Z" fill="#3B55A2"/>
<path d="M12.4386 44.9993L8.95801 45.7431L11.6928 46.8588L10.9469 48.8422L3.61279 45.991L4.85587 42.8919C5.60171 40.9084 7.0934 40.5365 8.33648 41.0324C9.33093 41.4043 9.95248 42.272 9.95248 43.5117L13.4331 42.52L12.4386 44.9993ZM6.22325 44.6274L7.83925 45.2472L8.21216 44.3795C8.46078 43.7596 8.33648 43.2638 7.83925 43.1398C7.34202 42.8919 6.96909 43.1398 6.72048 43.7596L6.22325 44.6274Z" fill="#3B55A2"/>
<path d="M12.4388 32.3549L11.4444 34.0904L16.541 37.0655L15.4222 38.925L10.3256 35.9499L9.33114 37.6854L7.59082 36.6936L10.6985 31.4871L12.4388 32.3549Z" fill="#3B55A2"/>
<path d="M20.767 30.9913L19.524 32.7268L13.3086 28.0161L14.5517 26.2806L20.767 30.9913Z" fill="#3B55A2"/>
<path d="M20.27 22.4377L21.1402 23.3054L22.8805 21.446L24.2478 22.8096L22.5075 24.669L24.4965 26.6525L23.0048 28.1401L17.2866 22.6856L21.0158 18.8427L22.3832 20.2063L20.27 22.4377Z" fill="#3B55A2"/>
<path d="M30.8359 20.8261L29.2199 22.1897L24.2476 16.1155L25.8636 14.7518L30.8359 20.8261Z" fill="#3B55A2"/>
<path d="M31.4574 15.4956C30.09 13.2643 30.9602 11.0329 32.9491 9.79323C34.0679 9.17341 35.0623 8.92549 35.9325 9.04946V11.1569C35.3109 11.1569 34.6894 11.1569 34.1922 11.5288C33.1977 12.1486 32.7005 13.2642 33.4463 14.3799C34.0679 15.4956 35.3109 15.4956 36.3054 14.9998C36.9269 14.6279 37.1755 14.132 37.4242 13.6362L39.2888 14.6279C38.9158 15.3717 38.2943 16.2394 37.2999 16.8592C35.1866 17.9749 32.8248 17.727 31.4574 15.4956Z" fill="#3B55A2"/>
<path d="M46.3746 10.413L43.8884 11.4048L44.0127 12.8923L41.7752 13.7601L41.6509 5.33048L43.7641 4.46271L49.4823 10.661L47.2447 11.5287L46.3746 10.413ZM45.2558 9.04943L43.6398 7.06598L43.7641 9.66925L45.2558 9.04943Z" fill="#3B55A2"/>
<path d="M58.3078 4.71071C58.805 7.06604 57.562 8.9255 54.9515 9.42136L52.3411 9.91723L50.7251 2.23141L53.3355 1.73554C55.946 1.23968 57.8106 2.35538 58.3078 4.71071ZM53.2112 3.71899L54.0814 7.68586L54.5786 7.56188C55.8217 7.31395 56.4432 6.44621 56.1946 5.20656C55.946 3.84295 54.9515 3.34708 53.8328 3.59501L53.2112 3.71899Z" fill="#3B55A2"/>
<path d="M70.117 3.96688C70.2413 6.44618 68.3767 8.05771 66.0148 8.18168C63.653 8.30564 61.7884 6.6941 61.6641 4.2148C61.5398 1.7355 63.4044 0.123965 65.7662 0C68.1281 0 70.117 1.48758 70.117 3.96688ZM64.0259 4.2148C64.0259 5.45445 64.8961 6.19824 66.0148 6.07428C67.1336 6.07428 67.8794 5.3305 67.8794 4.09085C67.8794 2.8512 67.0093 2.10741 65.8905 2.23137C64.7718 2.23137 64.0259 2.97515 64.0259 4.2148Z" fill="#3B55A2"/>
<path d="M86.4013 6.57013C85.7798 8.92547 83.9152 10.0411 81.3048 9.42131L78.6943 8.80149L80.4346 1.11566L83.0451 1.73549C85.7798 2.47928 87.0229 4.2148 86.4013 6.57013ZM82.1749 3.59496L81.3048 7.56184L81.802 7.68581C83.0451 7.93374 83.9152 7.43788 84.2881 6.19823C84.5368 4.83462 83.9152 4.09083 82.7964 3.71893L82.1749 3.59496Z" fill="#3B55A2"/>
<path d="M94.1085 11.6527L93.3626 13.5122L88.5146 11.5287L91.498 4.21481L96.0974 6.07429L95.3516 7.93376L92.7411 6.81808L92.3682 7.68583L94.73 8.67755L93.9842 10.4131L91.6223 9.42133L91.1251 10.537L94.1085 11.6527Z" fill="#3B55A2"/>
<path d="M107.534 19.5865C106.539 20.9501 105.172 20.7022 103.929 19.7104L101.07 17.727L105.669 11.4048L108.404 13.3882C109.647 14.256 110.144 15.2477 109.274 16.4874C108.777 17.2311 108.031 17.3551 107.161 17.1072C107.907 17.727 108.28 18.5948 107.534 19.5865ZM105.918 18.0989C106.291 17.603 106.042 17.2311 105.545 16.8592L104.799 16.2394L103.929 17.4791L104.675 18.0989C105.172 18.4708 105.669 18.5947 105.918 18.0989ZM106.415 14.0081L105.669 15.1237L106.415 15.7436C106.788 15.9915 107.161 16.1154 107.534 15.6196C107.782 15.2477 107.658 14.8758 107.285 14.6279L106.415 14.0081Z" fill="#3B55A2"/>
<path d="M111.014 26.1566C109.274 24.4211 109.522 22.8096 111.014 21.322L114.246 18.0989L115.862 19.7104L112.63 22.9335C112.133 23.4294 111.884 24.0492 112.506 24.669C113.127 25.2889 113.749 25.0409 114.246 24.5451L117.478 21.322L119.094 22.9335L115.862 26.1566C114.37 27.6442 112.754 27.8921 111.014 26.1566Z" fill="#3B55A2"/>
<path d="M120.462 34.4623L118.846 35.578L115.862 31.3631L122.326 26.7764L125.185 30.8673L123.569 31.983L121.953 29.6276L121.208 30.1235L122.699 32.2309L121.208 33.3466L119.716 31.2392L118.721 31.859L120.462 34.4623Z" fill="#3B55A2"/>
<path d="M123.942 45.1232L123.196 43.6357L125.309 38.4291L121.456 40.2886L120.461 38.4291L127.547 34.9581L128.293 36.4457L126.18 41.6522L130.033 39.7927L131.028 41.6522L123.942 45.1232Z" fill="#3B55A2"/>
<path d="M127.92 52.6851L127.174 50.0818L125.683 49.9579L125.061 47.7265L133.39 48.5943L134.011 50.8256L127.299 55.9082L126.677 53.6768L127.92 52.6851ZM129.412 51.6934L131.525 50.2058L128.915 50.0818L129.412 51.6934Z" fill="#3B55A2"/>
<path d="M135.627 63.718L133.638 62.9742C134.011 62.2304 134.135 61.4866 134.011 60.9907C134.011 60.6189 133.887 60.4949 133.638 60.4949C133.514 60.4949 133.389 60.6189 133.265 60.9907L132.644 62.7263C132.271 63.594 131.773 64.3378 130.53 64.4618C128.914 64.5857 127.92 63.718 127.671 61.6106C127.547 60.4949 127.671 59.3792 128.169 58.2635L130.282 59.0073C129.66 59.999 129.536 60.7428 129.536 61.6106C129.536 61.9825 129.66 62.2304 129.909 62.2304C130.157 62.2304 130.157 62.1064 130.282 61.8585L130.903 60.123C131.276 59.1313 132.022 58.6354 133.017 58.5114C134.384 58.3875 135.503 59.2552 135.751 61.2387C136.124 61.7345 136 62.6023 135.627 63.718Z" fill="#3B55A2"/>
<path d="M132.395 80.2053C130.779 79.9574 129.785 78.8417 130.033 76.7343L130.157 75.8666L127.92 75.4947L128.169 73.3873L136 74.379L135.627 77.3541C135.254 79.7095 133.887 80.4533 132.395 80.2053ZM132.644 78.0979C133.265 78.2219 133.638 77.85 133.638 77.2302L133.762 76.3624L132.022 76.1145L131.898 76.9822C131.898 77.4781 132.022 77.974 132.644 78.0979Z" fill="#3B55A2"/>
<path d="M125.434 86.5275L128.79 85.4119L126.056 84.5441L126.677 82.5607L134.136 84.792L133.141 88.0151C132.52 89.9985 131.152 90.4944 129.785 90.1225C128.79 89.8746 128.045 89.0068 128.045 87.8911L124.564 89.1308L125.434 86.5275ZM131.774 86.4036L130.158 85.9077L129.909 86.7755C129.661 87.3953 129.909 87.8912 130.406 88.0151C130.904 88.1391 131.277 87.8911 131.525 87.2713L131.774 86.4036Z" fill="#3B55A2"/>
<path d="M122.575 96.9406L123.818 94.5853L122.699 93.4696L123.818 91.3622L129.412 97.5604L128.417 99.5439L120.089 98.6761L121.208 96.5687L122.575 96.9406ZM124.315 97.3125L126.926 97.6844L125.061 95.8249L124.315 97.3125ZM129.039 99.5439L129.661 98.1803L130.158 100.04L129.163 101.899L129.039 99.5439Z" fill="#3B55A2"/>
<path d="M121.953 103.015C124.066 104.502 124.191 106.982 122.699 108.965C121.953 109.957 121.083 110.577 120.337 110.825L119.467 108.841C120.089 108.593 120.586 108.345 120.959 107.85C121.705 106.858 121.705 105.742 120.586 104.998C119.591 104.255 118.348 104.626 117.727 105.494C117.354 105.99 117.229 106.61 117.229 107.23L115.116 107.106C115.116 106.238 115.365 105.246 116.111 104.255C117.478 102.147 119.84 101.527 121.953 103.015Z" fill="#3B55A2"/>
<path d="M112.63 116.899L113.997 115.535L109.771 111.321L111.263 109.833L115.489 114.048L116.857 112.684L118.224 114.048L113.873 118.263L112.63 116.899Z" fill="#3B55A2"/>
<path d="M104.302 116.031L106.042 114.668L110.89 120.866L109.15 122.229L104.302 116.031Z" fill="#3B55A2"/>
<path d="M103.68 121.362C105.047 123.593 104.177 125.824 102.064 127.064C100.945 127.684 99.9508 127.808 99.0806 127.808V125.7C99.7022 125.7 100.324 125.7 100.821 125.329C101.815 124.709 102.313 123.593 101.691 122.477C101.07 121.362 99.8265 121.238 98.832 121.858C98.2105 122.229 97.9619 122.601 97.7132 123.221L95.8486 122.229C96.2216 121.486 96.8431 120.618 97.9619 119.998C99.9508 118.882 102.313 119.13 103.68 121.362Z" fill="#3B55A2"/>
<path d="M88.5142 126.072L91.0004 125.081L90.8761 123.593L93.1136 122.725L92.9893 131.155L90.8761 131.899L85.2822 125.577L87.5198 124.709L88.5142 126.072ZM89.633 127.436L91.249 129.419L91.1247 126.816L89.633 127.436Z" fill="#3B55A2"/>
<path d="M78.1971 134.75L78.6943 132.766C79.4402 133.014 80.186 133.138 80.6832 133.014C81.0562 132.89 81.1805 132.89 81.0562 132.643C81.0562 132.519 80.9319 132.395 80.5589 132.271L78.8186 131.775C77.9485 131.527 77.2026 131.031 76.954 129.915C76.7054 128.304 77.5756 127.312 79.5645 126.94C80.6832 126.692 81.802 126.816 83.0451 127.188L82.4236 129.419C81.4291 128.924 80.5589 128.8 79.8131 128.924C79.4402 129.048 79.1916 129.171 79.1916 129.419C79.1916 129.667 79.4402 129.667 79.6888 129.791L81.5534 130.287C82.5478 130.535 83.1694 131.279 83.2937 132.147C83.5423 133.51 82.7965 134.626 80.8076 134.998C80.186 134.998 79.3159 134.998 78.1971 134.75Z" fill="#3B55A2"/>
<path d="M61.9131 135.246L62.9075 133.386C63.5291 133.882 64.2749 134.13 64.7721 134.13C65.145 134.13 65.2694 134.006 65.2694 133.882C65.2694 133.758 65.1451 133.634 64.8964 133.386L63.2804 132.519C62.4103 132.023 61.9131 131.527 61.9131 130.287C62.0374 128.676 63.1561 127.808 65.145 127.932C66.2638 127.932 67.3826 128.304 68.377 128.924L67.2583 130.907C66.3881 130.163 65.6423 129.915 64.8964 129.791C64.5235 129.791 64.2749 129.791 64.2749 130.163C64.2749 130.411 64.3992 130.411 64.6478 130.535L66.2638 131.527C67.134 132.023 67.6312 132.766 67.5069 133.758C67.3826 135.122 66.3881 136.114 64.3992 135.99C63.7777 135.99 62.9075 135.742 61.9131 135.246Z" fill="#3B55A2"/>
<path d="M53.9569 127.932L56.5673 128.552L57.3132 127.188L59.675 127.684L55.0756 134.75L52.8381 134.254L51.4707 125.948L53.8326 126.444L53.9569 127.932ZM54.0812 129.667L54.3298 132.271L55.5729 130.039L54.0812 129.667Z" fill="#3B55A2"/>
<path d="M41.7754 122.229L43.2671 122.849L45.1317 128.18L46.7477 124.337L48.7366 125.205L45.7532 132.395L44.2615 131.775L42.3969 126.444L40.7809 130.287L38.792 129.419L41.7754 122.229Z" fill="#3B55A2"/>
<path d="M36.6785 119.254L38.5431 120.37L34.5653 127.064L32.7007 125.948L36.6785 119.254Z" fill="#3B55A2"/>
<path d="M25.6153 118.634L27.2313 119.874L30.8363 115.163L32.5766 116.403L28.9717 121.114L30.5876 122.353L29.3446 123.841L24.4966 120.122L25.6153 118.634Z" fill="#3B55A2"/>
<path d="M23.0048 109.957L24.8695 111.816L26.2368 111.197L27.8528 112.932L20.1458 116.279L18.5298 114.668L22.0104 106.982L23.6264 108.717L23.0048 109.957ZM22.1347 111.568L20.8916 113.8L23.2535 112.684L22.1347 111.568Z" fill="#3B55A2"/>
<path d="M17.9079 101.279L16.6648 104.626L19.0267 103.015L20.2698 104.75L13.8058 109.213L11.9412 106.486C10.8224 104.75 11.3196 103.387 12.4384 102.643C13.3086 102.023 14.4273 101.899 15.2975 102.643L16.4162 99.172L17.9079 101.279ZM14.1787 106.238L15.5461 105.246L15.0489 104.502C14.6759 104.007 14.1787 103.759 13.8058 104.131C13.3085 104.502 13.3086 104.874 13.6815 105.494L14.1787 106.238Z" fill="#3B55A2"/>
<path d="M13.93 94.3373L14.9244 96.1968L7.96321 99.7918L6.96875 97.9323L13.93 94.3373Z" fill="#3B55A2"/>
<path d="M9.4553 87.0234L10.3255 89.5027H11.8172L12.563 91.734L4.11011 91.4861L3.36426 89.3787L9.82823 83.9243L10.5741 86.1556L9.4553 87.0234ZM7.96362 88.1391L5.8504 89.7506H8.46086L7.96362 88.1391Z" fill="#3B55A2"/>
<path d="M1.00212 76.4863L2.99103 77.1062C2.61811 77.85 2.61811 78.5938 2.74242 79.0896C2.74242 79.4615 2.86673 79.5855 3.11535 79.4615C3.23965 79.4615 3.36396 79.3375 3.48827 78.9657L3.98549 77.2301C4.23411 76.3624 4.73135 75.6186 5.97442 75.3707C7.59042 75.1227 8.58487 75.9905 8.95779 77.9739C9.20641 79.0896 9.08209 80.2053 8.58486 81.445L6.34733 80.8251C6.84456 79.8334 6.96888 78.9656 6.84457 78.2219C6.72026 77.85 6.59594 77.602 6.34733 77.602C6.09871 77.602 6.09873 77.726 5.97442 78.0979L5.35288 79.9574C5.10427 80.9491 4.35842 81.5689 3.36396 81.6929C1.99658 81.9408 0.877805 81.0731 0.504883 79.2136C0.62919 78.4698 0.753509 77.602 1.00212 76.4863Z" fill="#3B55A2"/>
<path d="M68.1279 123.469C53.3353 123.469 39.2886 117.767 28.8468 107.23C18.405 96.8166 12.5625 82.8086 12.5625 68.0568C12.5625 53.3049 18.2806 39.2969 28.8468 28.8839C39.2886 18.4708 53.3353 12.6444 68.1279 12.6444C82.9205 12.6444 96.9672 18.3468 107.409 28.8839C117.851 39.2969 123.693 53.3049 123.693 68.0568C123.693 82.8086 117.975 96.8166 107.409 107.23C96.9672 117.643 82.9205 123.469 68.1279 123.469ZM68.1279 14.7518C53.8325 14.7518 40.4073 20.3303 30.3385 30.3714C20.2696 40.4126 14.6757 53.8008 14.6757 68.0568C14.6757 82.3127 20.2696 95.701 30.3385 105.742C40.4073 115.783 53.8325 121.362 68.1279 121.362C82.4232 121.362 95.8484 115.783 105.917 105.742C115.986 95.701 121.58 82.3127 121.58 68.0568C121.58 53.8008 115.986 40.4126 105.917 30.3714C95.8484 20.3303 82.4232 14.7518 68.1279 14.7518Z" fill="#B98F44"/>
</svg>
