<?xml version="1.0" encoding="utf-8"?>
<!-- Generator: Adobe Illustrator 23.0.3, SVG Export Plug-In . SVG Version: 6.00 Build 0)  -->
<svg version="1.1" id="Layer_1" xmlns="http://www.w3.org/2000/svg" xmlns:xlink="http://www.w3.org/1999/xlink" x="0px" y="0px"
	 viewBox="0 0 631.1 181.9" style="enable-background:new 0 0 631.1 181.9;" xml:space="preserve">
<style type="text/css">
	.st0{fill:#222220;}
	.st1{fill:none;}
	.st2{fill-rule:evenodd;clip-rule:evenodd;fill:#2C6245;}
	.st3{fill-rule:evenodd;clip-rule:evenodd;fill:#DDBC46;}
	.st4{fill:#626363;}
</style>
<g>
	<g>
		<path class="st0" d="M387,51.1c0.7,0.2,1,0.5,1,1v5c0,0.7-0.4,1-1,1h-10.9c-1.7,0-2.5,0.6-2.5,1.8v0.5c0,1,0.7,1.8,1.9,2.2l7,2.5
			c1.7,0.6,2.9,1.2,3.9,1.8c1.8,1.2,3.2,3.8,3.2,8.1V76c0,6.1-4.6,9.2-13.7,9.2c-3.1,0-6.8-0.4-11-1.2c-0.7-0.1-1-0.6-1-1.2v-4.6
			c0-0.7,0.4-1,1.1-1h12.9c1.6,0,2.4-0.5,2.4-1.6v-0.3c0-1.4-0.7-1.8-3-2.6l-6.8-2.3c-1.4-0.5-2.5-1.1-3.4-1.7
			c-1.7-1.4-2.9-4.2-2.9-8.6v-0.9c0-6.4,3.8-9.1,13-9.1C380.6,49.9,383.9,50.3,387,51.1z"/>
		<path class="st0" d="M418.4,50.2c0.5,0,0.7,0.2,0.7,0.7v6.7c0,0.4-0.2,0.7-0.7,0.7h-14.8v5.5h13.7c0.5,0,0.7,0.2,0.7,0.7v6.3
			c0,0.4-0.2,0.7-0.7,0.7h-13.7v5.5h14.8c0.5,0,0.7,0.2,0.7,0.7v6.7c0,0.4-0.2,0.7-0.7,0.7H395c-0.4,0-0.7-0.2-0.7-0.7V50.9
			c0-0.5,0.2-0.7,0.7-0.7H418.4z"/>
		<path class="st0" d="M447.2,50.2c0.5,0,0.7,0.2,0.7,0.7v6.7c0,0.4-0.2,0.7-0.7,0.7h-13.3v5.6H446c0.5,0,0.7,0.2,0.7,0.7v6.3
			c0,0.4-0.2,0.7-0.7,0.7h-12.2v12.8c0,0.5-0.2,0.7-0.7,0.7h-7.9c-0.4,0-0.7-0.2-0.7-0.7V50.9c0-0.5,0.2-0.7,0.7-0.7H447.2z"/>
		<path class="st0" d="M466.1,85.2c-11.9-0.3-14.8-3.8-15-17.6c0-7,0.8-11.1,3.2-13.9c2.3-2.8,5.9-3.7,11.9-3.7
			c6,0,9.5,0.9,11.9,3.7c2.3,2.8,3.2,6.9,3.2,13.9C480.9,81.4,478,84.9,466.1,85.2z M461.6,75.1c0.7,1.4,2.3,2,4.5,2s3.8-0.7,4.5-2
			c0.7-1.4,1.1-3.9,1.1-7.5c0-3.7-0.4-6.2-1.1-7.6c-0.7-1.4-2.3-2.1-4.5-2.1s-3.8,0.7-4.5,2.1c-0.7,1.4-1.1,3.9-1.1,7.6
			C460.4,71.2,460.8,73.8,461.6,75.1z"/>
		<path class="st0" d="M509.7,50.2c0.5,0,0.7,0.2,0.7,0.7v6.7c0,0.4-0.2,0.7-0.7,0.7h-8.5v26c0,0.5-0.2,0.7-0.7,0.7h-7.9
			c-0.4,0-0.7-0.2-0.7-0.7v-26h-8.4c-0.5,0-0.7-0.2-0.7-0.7v-6.7c0-0.4,0.2-0.7,0.7-0.7H509.7z"/>
		<path class="st0" d="M543.2,50.2c0.4,0,0.7,0.2,0.7,0.7v16.7c0,5.8-0.5,9.4-1.8,12.3c-2.1,4.1-5.7,5.2-12.9,5.3
			c-4.9,0-7.9-0.7-10.2-2.1c-3.4-2.5-4.4-6.9-4.4-15.5V50.9c0-0.4,0.2-0.7,0.7-0.7h7.9c0.4,0,0.7,0.2,0.7,0.7v16.7
			c0,3.8,0.4,6.4,1.1,7.6c0.7,1.3,2.2,1.9,4.3,1.9c2.2,0,3.6-0.6,4.3-1.9c0.7-1.3,1.1-3.8,1.1-7.6V50.9c0-0.4,0.2-0.7,0.7-0.7H543.2
			z"/>
		<path class="st0" d="M574.2,52.6c1.9,1.8,2.8,4.8,2.8,9.1c0,6.3-1.7,9.2-6.3,10.4l7.5,11.9c0.4,0.5,0.1,0.9-0.5,0.9h-8.1
			c-0.9,0-1.3-0.3-1.8-1l-7.1-11.2h-1.7v11.5c0,0.6-0.1,0.7-0.7,0.7h-7.9c-0.5,0-0.7-0.1-0.7-0.7V51.1c0-0.4,0.2-0.5,0.7-0.6
			c4.3-0.4,9-0.6,13.9-0.6C569.1,49.9,572.3,50.8,574.2,52.6z M559.1,58v8h4.3c3.3,0,4.3-1,4.3-3.9c0-2.9-1.1-4.1-4.3-4.1H559.1z"/>
	</g>
	<g>
		<path class="st0" d="M371.1,99c0.1,0,0.2,0.1,0.2,0.2v0.7c0,0.1-0.1,0.2-0.2,0.2h-3.2c-1.2,0-1.9,0.4-1.9,1.3v0.2
			c0,0.7,0.2,1.1,1.1,1.5l3.1,1.3c1.2,0.5,1.6,1.3,1.6,2.5v0.5c0,0.8-0.3,1.5-0.7,1.8c-0.2,0.2-0.5,0.3-0.8,0.4
			c-0.7,0.2-1.3,0.2-2.2,0.2c-1.2,0-2.4-0.1-3.5-0.2c-0.1,0-0.2-0.1-0.2-0.2v-0.6c0-0.1,0.1-0.2,0.2-0.2h3.9c1.3,0,1.9-0.4,1.9-1.3
			V107c0-0.8-0.2-1.2-1.1-1.5l-3.4-1.4c-1-0.4-1.3-1.2-1.3-2.4v-0.3c0-0.8,0.3-1.5,0.7-1.8c0.2-0.2,0.5-0.3,0.8-0.4
			c0.7-0.2,1.3-0.3,2.2-0.3C369.1,98.8,370,98.8,371.1,99z"/>
		<path class="st0" d="M381,98.8c0.1,0,0.2,0.1,0.2,0.2v0.8c0,0.1-0.1,0.2-0.2,0.2h-5.5v3.7h5c0.1,0,0.2,0.1,0.2,0.2v0.8
			c0,0.1-0.1,0.2-0.2,0.2h-5v3.4h5.5c0.1,0,0.2,0.1,0.2,0.2v0.8c0,0.1-0.1,0.2-0.2,0.2h-6.7c-0.1,0-0.2-0.1-0.2-0.2V99.1
			c0-0.1,0.1-0.2,0.2-0.2H381z"/>
		<path class="st0" d="M390.2,98.9c0.2,0,0.2,0.1,0.2,0.2v0.7c0,0.1-0.1,0.2-0.2,0.2h-2.7c-1.2,0-2,0.3-2.4,0.8
			c-0.4,0.6-0.5,1.7-0.5,3.4c0,1.7,0.2,2.8,0.5,3.4c0.4,0.6,1.1,0.8,2.4,0.8h2.7c0.1,0,0.2,0.1,0.2,0.2v0.7c0,0.1-0.1,0.2-0.2,0.3
			c-0.6,0.1-1.5,0.1-2.7,0.1c-1.8,0-2.8-0.3-3.5-1.2c-0.7-0.9-0.9-2.1-0.9-4.3c0-2.2,0.2-3.5,0.9-4.3c0.7-0.9,1.7-1.2,3.5-1.2
			C388.6,98.8,389.5,98.8,390.2,98.9z"/>
		<path class="st0" d="M399.1,99.4c0.7,0.5,1,1.4,1,2.9c0,1.1-0.2,1.9-0.5,2.4c-0.3,0.5-0.9,0.8-1.8,0.9l2.4,3.9
			c0.1,0.2,0,0.3-0.2,0.3h-0.9c-0.3,0-0.4-0.1-0.6-0.3l-2.4-3.7H394v3.8c0,0.2,0,0.2-0.2,0.2h-1c-0.2,0-0.2,0-0.2-0.2V99.1
			c0-0.2,0-0.2,0.2-0.2c0.9-0.1,2-0.1,3.1-0.1C397.5,98.8,398.4,98.9,399.1,99.4z M394,100v4.4h1.7c0.4,0,0.7,0,0.9,0
			c0.4,0,1-0.1,1.2-0.2c0.6-0.3,0.8-0.8,0.8-1.9c0-1-0.2-1.6-0.6-1.8c-0.4-0.3-1.2-0.4-2.4-0.4H394z"/>
		<path class="st0" d="M409.3,98.8c0.1,0,0.2,0.1,0.2,0.2v0.8c0,0.1-0.1,0.2-0.2,0.2h-5.5v3.7h5c0.1,0,0.2,0.1,0.2,0.2v0.8
			c0,0.1-0.1,0.2-0.2,0.2h-5v3.4h5.5c0.1,0,0.2,0.1,0.2,0.2v0.8c0,0.1-0.1,0.2-0.2,0.2h-6.7c-0.1,0-0.2-0.1-0.2-0.2V99.1
			c0-0.1,0.1-0.2,0.2-0.2H409.3z"/>
		<path class="st0" d="M419.1,98.8c0.1,0,0.2,0.1,0.2,0.2v0.8c0,0.1-0.1,0.2-0.2,0.2h-3.3v9.4c0,0.1-0.1,0.2-0.2,0.2h-1
			c-0.1,0-0.2-0.1-0.2-0.2v-9.4h-3.3c-0.1,0-0.2-0.1-0.2-0.2v-0.8c0-0.1,0.1-0.2,0.2-0.2H419.1z"/>
		<path class="st0" d="M424.1,99.1c0.2,0.2,0.4,0.6,0.6,1.4l2.5,9c0,0.2,0,0.2-0.2,0.2h-1.1c-0.1,0-0.1,0-0.2-0.2l-0.9-3.2h-4.3
			l-0.9,3.2c0,0.2-0.1,0.2-0.2,0.2h-1.1c-0.2,0-0.2,0-0.2-0.2l2.5-9c0.2-0.7,0.4-1.2,0.6-1.4c0.2-0.2,0.7-0.3,1.3-0.3
			C423.4,98.8,423.9,98.9,424.1,99.1z M422,100.8l-1.2,4.2h3.6l-1.1-4.2c-0.1-0.3-0.2-0.6-0.3-0.6c-0.1-0.1-0.2-0.1-0.5-0.1
			C422.2,100,422.2,100.1,422,100.8z"/>
		<path class="st0" d="M435.7,99.4c0.7,0.5,1,1.4,1,2.9c0,1.1-0.2,1.9-0.5,2.4c-0.3,0.5-0.9,0.8-1.8,0.9l2.4,3.9
			c0.1,0.2,0,0.3-0.2,0.3h-0.9c-0.3,0-0.4-0.1-0.6-0.3l-2.4-3.7h-2.2v3.8c0,0.2,0,0.2-0.2,0.2h-1c-0.2,0-0.2,0-0.2-0.2V99.1
			c0-0.2,0-0.2,0.2-0.2c0.9-0.1,2-0.1,3.1-0.1C434.1,98.8,435,98.9,435.7,99.4z M430.6,100v4.4h1.7c0.4,0,0.7,0,0.9,0
			c0.4,0,1-0.1,1.2-0.2c0.6-0.3,0.8-0.8,0.8-1.9c0-1-0.2-1.6-0.6-1.8c-0.4-0.3-1.2-0.4-2.4-0.4H430.6z"/>
		<path class="st0" d="M440.3,98.8c0.1,0,0.2,0.1,0.2,0.2v10.4c0,0.1-0.1,0.2-0.2,0.2h-1c-0.1,0-0.2-0.1-0.2-0.2V99.1
			c0-0.2,0.1-0.2,0.2-0.2H440.3z M441.6,95.9c0.1,0,0.1,0,0.1,0.1v0.1c0,0.1,0,0.1-0.1,0.2l-2,1.8c-0.1,0.1-0.1,0.1-0.2,0l-0.3-0.2
			c-0.1-0.1-0.1-0.1,0-0.2l1-1.7c0-0.1,0.1-0.1,0.2-0.1H441.6z"/>
		<path class="st0" d="M448.3,99.1c0.2,0.2,0.4,0.6,0.6,1.4l2.5,9c0,0.2,0,0.2-0.2,0.2h-1.1c-0.1,0-0.1,0-0.2-0.2l-0.9-3.2h-4.3
			l-0.9,3.2c0,0.2-0.1,0.2-0.2,0.2h-1.1c-0.2,0-0.2,0-0.2-0.2l2.5-9c0.2-0.7,0.4-1.2,0.6-1.4c0.2-0.2,0.7-0.3,1.3-0.3
			C447.6,98.8,448.1,98.9,448.3,99.1z M446.3,100.8l-1.2,4.2h3.6l-1.1-4.2c-0.1-0.3-0.2-0.6-0.3-0.6c-0.1-0.1-0.2-0.1-0.5-0.1
			C446.5,100,446.5,100.1,446.3,100.8z"/>
		<path class="st0" d="M463.9,100.1c0.7,0.8,1,2.3,1,4.2c0,2-0.3,3.4-1,4.2c-0.7,0.8-1.8,1.3-3.4,1.3c-1.7,0-3,0-3.9-0.1
			c-0.2,0-0.2,0-0.2-0.2V99.1c0-0.2,0-0.2,0.2-0.2c0.9-0.1,2.3-0.1,3.9-0.1C462.1,98.8,463.3,99.2,463.9,100.1z M457.8,100v8.4h2.7
			c1.1,0,1.9-0.3,2.3-1c0.5-0.7,0.7-1.7,0.7-3.3c0-1.5-0.2-2.6-0.7-3.2c-0.5-0.7-1.3-1-2.5-1H457.8z"/>
		<path class="st0" d="M474.3,98.8c0.1,0,0.2,0.1,0.2,0.2v0.8c0,0.1-0.1,0.2-0.2,0.2h-5.5v3.7h5c0.1,0,0.2,0.1,0.2,0.2v0.8
			c0,0.1-0.1,0.2-0.2,0.2h-5v3.4h5.5c0.1,0,0.2,0.1,0.2,0.2v0.8c0,0.1-0.1,0.2-0.2,0.2h-6.7c-0.1,0-0.2-0.1-0.2-0.2V99.1
			c0-0.1,0.1-0.2,0.2-0.2H474.3z"/>
		<path class="st0" d="M487.3,98.8c0.1,0,0.2,0.1,0.2,0.2v0.8c0,0.1-0.1,0.2-0.2,0.2h-5.4v3.7h4.9c0.1,0,0.2,0.1,0.2,0.2v0.8
			c0,0.1-0.1,0.2-0.2,0.2h-4.9v4.4c0,0.1-0.1,0.2-0.2,0.2h-1c-0.1,0-0.2-0.1-0.2-0.2V99.1c0-0.1,0.1-0.2,0.2-0.2H487.3z"/>
		<path class="st0" d="M496.5,108.6c-0.7,0.9-1.7,1.2-3.5,1.2c-1.8,0-2.8-0.3-3.5-1.2c-0.7-0.9-0.9-2.1-0.9-4.3
			c0-2.2,0.3-3.6,0.9-4.4c0.6-0.8,1.7-1.1,3.5-1.1c1.7,0,2.9,0.4,3.5,1.1c0.6,0.8,0.9,2.2,0.9,4.4
			C497.4,106.5,497.2,107.7,496.5,108.6z M490.6,107.7c0.4,0.6,1.1,0.8,2.4,0.8s2-0.3,2.4-0.8c0.4-0.6,0.5-1.7,0.5-3.4
			c0-1.7-0.1-2.6-0.5-3.3c-0.4-0.7-1.1-0.9-2.4-0.9c-1.3,0-2,0.2-2.4,0.9c-0.4,0.7-0.5,1.6-0.5,3.3
			C490.1,106,490.3,107.1,490.6,107.7z"/>
		<path class="st0" d="M510.2,98.8c0.1,0,0.2,0.1,0.2,0.2l0.9,10.4c0,0.1-0.1,0.2-0.2,0.2h-1c-0.1,0-0.2-0.1-0.2-0.2l-0.7-8.1
			l-3.1,7.8c0,0.1-0.1,0.2-0.3,0.2h-1c-0.1,0-0.2-0.1-0.3-0.2l-3.1-7.8l-0.7,8.1c0,0.1-0.1,0.2-0.2,0.2h-1c-0.2,0-0.2-0.1-0.2-0.2
			l0.9-10.4c0-0.2,0.1-0.2,0.2-0.2h1.1c0.3,0,0.4,0.1,0.6,0.6l3.1,8.1l3.1-8.1c0.2-0.4,0.3-0.6,0.6-0.6H510.2z"/>
		<path class="st0" d="M520.7,98.8c0.1,0,0.2,0.1,0.2,0.2v0.8c0,0.1-0.1,0.2-0.2,0.2h-5.5v3.7h5c0.1,0,0.2,0.1,0.2,0.2v0.8
			c0,0.1-0.1,0.2-0.2,0.2h-5v3.4h5.5c0.1,0,0.2,0.1,0.2,0.2v0.8c0,0.1-0.1,0.2-0.2,0.2H514c-0.1,0-0.2-0.1-0.2-0.2V99.1
			c0-0.1,0.1-0.2,0.2-0.2H520.7z"/>
		<path class="st0" d="M531.7,98.8c0.1,0,0.2,0.1,0.2,0.2v10.4c0,0.1-0.1,0.2-0.2,0.2h-0.9c-0.2,0-0.4-0.1-0.5-0.3l-5.7-8.5v8.6
			c0,0.1-0.1,0.2-0.2,0.2h-1c-0.1,0-0.2-0.1-0.2-0.2V99.1c0-0.2,0.1-0.2,0.2-0.2h1c0.5,0,0.6,0.1,0.8,0.4l5.2,7.9v-8.1
			c0-0.2,0.1-0.2,0.2-0.2H531.7z"/>
		<path class="st0" d="M541.9,98.8c0.1,0,0.2,0.1,0.2,0.2v0.8c0,0.1-0.1,0.2-0.2,0.2h-3.3v9.4c0,0.1-0.1,0.2-0.2,0.2h-1
			c-0.1,0-0.2-0.1-0.2-0.2v-9.4h-3.3c-0.1,0-0.2-0.1-0.2-0.2v-0.8c0-0.1,0.1-0.2,0.2-0.2H541.9z"/>
		<path class="st0" d="M550.8,108.6c-0.7,0.9-1.7,1.2-3.5,1.2s-2.8-0.3-3.5-1.2c-0.7-0.9-0.9-2.1-0.9-4.3c0-2.2,0.3-3.6,0.9-4.4
			c0.6-0.8,1.7-1.1,3.5-1.1c1.7,0,2.9,0.4,3.5,1.1c0.6,0.8,0.9,2.2,0.9,4.4C551.7,106.5,551.5,107.7,550.8,108.6z M545,107.7
			c0.4,0.6,1.1,0.8,2.4,0.8c1.2,0,2-0.3,2.4-0.8c0.4-0.6,0.5-1.7,0.5-3.4c0-1.7-0.1-2.6-0.5-3.3c-0.4-0.7-1.1-0.9-2.4-0.9
			c-1.3,0-2,0.2-2.4,0.9c-0.4,0.7-0.5,1.6-0.5,3.3C544.4,106,544.6,107.1,545,107.7z"/>
		<path class="st0" d="M372.2,117c0.1,0,0.2,0.1,0.2,0.2v0.8c0,0.1-0.1,0.2-0.2,0.2h-3.3v9.4c0,0.1-0.1,0.2-0.2,0.2h-1
			c-0.1,0-0.2-0.1-0.2-0.2v-9.4h-3.3c-0.1,0-0.2-0.1-0.2-0.2v-0.8c0-0.1,0.1-0.2,0.2-0.2H372.2z"/>
		<path class="st0" d="M382.4,117c0.1,0,0.2,0.1,0.2,0.2v5.2c0,2.3-0.2,3.5-0.9,4.4c-0.7,0.9-1.6,1.1-3.4,1.1c-1.4,0-2.3-0.2-3-0.7
			c-0.3-0.2-0.6-0.6-0.8-1c-0.3-0.9-0.5-2-0.5-3.8v-5.2c0-0.1,0.1-0.2,0.2-0.2h1c0.1,0,0.2,0.1,0.2,0.2v5.2c0,1.2,0.1,2,0.2,2.6
			c0.3,1.2,1,1.6,2.6,1.6c1.1,0,1.9-0.3,2.3-0.8c0.4-0.6,0.6-1.7,0.6-3.4v-5.2c0-0.1,0.1-0.2,0.2-0.2H382.4z"/>
		<path class="st0" d="M391.9,117.6c0.7,0.5,1,1.4,1,2.9c0,1.1-0.2,1.9-0.5,2.4c-0.3,0.5-0.9,0.8-1.8,0.9l2.4,3.9
			c0.1,0.2,0,0.3-0.2,0.3h-0.9c-0.3,0-0.4-0.1-0.6-0.3l-2.4-3.7h-2.2v3.8c0,0.2,0,0.2-0.2,0.2h-1c-0.2,0-0.2,0-0.2-0.2v-10.4
			c0-0.2,0-0.2,0.2-0.2c0.9-0.1,2-0.1,3.1-0.1C390.3,117,391.2,117.1,391.9,117.6z M386.8,118.2v4.4h1.7c0.4,0,0.7,0,0.9,0
			c0.4,0,1-0.1,1.2-0.2c0.6-0.3,0.8-0.8,0.8-1.9c0-1-0.2-1.6-0.6-1.8c-0.4-0.3-1.2-0.4-2.4-0.4H386.8z"/>
		<path class="st0" d="M396.5,117c0.1,0,0.2,0.1,0.2,0.2v10.4c0,0.1-0.1,0.2-0.2,0.2h-1c-0.1,0-0.2-0.1-0.2-0.2v-10.4
			c0-0.2,0.1-0.2,0.2-0.2H396.5z M397.9,114.1c0.1,0,0.1,0,0.1,0.1v0.1c0,0.1,0,0.1-0.1,0.2l-2,1.8c-0.1,0.1-0.1,0.1-0.2,0l-0.3-0.2
			c-0.1-0.1-0.1-0.1,0-0.2l1-1.7c0-0.1,0.1-0.1,0.2-0.1H397.9z"/>
		<path class="st0" d="M405.6,117.2c0.1,0,0.2,0.1,0.2,0.2v0.7c0,0.1-0.1,0.2-0.2,0.2h-3.2c-1.2,0-1.9,0.4-1.9,1.3v0.2
			c0,0.7,0.2,1.1,1.1,1.5l3.1,1.3c1.2,0.5,1.6,1.3,1.6,2.5v0.5c0,0.8-0.3,1.5-0.7,1.8c-0.2,0.2-0.5,0.3-0.8,0.4
			c-0.7,0.2-1.3,0.2-2.2,0.2c-1.2,0-2.4-0.1-3.5-0.2c-0.1,0-0.2-0.1-0.2-0.2v-0.6c0-0.1,0.1-0.2,0.2-0.2h3.9c1.3,0,1.9-0.4,1.9-1.3
			v-0.3c0-0.8-0.2-1.2-1.1-1.6l-3.4-1.4c-1-0.4-1.3-1.2-1.3-2.4v-0.3c0-0.8,0.3-1.5,0.7-1.8c0.2-0.2,0.5-0.3,0.8-0.4
			c0.7-0.2,1.3-0.3,2.2-0.3C403.5,117,404.4,117,405.6,117.2z"/>
		<path class="st0" d="M415.3,117c0.1,0,0.2,0.1,0.2,0.2v0.8c0,0.1-0.1,0.2-0.2,0.2H412v9.4c0,0.1-0.1,0.2-0.2,0.2h-1
			c-0.1,0-0.2-0.1-0.2-0.2v-9.4h-3.3c-0.1,0-0.2-0.1-0.2-0.2v-0.8c0-0.1,0.1-0.2,0.2-0.2H415.3z"/>
		<path class="st0" d="M418.5,117c0.1,0,0.2,0.1,0.2,0.2v10.4c0,0.1-0.1,0.2-0.2,0.2h-1c-0.1,0-0.2-0.1-0.2-0.2v-10.4
			c0-0.2,0.1-0.2,0.2-0.2H418.5z"/>
		<path class="st0" d="M428.2,117.1c0.2,0,0.2,0.1,0.2,0.2v0.7c0,0.1-0.1,0.2-0.2,0.2h-2.7c-1.2,0-2,0.3-2.4,0.8
			c-0.4,0.6-0.5,1.7-0.5,3.4c0,1.7,0.2,2.8,0.5,3.4c0.4,0.6,1.1,0.8,2.4,0.8h2.7c0.1,0,0.2,0.1,0.2,0.2v0.7c0,0.1-0.1,0.2-0.2,0.3
			c-0.6,0.1-1.5,0.1-2.7,0.1c-1.8,0-2.8-0.3-3.5-1.2c-0.7-0.9-0.9-2.1-0.9-4.3c0-2.2,0.2-3.5,0.9-4.3c0.7-0.9,1.7-1.2,3.5-1.2
			C426.6,117,427.5,117,428.2,117.1z"/>
		<path class="st0" d="M437.7,126.8c-0.7,0.9-1.7,1.2-3.5,1.2c-1.8,0-2.8-0.3-3.5-1.2c-0.7-0.9-0.9-2.1-0.9-4.3
			c0-2.2,0.3-3.6,0.9-4.4c0.6-0.8,1.7-1.1,3.5-1.1c1.7,0,2.9,0.4,3.5,1.1c0.6,0.8,0.9,2.2,0.9,4.4
			C438.6,124.7,438.4,125.9,437.7,126.8z M431.9,125.8c0.4,0.6,1.1,0.8,2.4,0.8s2-0.3,2.4-0.8c0.4-0.6,0.5-1.7,0.5-3.4
			c0-1.7-0.1-2.6-0.5-3.3c-0.4-0.7-1.1-0.9-2.4-0.9s-2,0.2-2.4,0.9c-0.4,0.7-0.5,1.6-0.5,3.3C431.3,124.1,431.5,125.3,431.9,125.8z"
			/>
	</g>
</g>
<path class="st0" d="M338,149.4c-0.5,0-0.9-0.4-0.9-0.8V29.3c0-0.5,0.4-0.8,0.9-0.8c0.5,0,0.9,0.4,0.9,0.8v119.4
	C338.9,149.1,338.5,149.4,338,149.4z"/>
<g>
	<g>
		<rect x="51.6" y="28.3" class="st1" width="90.6" height="121"/>
		<path class="st2" d="M142.2,28.3l0,58.8l0,0.2c-0.1,14.9-7.6,28.8-20.2,36.9c-17.7,11.5-40.9,9.5-56.4-4.8
			c-9-8.3-14-19.9-14.1-32.1v0V87l0-58.8L142.2,28.3z"/>
		<path class="st3" d="M93.7,115.5h-1.3l0,1.6h0.6l-1.8,4.4l0,6.3l3.3,0l0-5.6h0.8l1.5-3.6l0-0.9l1.9,0l0,0.9l1.3,3.5l0.8,0l0,5.6
			h3.3l0-6.3l-1.8-4.4h0.6v-1.6l-1.1,0v-0.6l-7.7,0V115.5z M93.7,32.3h-1.3v1.5H93l-1.8,4.4l0,6.3l3.3,0l0-5.4h0.8l1.5-3.5v-1.1h1.9
			v1.1l1.3,3.5h0.8v5.4h3.3l0-6.3l-1.8-4.4h0.6v-1.5h-1.1v-0.5l-7.7,0V32.3z M114.7,51.7c0.6,0.6-0.2,1.1-0.4,1.1
			c-0.3,0-0.5-0.2-0.9,0c-0.2,0.1-0.6,0.1-1,0.1c-0.4,0-0.7-0.1-1.1-0.3c-0.4-0.2-1.1,0-1.1,0s0.6-0.4,1-0.6c0.4,0,0.6,0.2,1.3,0.2
			c0.6,0.2,0.6-0.2,1.1-0.6C114.2,51.5,114.6,51.5,114.7,51.7 M118.1,55c-0.2,0-0.6,0.4-0.6,0.9c0,0.6,0.2,0.8-0.2,1.3
			c-0.4,0.4-0.8,0.6-0.9,1l0,0.9c0,0,0.1-0.8,0.5-0.9c0.4-0.2,0.8-0.4,0.9-0.6c0.2-0.4,0.4-0.8,0.4-0.9c0-0.4,0.4-0.6,0.6-0.8
			C118.9,55.5,118.9,54.8,118.1,55 M116.1,53.3c1.1,0,0.7,1.1,0.4,1.5c-0.2,0.2-0.8,0.4-0.9,0.7c-0.2,0.4-0.6,0.8-1.1,1
			c-0.3,0.2-0.9,0.4-1.5,0.4c-0.6,0.2-1.3,1-1.3,1s0.2-1,0.5-1.3c0.4-0.4,1-0.4,1.7-0.8c0.7-0.3,0.5-0.7,0.9-1.6
			C115.3,53.3,115.7,53.1,116.1,53.3 M120.3,55.5c-0.4,0.2-0.6,0.6-0.4,1.5c0.4,0.8,0.8,0.9,0.6,1.8c-0.2,0.8-0.6,1.1-0.6,1.7
			c0,0.5,0.4,1.1,0.4,1.1s-0.2-0.9,0.4-1.3c0.4-0.6,0.5-1,0.7-1.5c0.2-0.4,0.2-0.9,0-1.5c-0.2-0.4,0.2-0.8,0.2-1.1
			C121.6,55.9,121.1,54.8,120.3,55.5 M114.6,48.7c-0.2-0.2-0.5-0.4-1.5-0.2c-0.8,0.2-1,0.8-1.6,0.4c-1-0.2-1.3-0.6-1.8-0.6
			c-0.6,0-1.1,0.4-1.1,0.4s0.9,0,1.3,0.4c0.5,0.4,0.9,0.6,1.5,0.8c0.4,0.2,0.9,0.4,1.5,0.2c0.4-0.2,0.8,0.2,1.1,0.2
			C114.2,50.2,115.3,49.4,114.6,48.7 M122.9,47.6l0,7.5c-4.1-0.1-7.4-3.4-7.4-7.5L122.9,47.6z M111.2,75.3c0.6,0.6,1.4,1,1.8,1.2
			c0.3,0.2,0.9,0.2,1.4,0.2c0.2,0.2,0.6,0.8,0.6,1.6c0.2,0.6,0.7,1.8,1.2,2.4c0.6,0.6,0.6,1,1,1.2c0.4,0,0.7,0.1,0.7,0.1
			c0.2,0.4,0,1-0.3,1.4c-0.2,0.6-0.8,0.4-1.4-0.4c-0.4-0.8-1.4-3-1.6-3.4c-0.2-0.4-1.2-0.6-1.8-0.9C112,78.5,111.2,77.3,111.2,75.3
			 M110.1,70.9c0.2-0.2,0.4-0.2,0.9-0.2c0.8,0,0.6,0.4,0.4,0.8c-0.6,0.2-0.6,0-1,0C110.3,71.1,110.1,71.1,110.1,70.9 M84.3,56.6
			c-0.3,0.2-0.5,0-1,0.8c-0.4,0.8,0.2,1.8,0.6,1.6c0.3,0,1.8,0.1,2.6,0.1c1,0,2.2-0.5,2.2-0.5s0,1.6-0.2,2.8v3
			c-0.4,0-2.4,0.2-3.8,0.5c-1.6,0.4-1.6,2-1.6,2.6C83,68.3,83,70,82.7,71.1c-0.4,1,0.2,2,1,2.2c0.8,0,0.8-1.6,0.8-1.6
			s-0.4-0.2-0.4-0.6c0-0.6,0.4-1.8,0.4-2.4c0-0.8,0.4-1.4,0.4-1.4s2.2-0.2,3-0.2c0.6-0.2,1.2-0.4,1.2-0.4s0.4,0,0,0.2
			c-0.3,0.2-2,2.6-2.2,3.4c-0.2,1,0,1.8,0.8,2.8c0.8,0.9,2,2.4,3,2.6c0.8,0,1.2-0.4,1.2-1.2c0-0.6-0.7-0.8-0.7-0.8s-0.6,0.4-0.8,0.4
			c-0.4-0.2-1.2-0.9-1.4-1.6c-0.2-0.4-0.4-1.6-0.4-1.6s0.4-0.7,1.4-1c1.6-0.4,1-1.8,2.2-0.4c0.4,0.4,0.8,0.9,2.8,2.2
			c2,1.2,6.5,2,7.9,2c1.2,0,2,0.8,2.6,2.4c0.4,1.6,2,2.9,3.3,3.7c1.6,1,3.8,2,4,2.6c0.2,0.4,1.3,2.2,2,3.8c0.4,1.6,1.1,1.8,1.8,1.4
			c0.6-0.3,0.2-1.4,0.2-1.6c0-0.2-0.6,0-1-0.6c-0.3-0.4-0.7-1.8-0.9-2.6c-0.2-0.8-0.8-2.6-1.2-2.8c-0.2-0.4-1.4-0.2-2-0.8
			c-0.6-0.7-0.7-3.1-0.7-4.3c0-1.4-0.4-2.6-1-3.6c-0.8-1.2-2.8-2.2-6.3-3.9c-3.8-1.6-6.6-4-7.3-4.4c-0.6-0.6-1.2-1.8-1.6-2.6
			c-0.4-0.8-2.2-3.8-3-4.3c-0.5-0.8-1.2-1.2-1.2-1.8c0-0.4,0.4-1,1-1.6c0.7-0.4,1.8-1.4,2-2c0.4-0.3,0.2-0.7-0.6,0
			c-0.6,1-0.2-0.1-0.2-0.5c0-0.2-0.2-1-0.4-1.6c-0.2-0.6-0.4-0.2-0.4,0.2c-0.2,0.6-0.2,1.2-0.2,1.6c0,0.5-0.5,0.5-0.7,0
			c-0.4-0.4-0.6-1.2-1-0.8c-0.2,0.2,0.2,1,0.4,1.8c0.2,0.8-0.4,1.6-0.6,2.2c-0.2,0.4-0.7,0.8-1.2,1c-0.4,0.2-1-0.2-1-0.2
			s-0.6,0.4-0.9,1C85.9,55.9,84.7,56.4,84.3,56.6 M90.9,54.2c0-0.2,0.7-1.2,1.8-0.9c0.8,0.1,0.6,0.1,1,0.3c0.1,0.4,0.1,0.6,0.3,0.8
			c0,0.2-0.3,0.2-1.2,0c-0.6-0.2-1,0.6-1.2,0.4C91.3,54.9,91.1,54.4,90.9,54.2 M88.1,55.9c0.4,0,0.2,0.4-0.2,0.5
			c-0.2,0.2-0.8,0-0.4-0.1C87.7,56.1,87.9,55.9,88.1,55.9 M86.7,54.2l-0.5,0.6c-0.4,0-0.2-1-1.2-1c-1.2,0-0.6-0.4-0.6-0.4
			s0.4-0.3,1-0.1C86.1,53.4,86.9,54,86.7,54.2 M86.7,50.7c-0.1-0.3-0.1-1.2-0.3-1.8c-0.2-0.6-0.2-1,0.2-0.4c0.5,0.4,0.5,2.4,1,0.8
			c0.4-1.4,0.6-0.2,0.4,0c0,0.4-0.2,1-0.2,1.8c0,0.6-0.2,1.4,0.8,1.8c1.2,0.4-1,1.6-1,0.7c-0.2-0.7-0.6-1.1-0.8-1.8
			c-0.1-0.6-0.5-0.6-0.7-1c-0.4-0.3-0.6-0.7-0.4-0.7C85.9,50.1,86.7,51.1,86.7,50.7 M140.7,29.8l0,57.2v0.2
			c-0.1,14.4-7.4,27.8-19.5,35.6c-17.1,11.1-39.5,9.2-54.5-4.6c-8.6-8-13.5-19.2-13.6-31v-0.2l0-57.2L140.7,29.8z M124.1,46.4
			l0,40.6v0.2c0,8.8-4.5,16.9-11.9,21.7c-10.7,7-24.8,5.8-34.2-2.9c-5.2-4.9-8.2-11.7-8.2-18.8V87l0-40.6L124.1,46.4z M67.9,75.1
			h-0.5v-0.3c0-0.4-0.3-0.8-0.8-0.8c-0.4,0-0.8,0.3-0.8,0.8v0.3h-0.4v0.2H65v-0.6h0l0-4h-0.2v-0.4c0-0.3-0.3-0.6-0.6-0.6
			c-0.3,0-0.6,0.3-0.6,0.6v0.4h-0.2v0.8l-0.4-0.2v-0.6v-0.4l-0.9-0.5v-0.6l-0.6-0.4l0-1.5l0.6,0v-0.4l-0.6,0v-0.3h-0.4v0.3h-0.6v0.4
			h0.6l0,1.5l-0.6,0.4v0.6l-0.9,0.5l0,0.4v0.6l-0.4,0.2v-0.8H59v-0.4c0-0.3-0.3-0.6-0.6-0.6s-0.6,0.3-0.6,0.6v0.4h-0.2l0,4v0.6h-0.5
			v-0.2h-0.2v-0.3c0-0.4-0.3-0.8-0.8-0.8c-0.4,0-0.8,0.3-0.8,0.8v0.3h-0.5l0,6.4l13,0L67.9,75.1z M62.7,72.9c0-0.7-0.6-1.3-1.3-1.3
			c-0.7,0-1.3,0.6-1.3,1.3v1.6l2.6,0V72.9z M60,78.5c0-0.8-0.6-1.5-1.4-1.5c-0.8,0-1.4,0.7-1.4,1.5v1.9l2.8,0L60,78.5z M65.5,78.5
			c0-0.8-0.6-1.5-1.4-1.5c-0.8,0-1.4,0.7-1.4,1.5v1.9h2.8V78.5z M138.9,75.1h-0.5v-0.3c0-0.4-0.3-0.8-0.8-0.8
			c-0.4,0-0.7,0.3-0.7,0.8v0.3h-0.4v0.2h-0.5v-0.6h0v-4l-0.2,0v-0.4c0-0.3-0.3-0.6-0.6-0.6c-0.3,0-0.6,0.3-0.6,0.6v0.4h-0.2v0.8
			l-0.4-0.2l0-0.6v-0.4l-0.9-0.5v-0.6l-0.6-0.4v-1.5h0.6v-0.4h-0.6v-0.3h-0.4v0.3l-0.6,0v0.4l0.6,0l0,1.5l-0.6,0.4v0.6l-0.9,0.5
			l0,0.4v0.6l-0.4,0.2v-0.8H130v-0.4c0-0.3-0.3-0.6-0.6-0.6c-0.3,0-0.6,0.3-0.6,0.6v0.4h-0.2l0,4v0.6h-0.5v-0.2H128v-0.3
			c0-0.4-0.3-0.8-0.8-0.8c-0.4,0-0.8,0.3-0.8,0.8v0.3l-0.5,0l0,6.4l13,0V75.1z M133.7,73c0-0.7-0.6-1.3-1.3-1.3
			c-0.7,0-1.3,0.6-1.3,1.3l0,1.6l2.6,0L133.7,73z M131.1,78.5c0-0.8-0.6-1.5-1.4-1.5c-0.8,0-1.4,0.7-1.4,1.5v1.9l2.8,0L131.1,78.5z
			 M136.5,78.5c0-0.8-0.6-1.5-1.4-1.5c-0.8,0-1.4,0.7-1.4,1.5v1.9l2.8,0L136.5,78.5z M95.7,104.7l2.6,0.6c0.6-0.2,1-0.6,1.4-1.2
			l-1.4,0.5L95.7,104.7z M95.7,103.9c0.2,0,0,0,2.7,0.4c0,0,0,0,0.7-0.2c0.1-0.1-0.1,0.1,0.7-0.9C99.6,103.6,96.1,104,95.7,103.9
			 M95.7,102.9l2.6,0.4c0.6-0.1,1.1-0.5,1.4-1l-1.4,0.6L95.7,102.9z M95.7,101.9l2.6,0.6l0.7-0.4l0.6-0.7l-1.4,0.5L95.7,101.9z
			 M96.9,106.1l1.9-0.8c-1,0.4-2,0.5-3.1,0.4C96.1,105.8,96.5,105.9,96.9,106.1 M99.7,100.5l-1.4,0.4c0.2,0,0.3,0,0.5-0.1
			c-1,0-2.1,0.1-3.1,0.3l2.6,0.4C98.9,101.5,99.5,101.1,99.7,100.5 M98.1,105.3c-0.9-0.2-1.9-0.3-2.8-0.4l-1.4-0.8
			c0.4,0.6,0.9,1.1,1.6,1.4L98.1,105.3z M98.1,104.5c-1.5,0-2.9-0.5-4.2-1.4l0.5,1C95.7,104.5,96.9,104.6,98.1,104.5 M98.1,103.5
			L98.1,103.5c-1.5-0.2-2.9-0.6-4.2-1.2c0.3,0.7,0.9,1.2,1.6,1.4L98.1,103.5z M98.1,102.5c-1.5,0.1-3-0.3-4.2-1.2
			c0.4,0.6,0.9,1.1,1.6,1.4L98.1,102.5z M98.1,101.7L98.1,101.7c-1.5,0-3-0.5-4.2-1.4l0.5,1C95.7,101.7,96.9,101.8,98.1,101.7
			 M116.5,104.5l-0.7,0v0.4h0.2C116.1,104.7,116.3,104.7,116.5,104.5 M115.5,105.3c-0.2-0.4-0.2-0.8-0.2-0.8c0-0.1,0,0.1-1.8-0.1
			c0,0.6-1.8,1.1-1.3,1.4c0.3,0.6,0.4,0.6,0.7,0.7c0.2,0.2,0.4,0.2,0.7,0.2C114.3,106.3,114.9,105.9,115.5,105.3 M113.3,107.2
			c-0.4-0.2-0.6-0.2-0.8-0.2c-0.2-0.2-0.4-0.6-0.8-0.6c-0.2-0.2-1.7,0-1.8,0c0,0,0.2,0.6,0.4,1c0,0.3,1,0.1,1.2,0.1
			c0,0,0.2,0.2,0.4,0.4C112.3,107.7,112.9,107.4,113.3,107.2 M111.5,108.1c-0.2,0-0.3-0.2-0.8-0.2c-0.4-0.2-0.2,0.4-0.2,0.4
			c0,0-0.2,0.4-0.2,0.6C110.7,108.7,111.2,108.3,111.5,108.1 M108.1,109.9c0.9-0.1,2.5-1.6,1.3-2.7c0.2,0.2,0,0.3-0.5,0.1
			c-0.1,1.2-1.7,1.1-2.3,0.9c-0.3-0.1-0.6,0.8-0.4,1.2c0.2,0.5,0.4,0,1,0.2c0.1,0,0.2,0,0.3,0C107.8,109.8,107.9,109.9,108.1,109.9
			 M107.5,110.2c-0.2,0-0.6-0.2-0.6-0.2c-0.8-0.3-0.9,0.6-1.4,0.9C106.2,110.7,106.9,110.5,107.5,110.2 M104.3,111.3
			c0.1-0.4,0.5-0.6,0.4-0.6c0.3,0,1.3-0.5,1.2-1.1c0.2-0.4,0-0.7-0.1-0.8c-0.4-0.6-1.3-0.6-1.6,0c-0.4,0.1-1.6,0.2-1.8,0.6
			c0-0.1,0,0-0.8,0.2c0,0-0.1,0.4,0,0.6c0,0.1,0.3,0.3,0.4,0.6c0.8-0.1,1.2,0.2,1.6,0.8C103.8,111.3,104,111.3,104.3,111.3
			 M103.1,111.5c-0.2-0.2-0.2-0.2-0.2-0.4h-0.6c0,0,0,0.4,0.2,0.6h0.2C102.7,111.7,102.9,111.5,103.1,111.5 M102.3,111.9
			c-0.2-1.5-1.6-0.8-0.5,0.1C101.8,111.8,102.2,111.6,102.3,111.9 M101.1,112c-0.2-0.2-0.3-0.5-0.5-0.4c0.1-1.3-1.3-1-2.2-1.3
			c-0.1,0.3-0.8,0.2-1,0.2c-0.2,0.2-0.8,0.4-0.8,0.4c0,0,0,0.4,0,0.6c-0.1,0.2-0.6,0.4-0.8,0.4c-0.2,0.1-0.2,0.1-0.5,0.3
			C97.4,112.6,99.3,112.2,101.1,112 M93.7,112.1c-0.4-0.4-0.8-0.6-1-0.6c-0.2,0.2-0.2,0-0.4,0.2c0,0.2-0.2,0.2-0.2,0.2
			C92.7,111.9,93.3,112.1,93.7,112.1 M90.1,111.6c0.7-0.1,1.1,0.2,1.8,0.2C91.8,111.3,90.1,110.2,90.1,111.6 M89.9,111.3
			c0-0.2-0.2-0.4-0.4-0.6c-0.2,0-0.3-0.4-0.8-0.5c-0.2-0.2-0.6-0.4-1-0.4c-0.9,0.5-1.1,0-2.1,0c0.2,0.2,0,0.2-0.1,0.3
			C86.9,110.5,88.3,110.9,89.9,111.3 M85.3,109.7c-0.2,0-0.2-0.2-0.2-0.2h-0.4C84.9,109.5,85.1,109.7,85.3,109.7 M82.5,108.3
			c0.7-0.4,2.4,1.7,3-0.1c-0.1,0.1-0.1-0.4-0.3-0.5c-0.2-0.1,0-0.5-0.3-0.1c0.7-1.4,0.3-2.8-1.1-2.7c-1.4,0.1-2.4,0.9-2,2.5
			c-0.4,0-0.2,0.3-0.3,0.3C81.9,107.9,82,108.1,82.5,108.3 M80.7,107.3c0.4-1.3-0.6-1.6-1.6-1.3C79.5,106.5,80.1,106.6,80.7,107.3
			 M78.7,105.7c0.2-0.5-0.6-0.7-0.8-0.6C78.3,105.3,78.5,105.5,78.7,105.7 M86.2,108c0.3,0.1,0.7,0.2,1,0.2c0.7,0.1,0.5-0.7,0.6-1.3
			c0.3-0.1,0.5-0.3,0.7-0.5c0.3-0.3,0.4-0.4,0.6-0.7c-0.3-1-1.8-0.3-2.6-1c-1,0-1.3,0.6-0.9,0.9c0.5,0.3,0.1,1.6-0.1,1.8
			C85.6,107.4,86,107.9,86.2,108 M87,109.6c-0.7-0.1,0.5-0.1,0.7,0c0.2,0,0.7,0.1,0.9,0.2c0.5,0.3,1.7-0.7,1.7-0.6
			c-0.2-0.8,0.2-1.7,0.4-2.6c0.1-0.5-0.6-0.4-0.9-0.2c-0.4,0.2-0.9,0.4-1.1,0.5c0.1-0.1-0.2,0.7-0.2,1.4c0,0.3-0.1,0.3-0.2,0.3
			c-0.1,0-0.7,0.1-0.9,0C86.9,108.3,84.7,109,87,109.6 M89.4,105.6c0.1,0.3,0.3,0.7,1.1,0.5c1.6-0.4-0.2,2.1,0.7,2.3
			c0-0.3,0.8-0.6,1.4-0.7c0.6-0.1,0.7-0.7,0.8-1.2c0.1-0.5-0.7-0.7-1.1-1c-0.3-0.3-1-0.5-1.3-0.4C90.6,105.2,89.3,105.3,89.4,105.6
			 M80.9,106.2c0.4,0.9,0.7-0.7,0.9-0.6c-0.1-0.7-0.4-0.6-0.7-0.6c-0.3,0-0.8,0-1.4-0.5c-2.4,0-2.4,0-2.4,0c0,0,0.3,0.1,0.4,0.3
			c0.1,0.3,1.7,0.1,1.2,0.2c0.3,0.6,0.3,0.6,0.2,0.6C79.6,105.8,80.5,105.3,80.9,106.2 M90.6,110.5c0.4-0.3,0.8,0.3,1.3,0.6
			c0.4,0.3,0.9,0.2,0.8-0.2c-0.1-0.4-0.2-0.9,0.1-1.3c0.2-0.5,0.4-0.8,0-1.1c-0.4-0.3-0.5-0.1-1.1,0c-0.6,0-1.1,0-1.1,0.6
			c0,0.5-1.2,0.5-1.1,1C89.6,110.6,90.3,110.8,90.6,110.5 M94.9,111.9c0.1,0,0.1-0.1,0.2-0.1c0.1-0.1,0.2-0.2,0.5-0.3
			c0.6-0.2,0.5-0.6,0.5-0.6c0.1,0,0.7-0.5,1-0.6c0.6-0.5-0.8-1.1-1.3-0.7c-0.6,0.3-1.3,0.2-2,0c-0.7-0.2-0.8,0.9-0.6,1.4
			C93.5,111.5,94.6,112.1,94.9,111.9 M93.1,107.9c-0.4,0.2,0.3,0.6,0.6,0.8c0.3,0.2,0.5,0.4,1,0.6c0.2-0.2,0.4-0.2,0.5-0.2
			c0.1-0.1,0.4-0.1,0.5-0.2c0.8-0.1,1.3,0.3,1.5-0.6c-0.1-0.2-0.4-0.6-0.6-0.8c-0.2-0.1-0.6-0.3-0.6-0.4c0,0-0.2,0-0.5,0
			c-0.2,0-0.5-0.3-0.6,0C93.7,105.9,93.9,107.6,93.1,107.9 M96.7,107.1c0,0,0,0,0.8,0.7l0,0.8l-0.4,0.6c0,0,0.2,0.4,0.6,0.6
			c0.1,0,0.3,0,0.6,0c0.2,0,0.4,0,0.5,0c-0.2,0,1.8-0.3,1.3-0.6c-0.4-0.3-1-0.9-1-1.5c0.3,0.5-0.9-1-1.1-1.1
			C97.8,106.8,97.1,107.1,96.7,107.1 M99.1,107.4c0.7,0.7,0.1,0.6,0.8,1.4c0.5,0.3,1.2,1.3,2,0.3c-0.1,0.1,1.1-1.7-0.1-1.3
			c-0.1-0.3-0.8-0.2-0.9-0.4c0-0.2,0.1-0.6-0.3-0.8c-0.1,0-1.3,0-1.3-0.2C98,106.2,98.9,106.8,99.1,107.4 M98.5,106.1
			c0.2,0.2,0.7,0,0.8,0c0.4,0,0.6,0.4,1,0.2c0.7-0.1,1.2,1,1.7,0.8c0.5-0.2,1.3-0.9,1.4-1.2c-0.2,0-0.1,0-0.9-0.4
			c-0.3,0-1.2,0.1-1.4-0.2c-0.2-0.6-1.6,0.3-2.1,0.2C98.7,105.7,98.5,105.9,98.5,106.1 M91.3,104.5l-4.5,0c0.8,0.4,1.7,0.6,2.6,0.4
			C90.1,104.7,90.7,104.6,91.3,104.5 M80.3,104.4c1,0.8,3.1,0.3,4.7,0.4c1-0.2,0.6-0.3,0.9-0.3C80.3,104.4,80.8,104.6,80.3,104.4
			 M95.3,106.1L95.3,106.1c-0.4-0.3-0.8-0.6-1.2-0.8c-0.1-0.4-0.4-0.7-0.8-0.8h-1c-0.1,0.1-0.2,0.2-0.2,0.3c0,0,0,0,0,0
			c0,0,0,0.1,0,0.1c0.6,0.3,1.2,0.7,1.6,1.2L95.3,106.1z M94.7,106.5c0.6,0.7,3.1,0.5,3.7-0.2c-0.3,0.2,0-0.2,0-0.3
			c-0.1,0.1-1.1,0.5-1.7,0.5C97,105.8,94.1,106.5,94.7,106.5 M98.9,105.4c1.3-0.4,1.8-0.9,2.8-0.1c0.4,0.3,1.4-0.8,1.2-0.8
			c0,0,0,0-0.1,0c-0.1,0-0.7-0.1-0.9,0.1C101,104.2,99.2,104.6,98.9,105.4 M103.7,104.5c-0.3,0.1-1.2,0.7-0.4,1
			c0.2,0,0.5,0.5,0.6,0.3c-0.3,1-2.5,1.1-1.1,1.9c-0.2-0.1,0.1,0.4-0.2,0.6c-0.6,0.9,0.9,0.1,1.1,0.2c0.2,0.1,1.5-1,1.1-1.4
			c-0.2-0.1,1-0.8,0.6-1.1c-0.5-0.3-0.6-0.9-0.3-1.2c0.7-0.3-0.3-0.4-0.9-0.4C103.7,104.5,103.8,104.5,103.7,104.5 M106.1,104.5
			c-0.1,0.2-1,0.8-0.6,1.1c0.2,0.2,0.4,0.3,0.4,0.6c0.1,0.3-0.4,0.7-0.1,0.4c-1.2,0.8-1,2.1,0.6,1.2c-0.5,0.2,0.4,0,0.6,0.1
			c0.2,0,0.9-0.1,0.8,0.1c0.3-0.7,0.8-0.7,1.2-1.2c0.4-0.5-0.1-1-0.3-1.5c-1,0.5-0.3-0.8-1.1-0.8c-0.4,0-1.3,0-1.4,0
			C106.2,104.5,106.1,104.5,106.1,104.5 M109.7,105.9c0.3-0.4,1.8,0.5,2-0.5c0,0,1.2-0.7,1-1c-4,0-4,0-4,0
			C108.4,104.9,109.6,105.7,109.7,105.9 M99.8,109.8c-0.5,0.1,0.8,0.8,0.7,0.7c0,0,0,0,0.4,0.4c0,0,0.4,0,0.4-0.3
			c0-0.3-0.2-0.6-0.2-0.6C100.9,109.8,100.2,109.7,99.8,109.8 M90.5,80.8l4.8,10l1.6,2.1l-1,1.8l-1.6-2L90.5,80.8z M96.7,77.2
			l0.8,11.7l0.6,2l-1,1.6l-1.6-2.1L96.7,77.2z M103.8,82.6l-4.5,11l-2.4,3.2l-0.8-0.2l0-1.2L103.8,82.6z M108.6,85.8L98.3,97.9
			l-1.4,2.6l-1,0.2l0-2l4-4.9L108.6,85.8z M111,92.9l-12.6,6l-0.8,1.6l2-0.2L111,92.9z M110.8,89.5l-9.1,5.8L99,97.9l3.8-1.6
			L110.8,89.5z M86.9,84.6l8.8,10.5v1.6l-1.2-0.2L86.9,84.6z M85.5,89l7,8.2l3,1.6l1-1.6l-2.3-0.4L85.5,89z M82.7,92.3l10.2,7.4
			l2.6,1l0-1.4L82.7,92.3z"/>
		<path class="st2" d="M140.7,133.5v2.5l0,9.5c0,2.1-1.7,3.9-3.9,3.9l-78.2,0c-2.1,0-3.9-1.7-3.9-3.9l0-9.5l0-2.5l0-0.1
			c0.3-0.9,0.8-1.6,1.6-2.1v-5l2.5,2.4c0.7,0.6,1.1,1.5,1.3,2.4l0,0v3.2l74.9,0l0-3.2l0,0c0.2-0.9,0.6-1.8,1.3-2.4l2.5-2.4l0,5
			C139.8,131.7,140.4,132.5,140.7,133.5L140.7,133.5z"/>
		<path class="st3" d="M71.2,136.8v0.3c-0.3,0-0.6,0.1-0.8,0.3c-0.3,0.2-0.7,0.7-1.2,1.6l-2.3,3.5l0,2.3c0,0.5,0,0.8,0.1,0.9
			c0.1,0.1,0.2,0.2,0.3,0.3c0.2,0.1,0.4,0.1,0.7,0.1h0.6l0,0.3l-5.9,0l0-0.3h0.5c0.3,0,0.6-0.1,0.7-0.1c0.1-0.1,0.2-0.2,0.3-0.3
			c0.1-0.1,0.1-0.4,0.1-0.9v-1.9l-2.5-4.2c-0.5-0.8-0.8-1.3-1-1.5c-0.2-0.1-0.5-0.2-0.8-0.2v-0.3l5,0v0.3h-0.2c-0.3,0-0.5,0-0.6,0.1
			c-0.1,0.1-0.2,0.2-0.2,0.3c0,0.2,0.2,0.6,0.6,1.3l1.9,3.2l1.9-2.9c0.5-0.7,0.7-1.2,0.7-1.4c0-0.1-0.1-0.2-0.2-0.3
			c-0.2-0.1-0.5-0.2-1-0.2v-0.3H71.2z M71.8,136.8l5.4,0v0.3h-0.3c-0.4,0-0.7,0-0.8,0.1c-0.2,0.1-0.3,0.2-0.3,0.3
			c-0.1,0.1-0.1,0.5-0.1,1l0,4.7c0,0.9,0.1,1.4,0.2,1.7c0.1,0.3,0.4,0.5,0.7,0.7c0.3,0.2,0.7,0.3,1.2,0.3c0.6,0,1-0.1,1.4-0.4
			c0.4-0.2,0.7-0.6,0.9-1c0.2-0.4,0.3-1.1,0.3-2.2l0-3.9c0-0.4,0-0.7-0.1-0.9c-0.1-0.2-0.2-0.3-0.4-0.4c-0.2-0.1-0.6-0.2-1-0.2v-0.3
			l3.6,0v0.3h-0.2c-0.3,0-0.5,0.1-0.7,0.2c-0.2,0.1-0.3,0.3-0.4,0.5c-0.1,0.2-0.1,0.4-0.1,0.8l0,3.7c0,1.1-0.1,2-0.2,2.5
			c-0.2,0.5-0.6,1-1.2,1.4c-0.6,0.4-1.5,0.6-2.6,0.6c-0.9,0-1.6-0.1-2.1-0.3c-0.7-0.3-1.1-0.7-1.4-1.2c-0.3-0.5-0.4-1.1-0.4-1.9
			l0-4.7c0-0.6,0-0.9-0.1-1c-0.1-0.1-0.2-0.2-0.3-0.3c-0.2-0.1-0.5-0.1-0.9-0.1V136.8z M93.4,136.6v3.4h-0.3c-0.2-0.9-0.6-1.5-1.3-2
			c-0.6-0.5-1.3-0.7-2.1-0.7c-0.7,0-1.3,0.2-1.8,0.5c-0.5,0.4-0.9,0.8-1.2,1.4c-0.3,0.7-0.5,1.5-0.5,2.4c0,0.9,0.1,1.7,0.3,2.4
			c0.2,0.7,0.6,1.3,1.1,1.6c0.5,0.4,1.2,0.5,2,0.5c0.7,0,1.3-0.1,1.8-0.4c0.6-0.3,1.1-0.7,1.7-1.4l0,0.8c-0.6,0.6-1.2,1-1.8,1.2
			c-0.6,0.3-1.4,0.4-2.2,0.4c-1.1,0-2.1-0.2-3-0.6c-0.9-0.4-1.5-1-2-1.8c-0.5-0.8-0.7-1.6-0.7-2.5c0-0.9,0.3-1.8,0.8-2.6
			c0.5-0.8,1.2-1.5,2.1-1.9c0.9-0.5,1.8-0.7,2.8-0.7c0.7,0,1.5,0.1,2.3,0.4c0.5,0.2,0.8,0.3,0.9,0.3c0.2,0,0.3-0.1,0.4-0.2
			c0.1-0.1,0.2-0.3,0.2-0.5H93.4z M100.8,143.7l-3.7,0l-0.5,0.9c-0.1,0.3-0.2,0.6-0.2,0.8c0,0.3,0.1,0.5,0.3,0.6
			c0.1,0.1,0.5,0.1,1,0.2v0.3l-3.5,0v-0.3c0.4-0.1,0.7-0.2,0.9-0.4c0.2-0.2,0.5-0.7,0.9-1.5l3.7-7.7h0.2l3.8,8
			c0.4,0.8,0.7,1.2,0.9,1.4c0.2,0.1,0.4,0.2,0.7,0.3v0.3l-5.1,0l0-0.3h0.2c0.4,0,0.7-0.1,0.9-0.2c0.1-0.1,0.2-0.2,0.2-0.3
			c0-0.1,0-0.2-0.1-0.3c0,0-0.1-0.2-0.2-0.5L100.8,143.7z M100.5,143.2l-1.6-3.3l-1.6,3.3H100.5z M114.4,136.8l-9.4,0v2.6h0.3
			c0.1-0.7,0.4-1.3,0.8-1.7c0.3-0.3,0.8-0.4,1.5-0.4h0.8l0,7.5c0,0.5,0,0.8-0.1,0.9c-0.1,0.2-0.2,0.3-0.3,0.3
			c-0.2,0.1-0.4,0.2-0.7,0.2H107l0,0.3l5.5,0v-0.3h-0.4c-0.3,0-0.5-0.1-0.7-0.1c-0.2-0.1-0.3-0.2-0.3-0.3c-0.1-0.1-0.1-0.4-0.1-0.9
			l0-7.5h0.8c0.5,0,0.8,0,1,0.1c0.4,0.2,0.6,0.4,0.8,0.6c0.2,0.3,0.4,0.7,0.5,1.3h0.3V136.8z M120.4,143.7l-3.7,0l-0.5,0.9
			c-0.1,0.3-0.2,0.6-0.2,0.8c0,0.3,0.1,0.5,0.4,0.6c0.1,0.1,0.5,0.1,1,0.2l0,0.3l-3.5,0v-0.3c0.4-0.1,0.7-0.2,0.9-0.4
			c0.2-0.2,0.5-0.7,0.9-1.5l3.7-7.7h0.1l3.8,8c0.4,0.8,0.7,1.2,0.9,1.4c0.2,0.1,0.4,0.2,0.7,0.3l0,0.3H120v-0.3h0.2
			c0.4,0,0.7-0.1,0.9-0.2c0.1-0.1,0.2-0.2,0.2-0.3c0-0.1,0-0.2,0-0.3c0,0-0.1-0.2-0.2-0.5L120.4,143.7z M120.1,143.2l-1.6-3.3
			l-1.6,3.3L120.1,143.2z M129.1,136.8l5.2,6v-4.2c0-0.6-0.1-1-0.3-1.2c-0.2-0.3-0.7-0.4-1.2-0.4v-0.3l3.5,0v0.3
			c-0.4,0.1-0.7,0.1-0.9,0.2c-0.1,0.1-0.3,0.2-0.4,0.4c-0.1,0.2-0.1,0.5-0.1,1l0,8.1h-0.3l-7.1-8.1v6.2c0,0.6,0.1,0.9,0.4,1.1
			c0.3,0.2,0.6,0.3,0.9,0.3h0.3v0.3l-3.7,0l0-0.3c0.6,0,1-0.1,1.2-0.3c0.2-0.2,0.3-0.6,0.3-1.1l0-6.8l-0.2-0.3
			c-0.2-0.3-0.4-0.4-0.6-0.5c-0.2-0.1-0.4-0.1-0.7-0.1v-0.3H129.1z M139.2,134.9h-2.5V132c1.1-0.1,2.1,0.6,2.5,1.6V134.9z
			 M136.7,131.3L136.7,131.3c0.3,0,0.6,0,0.9,0.1l0-1.8C137.1,130.1,136.8,130.7,136.7,131.3 M58.6,147.7l78.2,0
			c1.3,0,2.4-1.1,2.4-2.4l0-9.7l-82.9,0l0,9.7C56.2,146.6,57.3,147.7,58.6,147.7 M56.3,134.8h2.5l0-2.9c-1.1-0.1-2.1,0.6-2.5,1.6
			V134.8z M58.7,131.3L58.7,131.3c-0.3,0-0.6,0-0.9,0.1v-1.8C58.3,130,58.7,130.6,58.7,131.3"/>
	</g>
	<path class="st0" d="M337.1,154.6c-0.5,0-0.9-0.4-0.9-0.9V29.1c0-0.5,0.4-0.9,0.9-0.9c0.5,0,0.9,0.4,0.9,0.9v124.7
		C337.9,154.2,337.6,154.6,337.1,154.6z"/>
	<g>
		<g>
			<path class="st4" d="M172.2,67.6h8.8v11.3H178l-0.4-2.6c-1.1,1.3-2.7,3.2-6.5,3.2c-5.1,0-9.6-3.6-9.6-11
				c0-5.7,3.2-11.1,10.2-11.1h0.1c6.4,0,9,4.2,9.2,7.1h-4.4c0-0.8-1.5-3.4-4.6-3.4c-3.1,0-6,2.2-6,7.5c0,5.7,3.1,7.2,6.1,7.2
				c1,0,4.2-0.4,5.1-4.6h-4.9V67.6z"/>
			<path class="st4" d="M191.7,79.3c-4.2,0-7.9-2.6-7.9-8.2s3.8-8.2,7.9-8.2s7.9,2.6,7.9,8.2S195.9,79.3,191.7,79.3z M191.7,66.4
				c-3.2,0-3.7,2.7-3.7,4.7c0,2,0.6,4.7,3.7,4.7c3.2,0,3.7-2.7,3.7-4.7C195.5,69.2,194.9,66.4,191.7,66.4z"/>
			<path class="st4" d="M206.3,65.4L206.3,65.4c0.7-1,1.9-2.4,4.6-2.4c3.4,0,6.5,2.6,6.5,8c0,4.3-1.9,8.4-6.5,8.4
				c-1.7,0-3.5-0.6-4.5-2.4h-0.1v2h-4v-21h4.1V65.4z M209.7,66.5c-2.8,0-3.5,2.5-3.5,5c0,2.3,1,4.5,3.6,4.5c2.6,0,3.4-2.9,3.4-4.7
				C213.1,68.8,212.3,66.5,209.7,66.5z"/>
			<path class="st4" d="M224.2,61.5h-4.1v-3.8h4.1V61.5z M224.2,63.4v15.5h-4.1V63.4H224.2z"/>
			<path class="st4" d="M241.4,74.4c-1.1,3.7-4.2,5-6.8,5c-4.4,0-7.7-2.1-7.7-8.5c0-1.9,0.6-7.9,7.4-7.9c3.1,0,7.3,1.5,7.3,8.6v0.7
				h-10.7c0.1,1.2,0.3,3.8,3.7,3.8c1.1,0,2.3-0.6,2.6-1.7H241.4z M237.4,69.6c-0.2-2.5-1.8-3.3-3.2-3.3c-1.9,0-3,1.2-3.2,3.3H237.4z
				"/>
			<path class="st4" d="M244.2,63.4h3.9v2.7h0.1c0.8-1.6,1.8-3.1,4.3-3.1c0.3,0,0.5,0,0.8,0.1v4.1c-0.4-0.1-0.8-0.1-1.2-0.1
				c-3.2,0-3.8,2-3.8,3.7v8.1h-4.1V63.4z"/>
			<path class="st4" d="M269.2,78.9h-4.1v-9.4c0-1.1-0.1-3.1-2.7-3.1c-1.8,0-3.2,1.2-3.2,3.6v8.9h-4.1V63.4h3.9v2.3h0.1
				c0.6-0.9,1.7-2.7,4.7-2.7c3,0,5.4,1.8,5.4,5.2V78.9z"/>
			<path class="st4" d="M279.8,79.3c-4.2,0-7.9-2.6-7.9-8.2s3.8-8.2,7.9-8.2c4.2,0,7.9,2.6,7.9,8.2S284,79.3,279.8,79.3z
				 M279.8,66.4c-3.2,0-3.7,2.7-3.7,4.7c0,2,0.6,4.7,3.7,4.7c3.2,0,3.7-2.7,3.7-4.7C283.5,69.2,283,66.4,279.8,66.4z"/>
			<path class="st4" d="M176.2,112h-4v-2h-0.1c-1,1.8-2.8,2.4-4.5,2.4c-4.6,0-6.5-4.1-6.5-8.4c0-5.4,3-8,6.5-8
				c2.6,0,3.9,1.4,4.5,2.4h0.1V91h4.1V112z M168.7,109.1c2.6,0,3.6-2.2,3.6-4.5c0-2.5-0.7-5-3.5-5c-2.6,0-3.5,2.3-3.5,4.8
				C165.3,106.2,166,109.1,168.7,109.1z"/>
			<path class="st4" d="M193.3,107.5c-1.1,3.7-4.2,5-6.8,5c-4.4,0-7.7-2.1-7.7-8.5c0-1.9,0.6-7.9,7.4-7.9c3.1,0,7.3,1.5,7.3,8.6v0.7
				h-10.7c0.1,1.2,0.4,3.8,3.7,3.8c1.1,0,2.3-0.6,2.6-1.7H193.3z M189.2,102.7c-0.2-2.5-1.8-3.3-3.2-3.3c-1.9,0-2.9,1.2-3.2,3.3
				H189.2z"/>
			<path class="st4" d="M200.2,112h-4.1V91h4.1V112z"/>
			<path class="st4" d="M228,94.8h-11.1v4.4h10.2v3.7h-10.2v5.4h11.6v3.7h-15.9V91H228V94.8z"/>
			<path class="st4" d="M240.3,101.2c-0.2-1-0.5-2-2.7-2s-2.5,0.8-2.5,1.5c0,2.5,9.7,0.7,9.7,6.4c0,4.5-4.4,5.3-6.8,5.3
				c-3.5,0-7.4-1.2-7.5-5.4h4.2c0,1.3,0.8,2.3,3.4,2.3c2.1,0,2.6-1,2.6-1.6c0-2.6-9.6-0.6-9.6-6.5c0-2.3,1.4-5.2,6.3-5.2
				c3,0,6.7,0.8,7,5.1H240.3z"/>
			<path class="st4" d="M252.1,96.5h2.5v2.9h-2.5v8.4c0,0.9,0,1.3,1.7,1.3c0.3,0,0.6,0,0.8-0.1v3.1c-0.6,0-1.3,0.1-1.9,0.1h-0.5
				c-3.5,0-4.2-1.3-4.2-3.4v-9.4h-2.1v-2.9h2.1v-4.2h4.1V96.5z"/>
			<path class="st4" d="M269.9,109c0,1.8,0.4,2.2,0.9,2.4v0.6h-4.4c-0.2-0.7-0.3-1-0.4-1.8c-0.9,1-2.2,2.2-5,2.2
				c-2.3,0-4.7-1.3-4.7-4.5c0-3,1.9-4.6,4.5-5l3.7-0.6c0.6-0.1,1.4-0.4,1.4-1.2c0-1.7-1.6-1.8-2.7-1.8c-2,0-2.4,1.3-2.5,2.2h-3.9
				c0.5-4.8,3.8-5.4,7-5.4c2.2,0,6.2,0.7,6.2,4.5V109z M265.9,104.5c-0.4,0.3-1.1,0.6-2.8,0.8c-1.5,0.3-2.8,0.6-2.8,2.3
				c0,1.4,1.1,1.9,1.9,1.9c1.8,0,3.7-1.2,3.7-3.1V104.5z"/>
			<path class="st4" d="M287.5,112h-4v-2h-0.1c-1,1.8-2.8,2.4-4.5,2.4c-4.6,0-6.5-4.1-6.5-8.4c0-5.4,3-8,6.5-8
				c2.6,0,3.9,1.4,4.5,2.4h0.1V91h4.1V112z M279.9,109.1c2.6,0,3.6-2.2,3.6-4.5c0-2.5-0.7-5-3.5-5c-2.6,0-3.5,2.3-3.5,4.8
				C276.6,106.2,277.3,109.1,279.9,109.1z"/>
			<path class="st4" d="M298,112.4c-4.2,0-7.9-2.6-7.9-8.2s3.8-8.2,7.9-8.2c4.2,0,7.9,2.6,7.9,8.2S302.2,112.4,298,112.4z M298,99.5
				c-3.2,0-3.7,2.7-3.7,4.7s0.6,4.7,3.7,4.7s3.7-2.7,3.7-4.7S301.2,99.5,298,99.5z"/>
		</g>
	</g>
</g>
</svg>
