<svg width="328" height="312" viewBox="0 0 328 312" fill="none" xmlns="http://www.w3.org/2000/svg">
<g clip-path="url(#clip0)">
<path d="M177.293 175.632C177.374 175.225 177.456 174.818 177.537 174.492C178.027 172.618 178.435 170.745 178.924 168.871C179.087 168.382 179.168 168.301 179.739 168.382C180.229 168.464 180.8 168.545 181.289 168.708C181.86 168.871 181.941 168.952 181.778 169.523C181.533 170.582 181.207 171.559 180.963 172.618C180.718 173.759 180.473 174.899 180.229 176.121C179.984 177.343 179.739 178.484 179.495 179.705C179.087 181.416 178.598 183.045 178.108 184.756C178.027 184.919 178.027 185.082 178.027 185.326C177.864 186.059 177.619 186.793 177.456 187.444C177.456 187.526 177.374 187.689 177.374 187.77C177.293 188.34 177.048 188.503 176.477 188.422C176.233 188.34 176.07 188.34 175.825 188.259C175.009 188.096 174.52 187.607 174.194 186.793C173.786 185.815 173.378 184.756 172.889 183.779C172.237 182.394 171.503 181.009 170.769 179.624C170.606 179.298 170.442 178.891 170.279 178.565C170.198 178.484 170.035 178.321 170.035 178.402C169.953 178.402 169.79 178.565 169.79 178.646C169.382 180.439 168.975 182.312 168.567 184.104C168.485 184.593 168.404 185.163 168.241 185.652C168.159 185.978 167.996 186.059 167.67 185.978C167.18 185.897 166.691 185.897 166.283 185.815C166.202 185.815 166.039 185.815 165.957 185.734C165.386 185.408 164.734 185.326 164.163 185.245C163.755 185.163 163.592 184.919 163.674 184.512C163.918 183.453 164.163 182.312 164.408 181.253C164.652 180.194 164.897 179.054 165.142 177.995C165.386 176.691 165.631 175.306 165.957 174.003C166.202 172.7 166.528 171.396 166.854 170.093C167.017 169.197 167.262 168.301 167.425 167.486C167.507 166.997 167.67 166.509 167.751 166.02C167.914 165.531 168.322 165.287 168.975 165.45C170.035 165.694 171.095 165.938 172.074 166.183C172.237 166.264 172.481 166.264 172.644 166.346C173.215 166.509 173.378 166.997 173.623 167.405C173.868 168.056 174.112 168.79 174.439 169.441C174.928 170.582 175.499 171.722 175.988 172.781C176.396 173.596 176.722 174.41 177.13 175.225C177.211 175.388 177.293 175.551 177.374 175.714C177.211 175.632 177.293 175.632 177.293 175.632Z" fill="#3B55A2"/>
<path d="M185.774 135.879C185.693 136.205 185.693 136.612 185.611 136.938C185.285 137.997 184.959 138.974 184.551 140.033C184.306 140.685 183.98 141.337 183.736 141.907C183.654 142.151 183.491 142.233 183.246 142.151C182.431 141.907 181.697 141.663 180.881 141.418C180.392 141.255 179.984 141.092 179.576 140.848C179.169 140.604 179.006 140.441 179.169 140.033C179.495 138.974 179.903 137.915 180.229 136.856C180.31 136.612 180.555 135.879 180.555 135.634C180.637 135.472 180.147 135.39 179.739 135.227C179.332 135.146 179.087 134.983 178.924 135.309C178.598 136.123 178.19 137.427 177.864 138.241C177.619 138.893 177.293 139.626 177.048 140.278C176.804 140.93 176.559 141.581 176.314 142.233C176.07 142.966 175.743 143.699 175.417 144.514C175.254 145.003 175.091 145.41 174.928 145.899C174.602 146.713 174.276 147.609 174.031 148.424C173.868 148.913 173.786 149.402 173.623 149.809C173.542 150.216 173.705 150.542 174.194 150.705C174.52 150.868 174.846 150.705 175.009 150.298C175.499 149.32 175.907 148.424 176.314 147.446C176.396 147.284 176.885 145.98 177.619 146.062C178.679 146.225 179.739 146.713 180.718 147.202C180.881 147.284 181.207 147.365 181.289 147.528C181.371 147.691 181.207 147.935 181.207 148.18C181.126 149.239 180.555 150.135 180.229 151.031C179.903 151.927 179.495 152.742 179.006 153.475C178.353 154.371 177.456 154.778 176.477 155.022C175.417 155.185 174.357 155.267 173.378 155.022C172.155 154.778 171.177 154.289 170.443 153.312C170.116 152.904 169.709 152.579 169.464 152.171C169.138 151.764 168.893 151.275 168.73 150.786C168.567 150.216 168.485 149.646 168.648 149.076C168.893 148.18 169.219 147.202 169.546 146.306C169.953 145.084 170.443 143.862 170.932 142.64C171.258 141.826 171.503 141.011 171.829 140.278C172.155 139.382 172.481 138.486 172.808 137.59C173.297 136.205 173.786 134.82 174.357 133.435C174.683 132.539 175.417 131.969 176.233 131.48C176.885 131.073 177.456 130.665 178.19 130.665C178.924 130.665 179.658 130.665 180.31 130.665C181.289 130.747 182.186 130.991 183.002 131.48C183.899 132.05 184.551 132.865 185.203 133.761C185.53 134.413 185.774 135.146 185.774 135.879Z" fill="#3B55A2"/>
<path d="M169.79 128.221C169.709 129.036 169.709 129.769 169.627 130.584C169.627 131.154 169.546 131.643 169.546 132.213C169.464 132.946 169.464 133.679 169.383 134.413C169.301 135.553 169.138 136.775 169.056 137.915C168.975 138.323 169.056 138.73 168.975 139.137C168.893 140.033 168.812 141.011 168.649 141.907C168.567 142.722 168.486 143.618 168.241 144.351C167.833 145.654 167.018 146.632 165.631 147.039C164.245 147.446 163.022 147.284 161.717 146.713C160.901 146.387 160.249 145.736 159.923 144.921C159.596 144.107 159.433 143.129 159.515 142.233C159.596 141.663 159.596 141.011 159.596 140.441C159.76 139.056 159.923 137.752 160.086 136.368C160.249 134.82 160.494 133.272 160.657 131.724C160.738 130.991 160.738 130.258 160.82 129.525C160.901 128.547 161.064 127.57 161.146 126.592C161.228 126.103 161.227 125.615 161.227 125.126C161.227 124.719 161.227 124.393 161.391 124.067C161.472 123.904 161.961 123.904 162.125 123.904C162.94 123.904 163.756 123.904 164.653 123.904C165.06 123.904 165.224 124.148 165.142 124.556C165.06 125.615 164.979 126.755 164.897 127.814C164.816 129.28 164.653 130.747 164.571 132.295C164.49 133.191 164.408 134.005 164.326 134.901C164.245 136.286 164.082 137.59 164 138.974C163.919 139.708 163.837 140.441 163.756 141.174C163.674 141.744 163.674 142.396 163.674 142.966C163.674 143.048 163.837 143.21 163.919 143.21C164.326 143.292 164.897 143.373 165.06 142.966C165.224 142.64 165.305 142.151 165.305 141.826C165.305 141.174 165.468 140.522 165.468 139.871C165.55 138.974 165.631 138.078 165.631 137.182C165.713 135.472 166.284 130.502 166.365 128.792C166.447 127.896 166.61 125.37 166.61 124.963C166.61 124.393 166.61 124.23 167.018 124.23C167.344 124.23 167.67 124.23 167.915 124.23C168.241 124.23 168.486 124.23 168.812 124.311C168.975 124.311 169.138 124.393 169.22 124.393C169.627 124.393 169.79 124.556 169.79 124.881C169.79 125.37 169.79 125.859 169.79 126.266C169.872 126.674 169.872 127.57 169.79 128.221Z" fill="#3B55A2"/>
<path d="M149.158 157.385C147.853 157.955 141.737 161.295 140.432 161.865C138.882 162.517 138.801 162.598 137.659 163.006C137.088 163.25 136.273 163.576 135.865 163.576C135.702 163.576 135.457 163.087 135.376 162.924C134.886 161.865 134.397 160.806 134.234 159.666C134.152 159.177 134.152 159.177 134.642 158.933C135.294 158.607 136.68 158.037 137.414 157.792C138.311 157.385 145.814 155.022 146.303 154.778C146.63 154.615 147.282 154.371 147.608 154.208C147.853 154.126 147.69 153.882 147.608 153.638C147.445 153.23 147.119 152.334 146.956 151.927C146.793 151.52 146.548 151.194 146.467 150.786C146.14 149.972 146.303 149.646 147.037 149.239C147.69 148.913 148.342 148.505 149.076 148.261C149.484 148.098 149.892 148.18 150.055 148.668C150.626 149.89 151.196 151.194 151.849 152.416C152.257 153.312 152.746 154.208 153.154 155.104C153.643 156.163 154.051 157.222 154.54 158.281C154.866 159.096 154.785 159.34 154.051 159.747C153.398 160.073 152.746 160.399 152.094 160.643C151.686 160.806 151.36 160.725 151.033 160.399C150.626 159.829 150.299 159.258 149.973 158.77C149.729 158.525 149.321 157.711 149.158 157.385Z" fill="#3B55A2"/>
<path d="M156.416 128.955C156.253 128.629 155.845 128.873 155.6 128.955C154.866 129.28 154.214 129.606 153.48 129.932C152.909 130.177 152.256 130.502 151.686 130.828C151.359 130.991 151.196 130.991 151.196 131.317C151.115 131.806 150.952 135.146 151.115 135.716C151.196 135.879 151.849 137.834 152.012 138.404C152.012 138.486 151.441 138.73 151.359 138.73C151.359 138.73 150.299 136.612 150.055 136.286C149.81 135.96 147.771 134.168 147.2 133.598C147.037 133.435 146.874 133.354 146.629 133.435C146.14 133.679 145.977 133.679 145.488 133.924C144.672 134.331 143.857 134.738 143.041 135.146C142.797 135.227 142.633 135.309 142.389 135.472C142.063 135.716 142.063 135.96 142.307 136.205C142.389 136.368 142.47 136.531 142.633 136.612C142.797 136.856 142.96 137.101 143.204 137.345C143.612 137.753 144.101 138.16 144.509 138.567C145.406 139.382 146.222 140.278 147.037 141.174C147.771 141.907 148.424 142.722 149.076 143.455C149.81 144.269 150.462 145.003 151.196 145.817C151.523 146.225 151.849 146.55 152.012 147.039C152.42 148.261 152.909 149.402 153.317 150.624C153.643 151.438 153.969 152.253 154.295 152.986C154.54 153.638 154.785 154.289 155.029 154.941C155.274 155.511 155.274 155.919 155.845 156C155.926 156 156.497 155.837 156.579 155.756C157.068 155.511 157.476 155.267 157.965 155.104C158.373 154.86 158.862 154.697 159.27 154.452C159.596 154.289 159.922 154.126 160.33 153.963C160.738 153.801 160.901 153.638 160.819 153.149C160.819 152.986 160.738 152.823 160.656 152.742C160.33 152.008 160.004 151.357 159.759 150.624C159.433 149.972 159.188 149.239 158.944 148.505C158.699 147.854 158.373 147.202 158.128 146.55C157.884 145.98 157.639 145.328 157.394 144.758C157.15 144.188 156.823 143.699 156.823 142.966C156.905 141.011 156.823 139.056 156.823 137.101C156.823 136.042 156.742 134.901 156.742 133.842C156.579 132.539 156.497 129.362 156.416 128.955Z" fill="#3B55A2"/>
<path d="M186.345 174.085H186.998C187.161 174.085 187.324 174.166 187.487 174.248C187.568 174.329 187.65 174.492 187.65 174.655C187.65 174.899 187.487 175.062 187.324 175.144L187.732 175.795H187.324L186.998 175.225H186.753V175.795H186.427V174.085H186.345ZM186.998 174.899C187.161 174.899 187.242 174.818 187.242 174.655C187.242 174.492 187.161 174.41 186.916 174.41H186.753V174.899H186.998Z" fill="#B98F44"/>
<path d="M186.916 176.691C185.938 176.691 185.122 175.877 185.122 174.899C185.122 173.922 185.938 173.107 186.916 173.107C187.895 173.107 188.71 173.922 188.71 174.899C188.71 175.877 187.895 176.691 186.916 176.691ZM186.916 173.514C186.101 173.514 185.448 174.166 185.448 174.981C185.448 175.795 186.101 176.447 186.916 176.447C187.732 176.447 188.384 175.795 188.384 174.981C188.384 174.166 187.732 173.514 186.916 173.514Z" fill="#B98F44"/>
<path d="M163.348 154.452C163.511 154.289 163.755 154.289 163.918 154.208C163.918 154.208 163.918 154.208 164 154.208C164 154.208 164.163 154.208 164.245 154.126C164.326 154.126 164.408 154.045 164.489 154.045C164.815 154.045 165.06 153.964 165.386 153.964C165.631 153.964 165.957 153.964 166.202 154.045C166.365 154.045 166.446 154.045 166.61 154.126C166.854 154.208 167.099 154.289 167.344 154.371C167.507 154.452 167.67 154.534 167.751 154.534C167.833 154.534 167.833 154.615 167.914 154.615C168.159 154.778 168.404 154.86 168.567 155.023C168.811 155.267 169.138 155.511 169.382 155.756C169.545 155.919 169.709 156.163 169.872 156.407C170.035 156.652 170.198 156.896 170.361 157.141C170.524 157.466 170.769 157.792 170.85 158.2C170.932 158.525 171.013 158.77 171.095 159.096C171.176 159.421 171.258 159.747 171.176 160.073C171.176 160.155 171.176 160.318 171.176 160.399C171.176 160.562 171.095 160.643 171.013 160.725C170.769 160.806 170.442 160.806 170.198 160.888C169.872 160.969 169.545 160.969 169.219 160.969C169.056 160.969 168.893 160.969 168.811 160.969C168.485 160.969 168.241 160.888 167.914 160.806C167.588 160.725 167.262 160.562 167.017 160.48C166.854 160.48 166.773 160.399 166.61 160.318C166.283 160.155 166.039 159.992 165.794 159.747C165.713 159.666 165.713 159.666 165.631 159.584C165.549 159.421 165.386 159.34 165.223 159.259C165.142 159.177 164.979 159.014 164.897 158.851C164.815 158.77 164.734 158.607 164.652 158.525C164.652 158.525 164.652 158.525 164.652 158.444C164.571 158.2 164.326 158.037 164.245 157.792C164.081 157.548 164 157.303 163.837 157.059C163.674 156.815 163.592 156.57 163.511 156.326C163.348 156 163.348 155.674 163.266 155.348C163.184 155.104 163.184 154.778 163.348 154.452ZM164.163 155.185C164.245 155.43 164.326 155.674 164.408 155.837C164.571 156.163 164.652 156.407 164.815 156.733C164.979 157.059 165.223 157.385 165.468 157.711C165.549 157.792 165.549 157.874 165.631 157.955C165.794 158.118 165.876 158.281 166.039 158.362C166.446 158.77 166.936 159.096 167.425 159.421C167.507 159.421 167.588 159.421 167.588 159.503C167.67 159.584 167.833 159.666 167.996 159.666C168.241 159.829 168.567 159.829 168.811 159.91C168.975 159.91 169.138 159.992 169.219 159.992C169.545 160.073 169.872 159.992 170.198 159.992C170.198 159.992 170.198 159.992 170.279 159.992C170.279 159.829 170.279 159.666 170.198 159.503C170.198 159.503 170.198 159.503 170.116 159.503C169.464 159.421 168.893 159.34 168.322 159.177C167.914 159.014 167.425 158.933 167.099 158.688C166.773 158.525 166.528 158.281 166.283 158.037C166.12 157.874 165.957 157.629 165.794 157.466C165.631 157.222 165.468 157.059 165.386 156.815C165.305 156.652 165.223 156.489 165.142 156.326C165.06 156.244 165.06 156.163 164.979 156.082C164.897 155.756 164.734 155.511 164.734 155.185C164.571 155.104 164.326 155.104 164.163 155.185ZM165.631 155.104C165.631 155.185 165.631 155.185 165.631 155.185V155.267C165.631 155.674 165.794 156 165.957 156.326C166.202 156.815 166.528 157.222 166.854 157.548C167.017 157.711 167.099 157.792 167.262 157.955C167.67 158.2 168.078 158.362 168.485 158.444C168.73 158.444 168.893 158.525 169.138 158.525C169.382 158.525 169.627 158.525 169.79 158.607C169.872 158.607 169.872 158.607 169.953 158.607C169.953 158.444 169.545 157.711 169.382 157.548C169.301 157.548 169.301 157.629 169.219 157.629C168.975 157.792 168.73 157.874 168.485 157.792C168.322 157.792 168.241 157.792 168.078 157.792H167.996C167.833 157.711 167.67 157.629 167.507 157.548L167.425 157.466C167.262 157.385 167.18 157.222 167.017 157.141L166.936 157.059C166.854 156.815 166.773 156.57 166.691 156.326C166.691 156.082 166.61 155.837 166.691 155.593C166.691 155.511 166.691 155.43 166.691 155.348C166.528 155.267 166.12 155.185 165.631 155.104ZM167.751 155.837C167.588 156.244 167.588 156.57 167.914 156.815C168.241 157.059 168.567 157.059 168.975 156.815C168.648 156.489 168.159 156.163 167.751 155.837Z" fill="#B98F44"/>
<path d="M187.65 167.323C187.895 166.916 188.139 166.509 188.303 166.101C188.71 165.287 189.118 164.391 189.444 163.576C189.852 162.761 190.178 161.865 190.586 161.051C190.994 160.155 191.401 159.34 191.809 158.525C192.135 157.711 192.543 156.896 192.951 156.081C193.114 155.756 193.44 154.941 193.522 154.778C193.522 154.697 193.603 154.615 193.685 154.452L193.848 154.126C194.011 154.289 194.99 154.86 195.316 155.104C195.642 155.348 195.805 155.104 195.968 154.778C196.131 154.371 196.621 152.741 196.702 152.416C196.784 152.253 196.947 151.52 197.029 151.357C197.11 151.194 197.192 151.031 197.192 150.949C197.192 150.786 196.947 150.705 196.784 150.542C196.621 150.379 196.458 150.298 196.295 150.135C195.642 149.564 194.908 148.994 194.256 148.424C193.603 147.854 192.951 147.365 192.217 146.795C191.809 146.55 191.483 146.225 191.075 145.98C190.912 145.899 190.749 145.736 190.586 145.654C190.423 145.573 190.26 145.736 190.097 145.817C189.363 146.306 188.547 146.713 187.895 147.202C187.487 147.446 187.161 147.772 186.835 148.017C186.508 148.343 186.345 148.343 186.427 148.505C186.59 148.75 186.998 148.994 187.161 149.157C187.161 149.157 187.569 149.564 187.65 149.564L187.079 149.972C186.753 150.216 186.59 150.379 186.264 150.623C186.101 150.705 184.714 151.845 184.551 152.008C183.899 152.66 183.491 152.741 182.839 153.23C182.512 153.475 181.044 154.615 180.718 154.86C179.984 155.43 179.658 155.511 178.924 156.081C178.272 156.652 177.619 157.222 176.885 157.792C176.722 157.955 176.559 158.118 176.396 158.281C176.314 158.362 176.233 158.444 176.233 158.525C176.233 158.607 176.314 158.688 176.396 158.688C176.641 158.851 176.804 159.014 176.967 159.177C177.293 159.421 177.538 159.747 177.864 159.992C178.435 160.48 179.006 160.969 179.577 161.458C179.821 161.702 180.229 162.11 180.637 162.028C180.8 161.947 181.044 161.865 181.208 161.702C181.371 161.621 181.615 161.458 181.778 161.376C181.941 161.295 182.186 161.132 182.349 161.051C182.431 160.969 182.675 160.806 182.839 160.888C183.165 161.132 183.491 161.458 183.817 161.702C183.98 161.865 184.225 161.947 184.143 162.191C184.062 162.517 183.98 162.843 183.817 163.087C183.654 163.495 183.491 163.82 183.328 164.146C183.165 164.391 183.328 164.554 183.491 164.716C183.817 164.961 184.143 165.287 184.47 165.531C185.204 166.02 185.938 166.509 186.671 166.997C186.753 167.079 186.916 167.242 187.079 167.242C187.487 167.568 187.569 167.405 187.65 167.323ZM186.835 159.34C186.508 159.014 186.101 158.77 185.774 158.444C185.611 158.281 185.367 158.118 185.204 157.955C185.122 157.874 184.796 157.711 184.796 157.629C184.877 157.466 185.04 157.303 185.122 157.14C185.285 156.978 186.019 156.163 186.264 155.919C186.427 155.756 186.427 155.756 186.671 155.756C186.998 155.756 187.487 155.674 187.813 155.756C188.058 155.837 188.139 156 188.139 156.244C188.139 156.407 188.221 156.896 188.221 156.978C188.221 157.14 188.058 157.303 187.976 157.466C187.65 158.118 187.242 158.77 186.835 159.421C186.916 159.34 186.916 159.421 186.835 159.34Z" fill="#3B55A2"/>
<path d="M156.824 184.349C157.394 183.534 157.884 182.638 158.373 181.824C158.455 181.661 158.455 181.498 158.373 181.335C157.965 180.765 157.965 180.765 158.373 180.113C158.862 179.298 159.352 178.484 159.841 177.669C160.086 177.343 160.004 177.099 159.759 176.773C159.678 176.691 159.678 176.691 159.678 176.61C159.678 176.529 159.596 176.447 159.678 176.366C159.841 175.958 160.086 175.551 160.33 175.225C160.738 174.573 161.064 174.003 161.472 173.433C161.717 173.107 161.798 172.863 161.553 172.7C161.227 172.455 161.227 172.374 161.472 171.967C161.961 171.233 162.369 170.5 162.858 169.767C162.94 169.604 163.103 169.36 162.858 169.197C162.695 169.034 162.532 168.953 162.451 168.708C162.94 167.894 163.592 166.916 164.082 166.101C164.245 165.775 163.837 165.531 163.674 165.287C163.592 165.205 163.674 165.042 163.674 165.042C163.837 164.798 164.082 164.635 164.245 164.391C164.408 164.228 165.386 163.087 165.223 163.006C164.979 162.761 164.816 162.598 164.571 162.354C164.245 162.028 164.082 161.784 163.674 161.458C163.348 161.132 163.103 160.806 162.777 160.48C162.532 160.236 162.451 160.155 162.206 159.91C162.043 159.747 161.961 159.829 161.717 159.992C161.472 160.236 161.635 159.992 161.39 160.236C161.309 160.318 160.983 160.643 160.82 160.725C160.493 161.051 160.167 161.295 159.841 161.621C159.759 161.539 159.27 161.051 159.188 160.969C159.107 160.888 158.944 160.969 158.862 161.051C158.455 161.295 157.965 161.702 157.639 162.028C157.476 162.11 157.394 162.273 157.231 162.354C156.987 162.598 156.824 162.68 156.579 162.517C156.416 162.354 156.253 162.191 156.008 162.028C155.845 161.947 155.682 161.784 155.519 161.865C155.274 161.947 154.948 162.191 154.703 162.436C154.051 162.924 153.398 163.413 152.746 163.902C152.501 163.576 152.094 163.169 151.849 163.413C151.523 163.576 150.626 164.146 150.462 164.309C149.973 164.635 149.484 165.042 148.913 165.368C148.831 165.45 148.75 165.45 148.668 165.45C148.424 165.287 148.261 165.042 148.016 164.961C147.771 164.798 147.527 164.716 147.282 164.961C146.793 165.287 146.14 165.694 145.651 166.101C145.488 166.183 144.754 166.672 144.428 166.916C144.265 166.753 144.101 166.59 143.938 166.346C143.612 166.02 143.449 166.101 143.123 166.264C142.797 166.427 142.715 166.509 142.389 166.753C141.655 167.242 141.084 167.568 140.35 168.056C140.432 168.219 143.286 171.071 143.694 171.559C144.428 172.292 145.08 173.026 145.814 173.84C146.059 174.085 146.303 174.166 146.548 173.922C146.956 173.596 147.119 173.596 147.527 173.27C147.853 173.026 147.771 173.107 148.179 172.863C148.342 172.781 152.257 176.773 152.175 176.936C151.686 177.669 151.604 177.832 151.115 178.565C151.033 178.647 150.87 178.891 150.952 178.972C151.36 179.38 151.849 179.868 152.257 180.276C152.827 180.765 153.235 181.335 153.806 181.742C154.132 182.068 154.459 182.394 154.785 182.72C155.356 183.371 156.008 183.942 156.579 184.593C156.579 184.593 156.66 184.512 156.824 184.349ZM155.682 170.908C155.111 170.419 154.459 169.767 153.888 169.197C153.725 168.953 154.051 168.627 154.295 168.464C155.192 167.731 156.171 166.997 156.905 166.427C156.987 166.427 156.987 166.346 157.068 166.427C157.639 166.997 158.128 167.486 158.618 167.894C158.618 167.894 158.618 167.975 158.618 168.056C158.047 168.708 157.394 169.604 156.66 170.5C156.253 171.071 156.008 171.233 155.682 170.908Z" fill="#3B55A2"/>
<path d="M123.469 155.593C121.757 155.511 120.86 154.208 120.941 152.579C121.023 151.764 121.267 151.112 121.675 150.705L122.817 151.52C122.572 151.845 122.409 152.171 122.328 152.579C122.246 153.312 122.654 154.045 123.551 154.045C124.366 154.126 124.937 153.475 124.937 152.742C124.937 152.334 124.856 151.927 124.611 151.601L125.834 150.949C126.16 151.438 126.324 152.09 126.242 152.904C126.242 154.534 125.182 155.674 123.469 155.593Z" fill="#3B55A2"/>
<path d="M126.242 145.41L127.465 145.654L126.731 148.994L121.675 147.854L122.409 144.677L123.633 144.921L123.225 146.795L123.796 146.958L124.122 145.328L125.345 145.573L125.019 147.202L125.753 147.365L126.242 145.41Z" fill="#3B55A2"/>
<path d="M129.096 141.011L126.813 141.5L128.607 142.233L128.118 143.536L123.306 141.663L124.122 139.626C124.611 138.323 125.59 138.078 126.405 138.404C127.058 138.648 127.465 139.219 127.465 140.033L129.749 139.382L129.096 141.011ZM125.019 140.767L126.079 141.174L126.324 140.604C126.487 140.196 126.405 139.87 126.079 139.789C125.753 139.626 125.508 139.789 125.345 140.196L125.019 140.767Z" fill="#3B55A2"/>
<path d="M129.096 132.702L128.444 133.842L131.787 135.797L131.053 137.019L127.71 135.064L127.057 136.205L125.916 135.553L127.954 132.132L129.096 132.702Z" fill="#3B55A2"/>
<path d="M134.56 131.806L133.745 132.946L129.667 129.851L130.483 128.71L134.56 131.806Z" fill="#3B55A2"/>
<path d="M134.234 126.185L134.805 126.755L135.947 125.533L136.844 126.429L135.702 127.651L137.007 128.955L136.028 129.932L132.277 126.348L134.723 123.822L135.62 124.718L134.234 126.185Z" fill="#3B55A2"/>
<path d="M141.166 125.126L140.106 126.022L136.844 122.03L137.904 121.134L141.166 125.126Z" fill="#3B55A2"/>
<path d="M141.574 121.623C140.677 120.157 141.247 118.69 142.552 117.876C143.286 117.468 143.939 117.305 144.509 117.387V118.772C144.102 118.772 143.694 118.772 143.368 119.016C142.715 119.423 142.389 120.157 142.878 120.89C143.286 121.623 144.102 121.623 144.754 121.297C145.162 121.053 145.325 120.727 145.488 120.401L146.711 121.053C146.467 121.542 146.059 122.112 145.407 122.519C144.02 123.252 142.471 123.089 141.574 121.623Z" fill="#3B55A2"/>
<path d="M151.36 118.283L149.729 118.935L149.81 119.912L148.342 120.482L148.261 114.943L149.647 114.373L153.398 118.446L151.931 119.016L151.36 118.283ZM150.626 117.387L149.566 116.084L149.647 117.794L150.626 117.387Z" fill="#3B55A2"/>
<path d="M159.189 114.536C159.515 116.084 158.7 117.305 156.987 117.631L155.275 117.957L154.214 112.906L155.927 112.581C157.639 112.255 158.863 112.988 159.189 114.536ZM155.845 113.884L156.416 116.491L156.742 116.409C157.558 116.246 157.966 115.676 157.803 114.862C157.639 113.965 156.987 113.64 156.253 113.803L155.845 113.884Z" fill="#3B55A2"/>
<path d="M166.936 114.047C167.018 115.676 165.794 116.735 164.245 116.817C162.695 116.898 161.472 115.839 161.391 114.21C161.309 112.581 162.532 111.522 164.082 111.44C165.631 111.44 166.936 112.418 166.936 114.047ZM162.94 114.21C162.94 115.025 163.511 115.513 164.245 115.432C164.979 115.432 165.468 114.943 165.468 114.128C165.468 113.314 164.897 112.825 164.163 112.907C163.429 112.907 162.94 113.395 162.94 114.21Z" fill="#3B55A2"/>
<path d="M177.62 115.758C177.212 117.305 175.989 118.039 174.276 117.631L172.563 117.224L173.705 112.173L175.418 112.581C177.212 113.069 178.027 114.21 177.62 115.758ZM174.847 113.803L174.276 116.409L174.602 116.491C175.418 116.654 175.989 116.328 176.233 115.513C176.396 114.617 175.989 114.128 175.255 113.884L174.847 113.803Z" fill="#3B55A2"/>
<path d="M182.676 119.098L182.186 120.32L179.006 119.016L180.963 114.21L183.98 115.432L183.491 116.654L181.779 115.921L181.534 116.491L183.083 117.143L182.594 118.283L181.045 117.631L180.718 118.365L182.676 119.098Z" fill="#3B55A2"/>
<path d="M191.483 124.311C190.831 125.207 189.934 125.044 189.118 124.393L187.243 123.089L190.26 118.935L192.054 120.238C192.87 120.808 193.196 121.46 192.625 122.275C192.299 122.763 191.81 122.845 191.239 122.682C191.728 123.089 191.973 123.659 191.483 124.311ZM190.423 123.334C190.668 123.008 190.505 122.763 190.179 122.519L189.689 122.112L189.118 122.926L189.608 123.334C189.934 123.578 190.26 123.659 190.423 123.334ZM190.749 120.645L190.26 121.379L190.749 121.786C190.994 121.949 191.239 122.03 191.483 121.704C191.646 121.46 191.565 121.216 191.32 121.053L190.749 120.645Z" fill="#3B55A2"/>
<path d="M193.767 128.629C192.625 127.488 192.788 126.429 193.767 125.452L195.887 123.334L196.947 124.393L194.827 126.511C194.5 126.837 194.337 127.244 194.745 127.651C195.153 128.058 195.561 127.896 195.887 127.57L198.007 125.452L199.067 126.511L196.947 128.629C195.968 129.606 194.908 129.769 193.767 128.629Z" fill="#3B55A2"/>
<path d="M199.965 134.087L198.904 134.82L196.947 132.05L201.188 129.036L203.064 131.724L202.003 132.457L200.943 130.91L200.454 131.235L201.433 132.62L200.454 133.354L199.475 131.969L198.823 132.376L199.965 134.087Z" fill="#3B55A2"/>
<path d="M202.248 141.092L201.758 140.115L203.145 136.693L200.617 137.915L199.964 136.693L204.613 134.412L205.102 135.39L203.716 138.811L206.244 137.589L206.896 138.811L202.248 141.092Z" fill="#3B55A2"/>
<path d="M204.858 146.062L204.368 144.351L203.39 144.269L202.982 142.803L208.446 143.373L208.854 144.84L204.45 148.18L204.042 146.713L204.858 146.062ZM205.836 145.41L207.223 144.432L205.51 144.351L205.836 145.41Z" fill="#3B55A2"/>
<path d="M209.914 153.312L208.609 152.823C208.854 152.334 208.935 151.845 208.854 151.52C208.854 151.275 208.772 151.194 208.609 151.194C208.527 151.194 208.446 151.275 208.364 151.52L207.957 152.66C207.712 153.23 207.386 153.719 206.57 153.801C205.51 153.882 204.858 153.312 204.694 151.927C204.613 151.194 204.694 150.461 205.021 149.727L206.407 150.216C205.999 150.868 205.918 151.357 205.918 151.927C205.918 152.171 205.999 152.334 206.162 152.334C206.325 152.334 206.325 152.253 206.407 152.09L206.815 150.949C207.059 150.298 207.549 149.972 208.201 149.89C209.098 149.809 209.832 150.379 209.995 151.683C210.24 152.008 210.158 152.579 209.914 153.312Z" fill="#3B55A2"/>
<path d="M207.793 164.146C206.733 163.983 206.081 163.25 206.244 161.865L206.325 161.295L204.857 161.051L205.021 159.666L210.158 160.317L209.914 162.273C209.669 163.82 208.772 164.309 207.793 164.146ZM207.956 162.761C208.364 162.843 208.609 162.598 208.609 162.191L208.69 161.621L207.549 161.458L207.467 162.028C207.467 162.354 207.549 162.68 207.956 162.761Z" fill="#3B55A2"/>
<path d="M203.227 168.301L205.429 167.568L203.634 166.997L204.042 165.694L208.935 167.16L208.283 169.278C207.875 170.582 206.978 170.908 206.081 170.663C205.429 170.5 204.939 169.93 204.939 169.197L202.656 170.011L203.227 168.301ZM207.386 168.219L206.326 167.893L206.162 168.464C205.999 168.871 206.162 169.197 206.489 169.278C206.815 169.36 207.06 169.197 207.223 168.79L207.386 168.219Z" fill="#3B55A2"/>
<path d="M201.351 175.144L202.166 173.596L201.432 172.863L202.166 171.478L205.836 175.551L205.184 176.854L199.72 176.284L200.454 174.899L201.351 175.144ZM202.492 175.388L204.205 175.632L202.982 174.41L202.492 175.388ZM205.591 176.854L205.999 175.958L206.325 177.18L205.673 178.402L205.591 176.854Z" fill="#3B55A2"/>
<path d="M200.943 179.135C202.329 180.113 202.411 181.742 201.432 183.045C200.943 183.697 200.372 184.104 199.883 184.267L199.312 182.964C199.72 182.801 200.046 182.638 200.29 182.312C200.78 181.661 200.78 180.927 200.046 180.439C199.393 179.95 198.578 180.194 198.17 180.764C197.925 181.09 197.844 181.498 197.844 181.905L196.458 181.824C196.458 181.253 196.621 180.602 197.11 179.95C198.007 178.565 199.556 178.158 200.943 179.135Z" fill="#3B55A2"/>
<path d="M194.827 188.259L195.724 187.363L192.951 184.593L193.93 183.616L196.703 186.385L197.6 185.489L198.497 186.385L195.642 189.155L194.827 188.259Z" fill="#3B55A2"/>
<path d="M189.363 187.689L190.505 186.793L193.685 190.866L192.543 191.762L189.363 187.689Z" fill="#3B55A2"/>
<path d="M188.955 191.192C189.852 192.658 189.281 194.124 187.895 194.939C187.161 195.346 186.509 195.428 185.938 195.428V194.043C186.345 194.043 186.753 194.043 187.079 193.798C187.732 193.391 188.058 192.658 187.65 191.925C187.243 191.192 186.427 191.11 185.775 191.517C185.367 191.762 185.204 192.006 185.041 192.414L183.817 191.762C184.062 191.273 184.47 190.703 185.204 190.296C186.509 189.562 188.058 189.725 188.955 191.192Z" fill="#3B55A2"/>
<path d="M179.006 194.287L180.637 193.636L180.555 192.658L182.023 192.088L181.941 197.627L180.555 198.116L176.885 193.961L178.353 193.391L179.006 194.287ZM179.74 195.183L180.8 196.487L180.718 194.776L179.74 195.183Z" fill="#3B55A2"/>
<path d="M172.237 199.99L172.563 198.686C173.052 198.849 173.542 198.931 173.868 198.849C174.112 198.768 174.194 198.768 174.112 198.605C174.112 198.523 174.031 198.442 173.786 198.36L172.644 198.034C172.074 197.872 171.584 197.546 171.421 196.813C171.258 195.754 171.829 195.102 173.134 194.857C173.868 194.695 174.602 194.776 175.417 195.02L175.009 196.487C174.357 196.161 173.786 196.079 173.297 196.161C173.052 196.242 172.889 196.324 172.889 196.487C172.889 196.65 173.052 196.65 173.215 196.731L174.439 197.057C175.091 197.22 175.499 197.709 175.58 198.279C175.743 199.175 175.254 199.908 173.949 200.152C173.542 200.152 172.971 200.152 172.237 199.99Z" fill="#3B55A2"/>
<path d="M161.554 200.315L162.206 199.093C162.614 199.419 163.103 199.582 163.429 199.582C163.674 199.582 163.756 199.501 163.756 199.419C163.756 199.338 163.674 199.256 163.511 199.093L162.451 198.523C161.88 198.197 161.554 197.872 161.554 197.057C161.635 195.998 162.369 195.428 163.674 195.509C164.408 195.509 165.142 195.754 165.794 196.161L165.06 197.464C164.49 196.975 164 196.813 163.511 196.731C163.266 196.731 163.103 196.731 163.103 196.975C163.103 197.138 163.185 197.138 163.348 197.22L164.408 197.872C164.979 198.197 165.305 198.686 165.224 199.338C165.142 200.234 164.49 200.886 163.185 200.804C162.777 200.804 162.206 200.641 161.554 200.315Z" fill="#3B55A2"/>
<path d="M156.335 195.509L158.047 195.916L158.537 195.02L160.086 195.346L157.069 199.99L155.601 199.664L154.704 194.206L156.253 194.532L156.335 195.509ZM156.416 196.65L156.579 198.36L157.395 196.894L156.416 196.65Z" fill="#3B55A2"/>
<path d="M148.342 191.762L149.321 192.169L150.544 195.672L151.605 193.147L152.909 193.717L150.952 198.442L149.974 198.034L148.75 194.532L147.69 197.057L146.385 196.487L148.342 191.762Z" fill="#3B55A2"/>
<path d="M144.999 189.807L146.222 190.54L143.612 194.939L142.389 194.206L144.999 189.807Z" fill="#3B55A2"/>
<path d="M137.741 189.399L138.801 190.214L141.166 187.119L142.308 187.933L139.943 191.029L141.003 191.843L140.187 192.821L137.007 190.377L137.741 189.399Z" fill="#3B55A2"/>
<path d="M136.028 183.697L137.251 184.919L138.148 184.512L139.209 185.652L134.152 187.852L133.092 186.793L135.376 181.742L136.436 182.883L136.028 183.697ZM135.457 184.756L134.642 186.222L136.191 185.489L135.457 184.756Z" fill="#3B55A2"/>
<path d="M132.685 177.995L131.869 180.194L133.419 179.135L134.234 180.276L129.993 183.208L128.77 181.416C128.036 180.276 128.362 179.38 129.096 178.891C129.667 178.484 130.401 178.402 130.972 178.891L131.706 176.61L132.685 177.995ZM130.238 181.253L131.135 180.602L130.809 180.113C130.564 179.787 130.238 179.624 129.993 179.868C129.667 180.113 129.667 180.357 129.912 180.765L130.238 181.253Z" fill="#3B55A2"/>
<path d="M130.075 173.433L130.727 174.655L126.16 177.017L125.508 175.795L130.075 173.433Z" fill="#3B55A2"/>
<path d="M127.139 168.627L127.71 170.256H128.689L129.178 171.722L123.632 171.559L123.143 170.174L127.384 166.59L127.873 168.056L127.139 168.627ZM126.16 169.36L124.774 170.419H126.487L126.16 169.36Z" fill="#3B55A2"/>
<path d="M121.594 161.702L122.899 162.11C122.654 162.598 122.654 163.087 122.736 163.413C122.736 163.657 122.817 163.739 122.98 163.657C123.062 163.657 123.143 163.576 123.225 163.332L123.551 162.191C123.714 161.621 124.04 161.132 124.856 160.969C125.916 160.806 126.568 161.376 126.813 162.68C126.976 163.413 126.895 164.146 126.568 164.961L125.1 164.553C125.427 163.902 125.508 163.332 125.427 162.843C125.345 162.598 125.264 162.435 125.1 162.435C124.937 162.435 124.937 162.517 124.856 162.761L124.448 163.983C124.285 164.635 123.796 165.042 123.143 165.124C122.246 165.287 121.512 164.716 121.268 163.494C121.349 163.006 121.431 162.435 121.594 161.702Z" fill="#3B55A2"/>
<path d="M165.631 192.576C155.927 192.576 146.711 188.829 139.861 181.905C133.011 175.062 129.178 165.857 129.178 156.163C129.178 146.469 132.929 137.264 139.861 130.421C146.711 123.578 155.927 119.749 165.631 119.749C175.336 119.749 184.551 123.497 191.402 130.421C198.252 137.264 202.085 146.469 202.085 156.163C202.085 165.857 198.333 175.062 191.402 181.905C184.551 188.748 175.336 192.576 165.631 192.576ZM165.631 121.134C156.253 121.134 147.445 124.8 140.84 131.398C134.234 137.997 130.564 146.795 130.564 156.163C130.564 165.531 134.234 174.329 140.84 180.927C147.445 187.526 156.253 191.192 165.631 191.192C175.01 191.192 183.817 187.526 190.423 180.927C197.029 174.329 200.698 165.531 200.698 156.163C200.698 146.795 197.029 137.997 190.423 131.398C183.817 124.8 175.01 121.134 165.631 121.134Z" fill="#B98F44"/>
<path d="M27.4829 148.668C32.1313 147.854 32.1313 150.705 31.642 153.963C31.2343 154.371 30.4187 154.778 30.4187 155.104C30.5003 160.48 30.7449 165.857 30.908 171.233C30.8265 181.09 30.6634 190.947 30.7449 200.804C30.7449 201.945 31.7236 203.492 32.7022 204.063C39.1447 207.891 45.6689 211.394 52.193 215.06C58.9618 211.313 65.8121 207.647 72.4993 203.737C73.4779 203.167 74.2934 201.456 74.2934 200.315C74.375 190.621 74.2119 180.927 74.1303 171.233C73.8857 165.694 73.641 160.155 73.4779 154.615C73.1517 151.601 72.4993 148.505 77.0662 148.261C77.3108 148.668 77.5555 148.994 77.8001 149.402C77.3108 151.52 76.9031 153.719 76.4138 155.837C76.4138 161.295 76.4138 166.834 76.4138 172.292C76.4138 181.824 76.4138 191.355 76.4138 201.7C81.3884 198.605 85.6291 195.998 89.8698 193.391C93.458 191.436 97.0463 189.237 100.716 187.444C103.244 186.222 103.978 184.593 103.978 181.824C103.815 164.472 103.815 147.039 103.978 129.688C103.978 126.999 103.244 125.452 100.798 124.067C85.5475 115.432 70.379 106.552 55.2104 97.836C54.3133 97.2658 53.1716 97.1029 52.193 96.6956C35.8011 106.064 19.3277 115.35 3.01744 124.881C1.71262 125.696 0.734003 128.221 0.734003 129.932C0.5709 143.455 1.63107 157.059 0.326246 170.5C-0.815474 182.312 3.01745 189.399 13.9453 193.147C14.2715 193.228 14.5162 193.391 14.8424 193.473C19.4093 196.161 23.8946 198.849 28.8693 201.782C28.8693 191.273 28.8693 181.742 28.8693 172.211C28.8693 166.753 28.8693 161.295 28.8693 155.756C28.2984 153.475 27.8906 151.031 27.4829 148.668ZM276.052 214.816C276.46 214.734 276.949 214.571 277.357 214.49C282.087 211.802 286.817 209.032 291.547 206.344C296.684 203.33 301.822 200.315 306.96 197.301C313.158 193.798 319.519 190.377 325.635 186.63C326.777 185.897 327.837 183.942 327.837 182.557C328 164.716 328 146.876 327.837 129.036C327.837 127.651 326.777 125.533 325.635 124.881C309.243 115.35 292.77 105.982 276.378 96.6141C276.052 96.6141 275.726 96.5326 275.481 96.6956C259.334 105.982 243.105 115.269 227.039 124.719C225.734 125.452 224.756 127.733 224.756 129.362C224.593 147.039 224.593 164.798 224.756 182.475C224.756 183.779 225.49 185.734 226.55 186.385C232.829 190.133 239.272 193.636 245.633 197.22C250.445 200.071 255.256 202.922 260.068 205.692C265.368 208.706 270.669 211.639 276.052 214.653C275.889 214.734 276.052 214.816 276.052 214.816ZM125.1 108.67C129.585 105.982 133.989 103.294 138.474 100.524C144.999 96.94 151.604 93.4371 157.965 89.6084C159.107 88.9567 159.759 86.7572 159.759 85.2094C159.922 67.695 159.922 50.1807 159.678 32.7478C159.678 30.9556 158.291 28.5118 156.824 27.6157C141.655 18.5734 126.405 9.85692 111.073 1.14047C109.931 0.488773 108.3 0.733159 106.914 0.570235C90.6853 9.77546 74.5381 18.9807 58.3909 28.2674C57.4938 28.8376 56.7599 30.5483 56.7599 31.7702C56.6783 49.7734 56.6783 67.7765 56.7599 85.8611C56.7599 87.1645 57.5754 89.0381 58.6355 89.6898C64.915 93.4371 71.3576 96.94 77.7186 100.524C82.2039 103.213 86.6892 105.819 91.1746 108.508C96.8832 111.685 102.673 114.78 108.382 117.957C114.009 114.862 119.554 111.766 125.1 108.67ZM219.7 117.713C220.352 117.713 221.168 117.876 221.738 117.55C233.645 110.626 245.552 103.701 257.376 96.777C261.291 94.659 265.287 92.7039 268.957 90.1786C270.343 89.2825 271.566 87.083 271.648 85.4538C271.811 67.7765 271.893 50.1807 271.648 32.5034C271.648 30.7927 270.18 28.4303 268.631 27.5342C253.625 18.5734 238.457 9.93838 223.288 1.22193C222.228 0.651697 221.005 0.407311 219.863 0C203.553 9.28668 187.161 18.5734 170.932 28.023C169.79 28.6747 168.893 30.7927 168.893 32.259C168.73 50.0992 168.73 68.0209 168.893 85.8611C168.893 87.246 169.953 89.201 171.095 89.9342C174.928 92.4595 179.087 94.4961 183.165 96.777C195.316 103.701 207.467 110.707 219.7 117.713Z" fill="#FDFDFC"/>
<path fill-rule="evenodd" clip-rule="evenodd" d="M106.669 312C104.386 310.452 102.265 308.742 99.9005 307.357C90.2774 301.654 80.5728 296.033 70.9497 290.413C72.9885 285.769 75.1904 281.126 76.9845 276.401C78.6971 271.921 81.7145 269.395 86.526 268.825C91.256 275.912 95.9045 283.081 100.716 290.087C102.184 292.205 104.223 293.834 106.017 295.708H105.854C106.343 296.685 106.832 297.663 107.322 298.64C107.485 299.21 107.729 299.699 107.893 300.269C108.545 303.935 109.197 307.601 109.931 311.185C109.85 311.43 109.768 311.756 109.687 312C108.545 312 107.648 312 106.669 312Z" fill="#5A576D"/>
<path fill-rule="evenodd" clip-rule="evenodd" d="M236.418 303.039C231.525 306.053 226.632 308.986 221.738 312C221.086 312 220.434 312 219.781 312C219.781 311.348 219.781 310.697 219.863 310.126C221.005 303.528 219.047 298.722 212.115 296.604C211.626 296.441 211.218 295.87 210.647 295.382C223.94 293.345 228.997 288.05 228.263 277.46C228.344 277.216 228.344 276.971 228.344 276.727C230.872 273.387 233.4 269.965 235.928 266.625C238.293 269.965 240.577 273.305 242.942 276.727C241.963 280.637 242.208 285.606 239.843 288.294C235.521 292.856 235.765 297.744 236.418 303.039Z" fill="#CAC9C8"/>
<path fill-rule="evenodd" clip-rule="evenodd" d="M242.86 276.645C240.495 273.305 238.212 269.966 235.847 266.544C233.482 265.485 231.198 264.426 228.426 263.123C228.426 261.738 228.426 260.109 228.426 258.398C229.404 257.746 230.301 257.094 231.28 256.443C231.851 256.361 232.422 256.198 232.993 256.117C238.375 256.117 243.676 256.117 249.303 256.117C249.303 247.889 249.792 240.232 249.221 232.656C248.324 221.414 237.478 210.335 226.469 208.706C224.267 208.38 221.983 207.973 219.781 207.647C219.781 204.959 219.618 202.189 219.863 199.501C220.026 197.627 220.923 195.916 221.494 194.124C237.478 203.248 253.544 212.372 269.528 221.658C270.669 222.31 271.648 224.347 271.648 225.813C271.811 243.653 271.811 261.493 271.648 279.334C271.648 280.881 270.506 282.999 269.283 283.814C263.493 287.398 257.458 290.657 251.505 293.997C248.569 288.213 245.715 282.429 242.86 276.645Z" fill="#823928"/>
<path fill-rule="evenodd" clip-rule="evenodd" d="M221.494 194.124C220.923 195.916 220.107 197.709 219.863 199.501C219.618 202.189 219.781 204.877 219.781 207.647C216.845 208.625 213.991 209.602 211.055 210.58C210.403 210.58 209.832 210.58 209.18 210.661C207.875 211.231 206.488 211.802 205.184 212.372C196.131 217.911 191.157 225.813 191.157 236.566C191.157 243.002 191.157 249.519 191.157 256.117C196.865 256.117 202.085 256.117 207.304 256.117C208.853 256.932 210.403 257.746 211.952 258.561C212.523 261.819 211.871 264.426 208.201 265.241C206.896 265.811 205.673 266.3 204.368 266.87C202.085 270.128 199.801 273.305 197.599 276.564C195.071 282.429 192.543 288.295 190.096 294.16C183.409 290.494 176.64 286.991 170.116 283.162C169.219 282.674 168.893 280.719 168.893 279.415C168.812 261.738 168.73 243.979 168.975 226.302C168.975 224.673 170.198 222.229 171.584 221.414C186.916 212.29 202.411 203.492 217.906 194.613C218.803 193.961 220.271 194.206 221.494 194.124Z" fill="#AE4731"/>
<path fill-rule="evenodd" clip-rule="evenodd" d="M109.605 194.043C125.508 203.167 141.41 212.127 157.15 221.414C158.536 222.229 159.759 224.591 159.759 226.22C159.922 243.898 159.922 261.575 159.759 279.252C159.759 280.8 158.536 282.837 157.231 283.651C153.317 286.014 149.158 287.887 145.08 289.924C143.041 284.629 141.247 279.252 138.719 274.12C137.088 270.78 133.989 268.581 129.83 268.907C127.22 267.603 124.529 266.3 121.919 264.996C121.838 262.96 121.675 260.923 121.838 258.887C122.082 254.814 127.302 250.741 131.461 251.229C136.599 248.46 137.17 246.912 135.294 240.232C135.946 238.603 137.17 236.973 137.17 235.263C137.251 223.043 126.405 211.476 113.275 209.439C111.644 209.113 110.013 208.787 108.3 208.462C108.871 203.737 109.279 198.931 109.605 194.043Z" fill="#5A7A6D"/>
<path fill-rule="evenodd" clip-rule="evenodd" d="M109.605 194.043C109.197 198.849 108.871 203.737 108.463 208.543C107.892 208.625 107.24 208.787 106.669 208.869C106.017 209.032 105.364 209.195 104.712 209.358C104.059 209.439 103.407 209.521 102.673 209.684C102.347 209.847 101.939 210.091 101.613 210.254C101.287 210.254 101.042 210.335 100.716 210.417C99.8188 210.661 98.8402 210.906 97.9431 211.15C97.2907 211.557 96.5568 211.883 95.9044 212.29C84.2425 217.097 80.0018 226.628 78.9416 238.277C79.5125 240.802 80.0018 243.327 80.5727 245.853C82.5299 251.311 82.5299 251.311 85.7104 250.74C88.8909 252.94 92.0714 255.139 95.2519 257.339C95.1704 259.946 95.0888 262.553 95.0073 265.241C92.153 266.463 89.2171 267.603 86.3628 268.825C81.6328 269.395 78.6154 271.921 76.8213 276.401C74.9456 281.126 72.8253 285.769 70.7865 290.413C56.5965 283.325 56.5965 283.325 56.5965 267.766C56.5965 254.08 56.515 240.313 56.7596 226.628C56.7596 224.836 57.9829 222.229 59.4508 221.333C74.7825 212.209 90.2773 203.33 105.854 194.532C106.914 193.961 108.382 194.206 109.605 194.043Z" fill="#75A194"/>
<path fill-rule="evenodd" clip-rule="evenodd" d="M219.863 0C221.005 0.407311 222.309 0.570235 223.288 1.22193C238.457 9.93838 253.625 18.5734 268.631 27.5342C270.099 28.4303 271.566 30.7927 271.648 32.5034C271.893 50.1807 271.811 67.7765 271.648 85.4538C271.648 87.083 270.343 89.2825 268.957 90.1786C265.287 92.6225 261.291 94.5776 257.376 96.777C255.338 91.482 253.544 86.1055 251.097 81.0548C249.384 77.552 246.367 75.1896 242.045 75.5154C239.272 74.1305 236.499 72.8272 233.727 71.4423C233.645 70.8721 233.645 70.3833 233.563 69.8131C233.645 68.1838 233.727 66.5546 233.727 64.9253C235.358 62.8888 236.989 60.9337 238.62 58.8971C245.796 59.4674 246.041 59.3859 247.998 52.706C248.732 50.1807 248.895 47.411 249.384 44.8042C249.874 30.9556 239.68 18.2475 226.468 16.211C224.511 15.8037 222.636 15.4778 220.678 15.0705C220.352 10.0198 220.107 5.05065 219.863 0Z" fill="#464E64"/>
<path fill-rule="evenodd" clip-rule="evenodd" d="M219.863 0C220.108 5.05065 220.352 10.0198 220.597 15.0705C217.416 15.7222 214.236 16.3739 210.974 17.107C210.729 17.0256 210.485 17.1071 210.321 17.27C208.69 18.1661 206.978 19.0621 205.347 19.9582C195.398 25.1718 191.483 33.8883 191.075 44.6413C190.749 56.6162 193.033 59.4674 202.411 59.0601C204.042 60.6893 205.592 62.2371 207.223 63.8663C207.223 66.3102 207.223 68.7541 207.141 71.1979C207.059 71.5238 206.815 71.6867 206.489 71.6052C203.553 72.9086 200.617 74.212 197.681 75.4339C193.93 75.3525 191.32 77.0632 189.852 80.4846C187.569 85.8611 185.285 91.3191 183.083 96.6956C179.087 94.4961 174.928 92.3781 171.014 89.8527C169.872 89.1196 168.812 87.1645 168.812 85.7796C168.649 67.9394 168.649 50.0178 168.812 32.1775C168.812 30.7112 169.709 28.6747 170.851 27.9415C187.161 18.5734 203.471 9.28668 219.863 0Z" fill="#5A678C"/>
<path fill-rule="evenodd" clip-rule="evenodd" d="M28.7062 155.837C28.7062 161.295 28.7062 166.753 28.7062 172.292C26.1781 174.41 22.916 176.121 21.285 178.809C18.5122 183.371 16.7997 188.585 14.6793 193.473C14.3531 193.391 14.1085 193.228 13.7823 193.147C2.85436 189.399 -0.97856 182.231 0.16316 170.5C1.38643 157.14 0.407815 143.455 0.570917 129.932C0.570917 128.221 1.54954 125.696 2.85436 124.881C19.1647 115.35 35.638 106.064 52.0299 96.6956C52.0299 101.746 51.9483 106.797 51.9483 111.848C48.4416 112.825 44.9349 113.721 41.4282 114.699C30.9081 118.12 23.65 128.71 23.2422 141.5C23.65 144.677 23.7315 148.098 24.7101 151.112C25.281 152.904 27.3198 154.289 28.7062 155.837Z" fill="#77A6B2"/>
<path fill-rule="evenodd" clip-rule="evenodd" d="M52.0298 111.929C52.0298 106.878 52.1113 101.828 52.1113 96.777C53.1715 97.1843 54.2317 97.3472 55.1287 97.9174C70.2973 106.634 85.4659 115.513 100.716 124.148C103.163 125.533 103.897 127.081 103.897 129.769C103.815 147.121 103.733 164.553 103.897 181.905C103.897 184.675 103.081 186.304 100.634 187.526C96.9646 189.318 93.3764 191.436 89.7881 193.473C87.6678 188.503 86.0367 183.29 83.3455 178.646C81.8776 176.04 78.6971 174.41 76.2506 172.292C76.2506 166.834 76.2506 161.295 76.2506 155.837C76.9845 155.348 78.1262 155.104 78.4525 154.371C88.5648 134.575 73.804 114.617 57.8199 112.825C55.9443 112.581 53.987 112.255 52.0298 111.929Z" fill="#597C7D"/>
<path fill-rule="evenodd" clip-rule="evenodd" d="M106.996 0.57019C108.382 0.733115 110.095 0.488728 111.155 1.14043C126.486 9.85687 141.818 18.6548 156.905 27.6156C158.373 28.5117 159.759 31.037 159.759 32.7477C160.004 50.2621 159.923 67.7765 159.841 85.2094C159.841 86.6757 159.107 88.8752 158.047 89.6083C151.686 93.437 145.08 96.9399 138.556 100.524C137.822 98.3248 137.088 96.1253 136.354 93.9258C136.68 92.2966 137.333 90.6673 137.333 89.0381C137.414 73.3159 137.414 57.5937 137.414 41.8715C137.414 29.4893 128.525 18.4104 116.211 15.3148C113.357 14.9075 110.584 14.4188 107.73 14.0114C107.893 12.9524 108.382 11.812 108.3 10.753C107.893 7.41301 107.403 3.9916 106.996 0.57019Z" fill="#63564F"/>
<path fill-rule="evenodd" clip-rule="evenodd" d="M276.378 96.6956C292.851 106.064 309.325 115.432 325.635 124.963C326.777 125.615 327.837 127.651 327.837 129.117C328 146.958 328 164.798 327.837 182.638C327.837 184.023 326.777 185.978 325.635 186.711C319.519 190.458 313.239 193.88 306.96 197.383C306.226 195.428 305.492 193.473 304.758 191.599C304.839 174.329 305.003 157.059 305.084 139.708C306.47 127.244 293.911 112.744 282.005 111.929C280.048 111.603 278.172 111.196 276.215 110.87C276.296 106.145 276.378 101.42 276.378 96.6956Z" fill="#7A7A6F"/>
<path fill-rule="evenodd" clip-rule="evenodd" d="M276.378 96.6956C276.378 101.42 276.296 106.145 276.296 110.87C274.339 111.196 272.463 111.603 270.506 111.929C269.854 112.173 269.283 112.499 268.631 112.744H268.549C267.244 112.988 266.021 113.314 264.716 113.558C264.39 113.884 263.982 114.21 263.656 114.454C254.277 117.061 246.938 128.384 246.856 140.441C246.856 156.163 246.775 171.885 246.775 187.607C246.775 188.748 247.346 189.97 247.672 191.11C246.938 193.147 246.204 195.102 245.47 197.138C239.109 193.554 232.666 190.133 226.387 186.304C225.327 185.652 224.593 183.697 224.593 182.394C224.511 164.716 224.43 146.958 224.593 129.28C224.593 127.733 225.653 125.37 226.876 124.637C242.942 115.188 259.171 105.901 275.318 96.6141C275.725 96.6141 276.052 96.6956 276.378 96.6956Z" fill="#9AA399"/>
<path fill-rule="evenodd" clip-rule="evenodd" d="M106.996 0.57019C107.403 3.9916 107.974 7.33155 108.219 10.753C108.3 11.812 107.893 12.871 107.648 14.0114C90.93 15.5592 79.1865 27.4527 79.1865 42.9305C79.105 59.1415 78.9419 75.3524 78.9419 91.5634C78.9419 92.5409 79.6759 93.6 80.0021 94.5775C79.2681 96.5326 78.4526 98.5691 77.7186 100.524C71.3576 96.9399 64.915 93.5185 58.6356 89.6898C57.5754 89.0381 56.7599 87.1645 56.7599 85.8611C56.6783 67.8579 56.6783 49.8548 56.7599 31.7702C56.7599 30.5483 57.4939 28.8376 58.3909 28.2673C74.5381 18.9806 90.7669 9.77541 106.996 0.57019Z" fill="#7A7A6F"/>
<path fill-rule="evenodd" clip-rule="evenodd" d="M76.9848 148.261C72.4179 148.424 73.0703 151.601 73.3965 154.615C66.22 157.629 65.5676 158.688 65.5676 168.056C64.8336 176.04 61.6531 179.298 52.03 181.742C43.0594 179.38 40.1235 176.284 39.2265 168.219C39.308 165.613 39.3896 163.087 39.3896 160.48C40.8575 161.132 42.3254 161.784 43.7933 162.354C50.3175 164.961 56.6785 164.554 63.6103 160.969C52.3562 154.289 41.5915 147.935 30.8267 141.5C36.943 141.418 42.9778 141.337 49.0942 141.255C52.6009 141.255 56.1076 141.255 59.6143 141.255C64.589 141.255 69.6452 141.255 74.212 141.255C75.3538 144.107 76.1693 146.225 76.9848 148.261ZM52.2747 145.247C51.2961 147.365 50.2359 148.506 50.3175 149.565C50.399 150.379 51.7854 151.112 52.6824 151.927C53.4164 150.868 54.6397 149.972 54.8028 148.831C54.8028 148.017 53.5795 147.039 52.2747 145.247Z" fill="#C29365"/>
<path fill-rule="evenodd" clip-rule="evenodd" d="M242.045 75.5155C246.449 75.1896 249.466 77.552 251.097 81.0549C253.544 86.1055 255.338 91.482 257.377 96.7771C245.47 103.701 233.645 110.707 221.738 117.55C221.249 117.876 220.434 117.631 219.7 117.713C219.863 114.047 220.026 110.381 220.189 106.715C220.678 105.982 221.168 105.168 221.657 104.435C221.983 103.701 222.391 102.968 222.717 102.235C223.451 101.665 224.348 101.176 224.837 100.443C230.546 92.2152 236.255 83.8246 242.045 75.5155Z" fill="#403F34"/>
<path fill-rule="evenodd" clip-rule="evenodd" d="M129.993 268.988C134.152 268.662 137.251 270.862 138.882 274.202C141.329 279.252 143.123 284.71 145.243 290.005C144.02 290.983 142.96 292.123 141.655 292.938C131.053 299.047 120.452 305.076 109.85 311.185C109.197 307.52 108.545 303.854 107.811 300.269C108.056 299.944 108.382 299.618 108.627 299.292C108.953 299.21 109.197 299.129 109.442 298.885C109.768 298.151 110.176 297.418 110.502 296.685H110.421C116.945 287.398 123.469 278.193 129.993 268.988Z" fill="#403F34"/>
<path fill-rule="evenodd" clip-rule="evenodd" d="M52.0298 181.742C61.6529 179.298 64.8334 176.04 65.5673 168.056C68.4216 169.115 71.1944 170.174 74.0487 171.233C74.1302 180.927 74.2933 190.621 74.2118 200.315C74.2118 201.456 73.3963 203.167 72.4177 203.737C65.7304 207.647 58.8801 211.313 52.1113 215.06C52.1113 203.9 52.1113 192.821 52.0298 181.742Z" fill="#C08F36"/>
<path fill-rule="evenodd" clip-rule="evenodd" d="M220.107 106.797C219.944 110.463 219.781 114.128 219.618 117.794C207.385 110.788 195.234 103.783 183.001 96.777C185.285 91.4005 187.487 85.9425 189.77 80.566C191.238 77.1446 193.848 75.4339 197.599 75.5154C202.982 83.2543 208.282 90.9932 213.665 98.5691C214.97 100.443 216.845 101.909 218.476 103.62C218.639 103.783 218.803 104.027 218.884 104.271C219.455 105.086 219.781 105.901 220.107 106.797Z" fill="#7A7A6F"/>
<path fill-rule="evenodd" clip-rule="evenodd" d="M52.0298 181.742C52.0298 192.821 52.1114 203.981 52.1114 215.06C45.5873 211.394 39.0631 207.81 32.6206 204.063C31.642 203.492 30.6633 201.945 30.6633 200.804C30.5818 190.947 30.7449 181.09 30.8264 171.233C33.5992 170.256 36.4535 169.278 39.2262 168.301C40.1233 176.203 43.0592 179.38 52.0298 181.742Z" fill="#EFCB33"/>
<path fill-rule="evenodd" clip-rule="evenodd" d="M108.463 117.876C102.755 114.699 96.9646 111.603 91.256 108.426C93.621 104.923 95.0073 100.932 91.5822 97.6731C87.4231 93.6815 85.792 89.0381 85.4658 83.6616C88.0755 80.0773 90.6036 76.4115 93.2132 72.8271C94.9258 83.8245 108.382 89.1196 115.966 83.2543C116.292 83.2543 116.7 83.1728 117.026 83.1728C117.271 88.142 116.537 92.9483 112.296 96.0439C108.545 98.7321 104.223 100.606 99.982 102.887C107.566 104.679 110.094 110.137 108.463 117.876Z" fill="#75A194"/>
<path fill-rule="evenodd" clip-rule="evenodd" d="M275.889 214.734C270.588 211.72 265.287 208.788 259.905 205.773C261.291 201.7 262.596 197.301 258.926 193.961C254.848 190.214 253.462 185.571 253.217 180.357C255.745 176.773 258.355 173.189 260.883 169.604C263.167 180.439 272.545 185.001 283.636 180.683C283.881 180.765 284.207 180.765 284.451 180.765C285.104 185.815 283.554 190.621 279.803 193.554C276.133 196.324 271.322 197.464 267.326 199.256C268.631 200.071 270.669 201.537 272.953 202.596C275.481 203.737 276.541 205.448 276.215 208.136C276.052 210.254 276.052 212.535 275.889 214.734Z" fill="#D68163"/>
<path fill-rule="evenodd" clip-rule="evenodd" d="M108.463 117.876C110.094 110.137 107.566 104.679 100.063 102.887C104.304 100.606 108.626 98.7321 112.378 96.0439C116.537 93.0298 117.271 88.1421 117.108 83.1729C119.31 79.67 121.593 76.2486 123.795 72.7457C126.16 75.9228 128.525 79.1812 130.89 82.3583C131.135 87.4904 130.89 92.541 126.731 96.2883C122.653 100.036 123.387 104.19 125.181 108.589C119.554 111.766 114.009 114.862 108.463 117.876Z" fill="#5A7A6D"/>
<path fill-rule="evenodd" clip-rule="evenodd" d="M275.889 214.734C276.052 212.535 276.052 210.335 276.296 208.136C276.623 205.366 275.562 203.737 273.034 202.596C270.751 201.537 268.712 200.071 267.407 199.256C271.403 197.546 276.215 196.324 279.885 193.554C283.718 190.621 285.185 185.815 284.533 180.764C286.898 177.18 289.263 173.677 291.628 170.093C293.911 173.107 296.195 176.121 298.478 179.135C297.826 182.964 298.397 188.015 296.113 190.296C291.383 195.183 291.465 200.56 291.546 206.425C286.816 209.113 282.086 211.883 277.357 214.571C276.949 214.653 276.459 214.816 276.052 214.897L275.889 214.734Z" fill="#AE4731"/>
<path fill-rule="evenodd" clip-rule="evenodd" d="M76.9849 148.261C76.1694 146.143 75.3539 144.107 74.2937 141.337C69.7268 141.337 64.7522 141.337 59.696 141.337C57.2494 139.545 59.7775 139.382 60.5931 138.812C66.791 134.576 69.0744 126.918 65.323 120.564C63.6105 117.631 60.43 115.432 57.9019 112.988C73.886 114.78 88.5652 134.738 78.5344 154.534C78.2082 155.185 77.0665 155.511 76.3325 156C76.8218 153.882 77.2296 151.683 77.7189 149.565C77.4742 148.994 77.2296 148.587 76.9849 148.261Z" fill="#403F34"/>
<path fill-rule="evenodd" clip-rule="evenodd" d="M30.9081 141.581C41.6729 147.935 52.3561 154.289 63.6918 161.051C56.7599 164.635 50.3989 165.042 43.8748 162.435C42.4068 161.865 40.9389 161.214 39.471 160.562C36.8613 158.362 34.2517 156.163 31.642 153.963C32.0498 150.786 32.1313 147.854 27.4829 148.668C28.2984 146.632 29.0324 144.595 29.8479 142.559C29.9295 142.233 30.0926 141.988 30.1741 141.663C30.4188 141.581 30.6634 141.581 30.9081 141.581Z" fill="#E8BE8B"/>
<path fill-rule="evenodd" clip-rule="evenodd" d="M14.7607 193.554C16.8811 188.666 18.6752 183.453 21.3664 178.891C22.9974 176.203 26.2595 174.492 28.7876 172.374C28.7876 181.905 28.7876 191.436 28.7876 201.945C23.813 198.931 19.2461 196.242 14.7607 193.554Z" fill="#EFCB33"/>
<path fill-rule="evenodd" clip-rule="evenodd" d="M76.332 172.292C78.7786 174.41 81.8775 176.04 83.427 178.647C86.1182 183.29 87.7492 188.503 89.8696 193.473C85.6289 196.079 81.3882 198.686 76.4136 201.782C76.332 191.273 76.332 181.824 76.332 172.292Z" fill="#C08F36"/>
<path fill-rule="evenodd" clip-rule="evenodd" d="M190.097 294.078C192.625 288.213 195.153 282.348 197.599 276.482C197.355 282.674 199.394 287.561 203.797 292.205C205.755 294.241 204.939 298.966 205.347 302.469C204.776 302.713 204.205 302.876 203.716 303.121C199.149 300.025 194.582 297.092 190.097 294.078Z" fill="#E8BE8B"/>
<path fill-rule="evenodd" clip-rule="evenodd" d="M291.547 206.344C291.465 200.56 291.384 195.183 296.114 190.214C298.315 187.852 297.745 182.801 298.479 179.054C300.599 183.208 302.638 187.363 304.758 191.518C305.492 193.473 306.226 195.428 306.96 197.301C301.822 200.315 296.684 203.33 291.547 206.344Z" fill="#C29365"/>
<path fill-rule="evenodd" clip-rule="evenodd" d="M253.299 180.357C253.544 185.571 254.93 190.133 259.008 193.961C262.678 197.383 261.454 201.7 259.986 205.773C255.175 202.922 250.363 200.071 245.552 197.301C246.286 195.265 247.02 193.31 247.754 191.273C249.548 187.607 251.423 183.942 253.299 180.357Z" fill="#E8BE8B"/>
<path fill-rule="evenodd" clip-rule="evenodd" d="M85.5477 83.6616C85.8739 89.1196 87.5049 93.7629 91.664 97.6731C95.0892 100.932 93.7028 104.923 91.3378 108.426C86.8525 105.738 82.3672 103.131 77.8818 100.443C78.6158 98.4877 79.4313 96.4512 80.1653 94.4961C81.8779 90.9118 83.7535 87.3274 85.5477 83.6616Z" fill="#E8BE8B"/>
<path fill-rule="evenodd" clip-rule="evenodd" d="M125.1 108.671C123.306 104.272 122.572 100.036 126.65 96.3697C130.809 92.541 131.053 87.5718 130.809 82.4397C132.603 86.2684 134.478 90.1786 136.273 94.0073C137.007 96.2068 137.741 98.4063 138.475 100.606C134.071 103.294 129.585 105.982 125.1 108.671Z" fill="#C29365"/>
<path fill-rule="evenodd" clip-rule="evenodd" d="M242.86 276.646C245.714 282.429 248.569 288.213 251.423 294.078C246.448 297.092 241.392 300.107 236.418 303.121C235.765 297.744 235.52 292.938 239.761 288.213C242.126 285.525 241.963 280.556 242.86 276.646Z" fill="#C29365"/>
<path fill-rule="evenodd" clip-rule="evenodd" d="M204.368 266.789C205.673 266.218 206.896 265.73 208.201 265.159C214.888 268.988 221.576 272.817 228.263 276.645C228.263 276.89 228.181 277.134 228.181 277.379C216.03 281.452 210.811 279.089 204.368 266.789Z" fill="#E8BE8B"/>
<path fill-rule="evenodd" clip-rule="evenodd" d="M31.6422 153.964C34.2519 156.163 36.8615 158.362 39.4712 160.562C39.3896 163.169 39.3081 165.694 39.3081 168.301C36.5353 169.278 33.681 170.256 30.9083 171.315C30.7452 165.938 30.5005 160.562 30.4189 155.185C30.4189 154.697 31.2345 154.289 31.6422 153.964Z" fill="#77A6B2"/>
<path fill-rule="evenodd" clip-rule="evenodd" d="M74.0487 171.233C71.1944 170.174 68.4217 169.115 65.5674 168.056C65.5674 158.77 66.2198 157.629 73.3963 154.615C73.641 160.155 73.8041 165.694 74.0487 171.233Z" fill="#597C7D"/>
<path fill-rule="evenodd" clip-rule="evenodd" d="M29.7663 142.559C28.9508 144.595 28.2168 146.632 27.4013 148.668C27.8091 151.112 28.2984 153.475 28.7061 155.919C27.3198 154.371 25.281 152.986 24.6286 151.112C23.65 148.098 23.5684 144.758 23.1606 141.5C25.4441 141.826 27.646 142.151 29.7663 142.559Z" fill="#403F34"/>
<path fill-rule="evenodd" clip-rule="evenodd" d="M276.052 214.816C276.46 214.734 276.949 214.571 277.357 214.49C276.949 214.653 276.541 214.734 276.052 214.816Z" fill="#D68163"/>
<path fill-rule="evenodd" clip-rule="evenodd" d="M76.9028 148.261C77.1475 148.668 77.3921 148.994 77.6368 149.402C77.4737 148.994 77.229 148.587 76.9028 148.261Z" fill="#C29365"/>
<path fill-rule="evenodd" clip-rule="evenodd" d="M86.4448 268.744C89.2991 267.522 92.235 266.381 95.0893 265.159L95.1708 265.078C98.0251 272.735 100.879 280.311 103.815 287.969C104.549 290.576 105.283 293.101 106.017 295.708C104.223 293.834 102.184 292.123 100.716 290.087C95.8232 283 91.1748 275.831 86.4448 268.744Z" fill="#403F34"/>
<path fill-rule="evenodd" clip-rule="evenodd" d="M105.935 295.626C105.202 293.019 104.468 290.494 103.734 287.887C103.978 286.991 104.141 286.014 104.386 285.118C106.262 278.112 107.811 271.106 101.776 265.159C104.06 265.159 106.262 265.159 108.545 265.159C108.545 276.483 108.627 287.806 108.627 299.21C108.382 299.536 108.056 299.862 107.811 300.188C107.648 299.618 107.403 299.129 107.24 298.559C106.751 297.581 106.262 296.604 105.772 295.626H105.935Z" fill="#EFCB33"/>
<path fill-rule="evenodd" clip-rule="evenodd" d="M105.772 295.626C106.262 296.604 106.751 297.581 107.24 298.559C106.751 297.581 106.262 296.604 105.772 295.626Z" fill="#403F34"/>
<path fill-rule="evenodd" clip-rule="evenodd" d="M228.344 276.727C221.657 272.898 214.97 269.069 208.283 265.241C212.034 264.345 212.605 261.819 212.034 258.561C217.498 258.561 223.044 258.561 228.507 258.561C228.507 260.271 228.507 261.901 228.507 263.286C231.28 264.589 233.564 265.648 235.929 266.707C233.401 269.965 230.872 273.305 228.344 276.727Z" fill="#C29365"/>
<path fill-rule="evenodd" clip-rule="evenodd" d="M211.137 210.498C214.073 209.521 216.927 208.543 219.863 207.566C222.065 207.891 224.348 208.299 226.55 208.625C227.366 209.276 228.181 210.009 229.078 210.661C234.542 214.816 236.663 221.821 233.482 227.85C231.606 231.271 228.344 233.878 225.735 236.81C222.88 236.81 220.026 236.892 217.09 236.892C214.154 234.611 210.566 232.819 208.364 229.968C203.797 224.102 205.999 217.993 209.424 212.29C209.832 211.802 210.485 211.15 211.137 210.498Z" fill="#705C52"/>
<path fill-rule="evenodd" clip-rule="evenodd" d="M225.571 236.973C228.181 233.959 231.525 231.352 233.319 228.013C236.581 221.984 234.379 214.979 228.915 210.824C228.018 210.172 227.284 209.439 226.387 208.787C237.396 210.417 248.243 221.496 249.14 232.737C249.71 240.313 249.221 247.971 249.221 256.198C243.676 256.198 238.293 256.198 232.911 256.198C236.336 253.429 238.13 248.622 243.431 248.052C244.083 247.971 244.981 244.794 244.654 243.327C244.165 241.209 242.616 239.336 241.392 237.055C236.418 236.973 230.954 236.973 225.571 236.973Z" fill="#403F34"/>
<path fill-rule="evenodd" clip-rule="evenodd" d="M225.572 236.973C230.954 236.973 236.418 236.973 241.474 236.973C242.697 239.254 244.247 241.128 244.736 243.246C245.062 244.712 244.165 247.889 243.513 247.971C238.212 248.622 236.418 253.429 232.993 256.117C232.422 256.198 231.851 256.361 231.28 256.443C228.997 255.221 226.795 253.918 224.593 252.696C223.288 251.962 221.902 251.311 220.597 250.578C213.257 246.097 205.999 241.698 198.66 237.218C204.776 237.136 210.811 237.055 216.927 236.973C219.863 237.055 222.717 236.973 225.572 236.973ZM220.271 249.193C221.413 246.912 222.473 245.771 222.391 244.712C222.31 243.816 220.923 243.083 220.108 242.268C219.292 243.083 217.987 243.898 217.906 244.794C217.987 245.853 219.048 246.993 220.271 249.193Z" fill="#C29365"/>
<path fill-rule="evenodd" clip-rule="evenodd" d="M198.659 237.299C205.999 241.78 213.257 246.179 220.597 250.659C219.047 251.555 217.579 252.451 216.03 253.347C217.253 254.651 219.21 257.257 219.7 257.013C221.575 256.117 222.962 254.243 224.593 252.696C226.876 253.918 229.078 255.221 231.28 256.443C230.301 257.095 229.404 257.746 228.426 258.398C222.962 258.398 217.416 258.398 211.952 258.398C210.403 257.583 208.853 256.769 207.304 255.954C203.797 253.592 202.329 248.867 197.191 248.134C194.745 247.726 194.337 244.875 196.05 242.268C196.947 240.884 197.11 238.928 197.599 237.218L197.844 237.299L198.252 237.218L198.659 237.299Z" fill="#E8BE8B"/>
<path fill-rule="evenodd" clip-rule="evenodd" d="M197.599 237.299C197.11 239.01 196.947 240.965 196.05 242.35C194.337 244.957 194.745 247.808 197.192 248.215C202.329 249.03 203.797 253.673 207.304 256.036C202.085 256.036 196.865 256.036 191.157 256.036C191.157 249.356 191.157 242.92 191.157 236.485C193.359 236.729 195.479 236.973 197.599 237.299Z" fill="#403F34"/>
<path fill-rule="evenodd" clip-rule="evenodd" d="M197.599 237.299C195.479 237.055 193.277 236.729 191.157 236.485C191.157 225.732 196.213 217.83 205.184 212.29C205.347 212.453 205.428 212.616 205.591 212.698C204.694 214.164 203.879 215.712 202.982 217.178C199.312 223.369 196.947 229.968 197.762 237.381L197.599 237.299Z" fill="#705C52"/>
<path fill-rule="evenodd" clip-rule="evenodd" d="M205.265 212.29C206.57 211.72 207.956 211.15 209.261 210.58C209.261 211.231 209.261 211.802 209.261 212.453C208.038 212.535 206.896 212.616 205.673 212.779C205.51 212.535 205.347 212.372 205.265 212.29Z" fill="#705C52"/>
<path fill-rule="evenodd" clip-rule="evenodd" d="M209.18 212.453C209.18 211.802 209.18 211.231 209.18 210.58C209.832 210.58 210.403 210.58 211.055 210.498C210.484 211.15 209.832 211.802 209.18 212.453Z" fill="#958176"/>
<path fill-rule="evenodd" clip-rule="evenodd" d="M106.751 208.869C107.322 208.787 107.974 208.625 108.545 208.543C110.176 208.869 111.807 209.195 113.52 209.521C114.172 210.009 114.743 210.498 115.395 210.905C124.529 216.282 125.752 226.791 118.087 234.204C116.782 235.507 115.558 236.892 114.254 238.277C113.438 238.358 112.623 238.44 111.807 238.521C109.524 238.44 107.159 238.277 104.875 238.195C104.223 238.114 103.489 238.114 102.836 238.032C101.613 236.729 100.471 235.263 99.0851 234.122C94.3551 230.212 93.3765 225.161 94.6813 219.54C95.3337 217.015 96.9648 214.734 98.1065 212.372C99.0851 211.72 99.9822 210.987 100.961 210.335C101.287 210.254 101.532 210.172 101.858 210.172C102.184 210.009 102.592 209.765 102.918 209.602C103.57 209.521 104.223 209.439 104.957 209.276C105.446 209.195 106.099 209.032 106.751 208.869Z" fill="#705C52"/>
<path fill-rule="evenodd" clip-rule="evenodd" d="M114.254 238.277C115.477 236.892 116.7 235.507 118.086 234.204C125.752 226.791 124.611 216.363 115.395 210.905C114.743 210.498 114.09 210.009 113.52 209.521C126.649 211.557 137.496 223.125 137.414 235.344C137.414 236.973 136.191 238.603 135.538 240.313C132.358 239.662 129.177 239.01 125.997 238.358C122.082 238.358 118.25 238.358 114.335 238.44L114.254 238.277Z" fill="#403F34"/>
<path fill-rule="evenodd" clip-rule="evenodd" d="M108.463 265.241C106.18 265.241 103.978 265.241 101.695 265.241C99.4927 265.241 97.2908 265.159 95.0889 265.159L95.0073 265.241C95.0889 262.634 95.1704 260.027 95.252 257.339C96.7199 257.991 98.1878 258.642 99.6558 259.213C106.18 261.819 112.541 261.819 119.473 257.746C113.438 254.243 108.056 250.985 102.592 247.808C103.57 246.097 104.467 244.468 105.446 242.757C105.609 243.409 105.772 244.142 105.935 244.794C106.343 246.016 106.506 247.401 107.24 248.297C107.648 248.785 109.768 248.622 110.094 248.052C110.828 246.83 110.991 245.283 111.399 243.816C117.271 251.799 121.756 251.637 127.791 243.653C128.525 242.757 131.379 242.839 132.847 243.409C133.581 243.735 133.5 246.423 133.255 247.971C133.092 249.111 132.032 250.17 131.379 251.229C127.22 250.74 122.001 254.814 121.756 258.887C121.675 260.923 121.838 262.96 121.838 264.996H121.43C118.983 265.322 116.618 265.567 114.172 265.892C112.378 265.73 110.421 265.485 108.463 265.241Z" fill="#C29365"/>
<path fill-rule="evenodd" clip-rule="evenodd" d="M131.543 251.311C132.195 250.252 133.255 249.193 133.418 248.052C133.663 246.504 133.663 243.816 133.011 243.49C131.543 242.839 128.688 242.757 127.954 243.735C121.92 251.718 117.353 251.881 111.563 243.898V243.979C110.91 243.409 110.258 242.839 109.605 242.268C108.219 242.431 106.914 242.594 105.528 242.757C104.549 244.468 103.652 246.097 102.674 247.808C96.0679 250.985 93.2951 250.17 89.136 244.305C88.402 243.246 86.2001 243.164 84.6507 242.676C84.406 244.305 83.8351 245.934 83.9167 247.563C83.9982 248.622 85.0584 249.681 85.7108 250.74C82.5303 251.392 82.5303 251.392 80.5731 245.853C80.0838 241.861 83.5905 241.209 85.7924 239.499C87.5865 239.091 89.3806 238.684 91.2563 238.277C91.1748 238.847 91.0932 239.417 91.0117 239.987C91.0117 240.395 91.0117 240.802 91.0117 241.209C91.9903 247.4 95.4155 249.03 100.961 246.016C101.613 243.409 102.184 240.802 102.837 238.277L102.755 238.032C103.407 238.114 104.141 238.114 104.794 238.195C106.996 241.372 109.279 241.454 111.726 238.521C112.541 238.44 113.357 238.358 114.172 238.277L114.091 238.358C112.541 242.187 113.438 245.69 117.271 246.83C119.392 247.482 122.817 246.423 124.611 244.875C125.916 243.735 125.426 240.558 125.753 238.277C128.933 238.928 132.114 239.58 135.294 240.232C137.251 246.993 136.68 248.541 131.543 251.311Z" fill="#FDFDFC"/>
<path fill-rule="evenodd" clip-rule="evenodd" d="M129.993 268.988C123.469 278.193 116.945 287.48 110.421 296.685C111.318 293.834 112.133 291.064 113.031 288.213C115.885 280.556 118.821 272.817 121.675 265.159H122.083C124.692 266.381 127.302 267.685 129.993 268.988Z" fill="#5A576D"/>
<path fill-rule="evenodd" clip-rule="evenodd" d="M85.7105 250.741C85.0581 249.682 83.9979 248.704 83.9164 247.564C83.7533 245.934 84.3242 244.305 84.6504 242.676C86.1998 243.165 88.3202 243.246 89.1357 244.305C93.2948 250.17 96.0676 250.985 102.673 247.808C108.137 250.985 113.52 254.243 119.554 257.746C112.541 261.738 106.18 261.819 99.7374 259.213C98.2695 258.642 96.8015 257.991 95.3336 257.339C92.0715 255.139 88.891 252.94 85.7105 250.741Z" fill="#E8BE8B"/>
<path fill-rule="evenodd" clip-rule="evenodd" d="M79.0234 238.277C80.0836 226.628 84.4058 217.015 95.9861 212.29L96.1493 212.453C88.7281 219.541 86.2 228.583 85.466 238.358C83.2641 238.358 81.1438 238.277 79.0234 238.277Z" fill="#705C52"/>
<path fill-rule="evenodd" clip-rule="evenodd" d="M79.0234 238.277C81.1438 238.277 83.3457 238.358 85.466 238.358C85.6291 238.766 85.7107 239.173 85.8738 239.58C83.6719 241.291 80.1652 241.943 80.6545 245.934C80.0836 243.327 79.5127 240.802 79.0234 238.277Z" fill="#403F34"/>
<path fill-rule="evenodd" clip-rule="evenodd" d="M100.879 210.417C99.9006 211.068 99.0035 211.72 98.0249 212.453C98.0249 212.046 98.0249 211.557 98.0249 211.15C99.0035 210.906 99.9006 210.661 100.879 210.417Z" fill="#958176"/>
<path fill-rule="evenodd" clip-rule="evenodd" d="M98.0251 211.15C98.0251 211.557 98.0251 212.046 98.0251 212.453C97.3727 212.453 96.7203 212.453 96.0679 212.453L95.9048 212.29C96.6387 211.883 97.3727 211.476 98.0251 211.15Z" fill="#705C52"/>
<path fill-rule="evenodd" clip-rule="evenodd" d="M106.751 208.869C106.099 209.032 105.446 209.195 104.794 209.358C105.446 209.195 106.099 209.032 106.751 208.869Z" fill="#5A7A6D"/>
<path fill-rule="evenodd" clip-rule="evenodd" d="M102.755 209.684C102.429 209.847 102.021 210.091 101.695 210.254C102.103 210.091 102.429 209.847 102.755 209.684Z" fill="#958176"/>
<path fill-rule="evenodd" clip-rule="evenodd" d="M210.974 17.107C214.154 16.4553 217.335 15.8036 220.597 15.0704C222.554 15.4777 224.43 15.8036 226.387 16.2109C231.688 19.7952 235.684 24.4386 234.868 31.1185C234.053 37.554 230.464 42.3603 223.696 43.9895C220.76 44.2339 217.824 44.5597 214.888 44.8041C214.48 44.1524 214.236 43.3378 213.746 42.9305C205.836 37.3096 204.286 31.9331 207.793 22.7279C208.119 21.8318 208.119 20.8542 208.282 19.9582H208.364C209.016 19.6323 209.587 19.3065 210.24 19.0621C210.484 18.3289 210.729 17.6772 210.974 17.107Z" fill="#CDB270"/>
<path fill-rule="evenodd" clip-rule="evenodd" d="M214.888 44.8041C217.824 44.5597 220.76 44.2339 223.696 43.9895C230.057 44.3154 236.499 44.5597 242.86 44.8856C243.349 46.5148 243.513 48.2255 244.246 49.6919C246.041 52.8689 245.388 54.9869 242.126 56.3717C240.821 56.942 239.761 58.0825 238.619 58.8971C236.988 60.9336 235.357 62.8887 233.726 64.9253C233.645 66.5545 233.563 68.1838 233.563 69.813C233.645 70.3832 233.645 70.872 233.726 71.4422C233.563 71.5237 233.4 71.5237 233.237 71.6052C231.035 71.6866 228.833 71.6866 226.631 71.7681C224.429 71.7681 222.146 71.7681 219.944 71.7681C217.905 71.7681 215.948 71.8496 213.909 71.8496C211.707 71.6866 209.424 71.4422 207.222 71.2793C207.222 68.8355 207.222 66.3916 207.304 63.9477C215.133 67.5321 223.043 68.754 231.932 64.2736C220.597 57.7566 210.076 51.7284 198.333 44.967C204.776 44.8041 209.832 44.8041 214.888 44.8041ZM224.429 51.9728C222.88 50.9952 221.738 49.7733 221.086 49.9362C219.944 50.2621 219.129 51.5655 218.15 52.4616C219.047 53.3576 220.026 54.9054 220.923 54.9054C221.983 54.824 222.88 53.3576 224.429 51.9728Z" fill="#C29365"/>
<path fill-rule="evenodd" clip-rule="evenodd" d="M242.86 44.8856C236.499 44.5598 230.057 44.3154 223.696 43.9895C230.465 42.3603 234.053 37.554 234.868 31.1185C235.765 24.3572 231.688 19.7953 226.387 16.2109C239.598 18.166 249.792 30.9556 249.303 44.8042C247.183 44.8042 245.062 44.8041 242.86 44.8856Z" fill="#A18549"/>
<path fill-rule="evenodd" clip-rule="evenodd" d="M242.045 75.5154C236.255 83.8245 230.546 92.2152 224.756 100.524C224.267 101.257 223.37 101.746 222.636 102.316C223.288 99.4653 224.022 96.6956 224.675 93.8444C227.529 86.4313 230.383 79.0183 233.237 71.5238C233.401 71.4423 233.564 71.4423 233.727 71.3608C236.418 72.7457 239.191 74.1306 242.045 75.5154Z" fill="#7A7A6F"/>
<path fill-rule="evenodd" clip-rule="evenodd" d="M242.86 44.8857C244.981 44.8857 247.183 44.8042 249.303 44.8042C248.895 47.411 248.65 50.1807 247.917 52.706C246.041 59.3859 245.715 59.5489 238.538 58.8972C239.68 58.0011 240.74 56.9421 242.045 56.3718C245.307 54.987 245.959 52.869 244.165 49.6919C243.513 48.2256 243.35 46.4334 242.86 44.8857Z" fill="#8B6C35"/>
<path fill-rule="evenodd" clip-rule="evenodd" d="M233.482 69.813C233.563 68.1838 233.645 66.5545 233.645 64.9253C233.645 66.5545 233.563 68.1838 233.482 69.813Z" fill="#7A7A6F"/>
<path fill-rule="evenodd" clip-rule="evenodd" d="M214.888 44.8042C209.832 44.8042 204.776 44.8042 198.252 44.8042C209.995 51.5656 220.434 57.5938 231.851 64.1107C222.962 68.6726 215.133 67.3692 207.222 63.7849C205.591 62.1556 204.042 60.6079 202.411 58.9786C201.106 58.0825 199.883 56.7791 198.496 56.3718C194.826 55.2314 193.929 52.7875 196.05 49.529C196.865 48.2256 197.11 46.4334 197.681 44.8857C198.333 40.7311 198.415 36.4136 199.72 32.422C201.106 28.023 203.471 23.9499 205.428 19.7139C206.407 19.7139 207.385 19.7953 208.364 19.7953C208.201 20.6914 208.201 21.669 207.875 22.565C204.368 31.7703 205.999 37.1468 213.828 42.7677C214.236 43.3379 214.48 44.1525 214.888 44.8042Z" fill="#E8BE8B"/>
<path fill-rule="evenodd" clip-rule="evenodd" d="M218.721 103.538C217.09 101.909 215.214 100.361 213.909 98.4877C208.445 90.8303 203.145 83.0914 197.844 75.4339C200.78 74.1305 203.715 72.8272 206.651 71.6052C209.75 79.3441 212.768 87.0016 215.867 94.7405C216.682 97.6731 217.661 100.606 218.721 103.538Z" fill="#403F34"/>
<path fill-rule="evenodd" clip-rule="evenodd" d="M215.704 94.659C212.605 86.9201 209.587 79.2627 206.488 71.5238C206.814 71.6052 206.978 71.4423 207.141 71.1165C209.343 71.3608 211.626 71.5238 213.828 71.6867C219.292 77.3076 218.313 83.7431 216.438 90.423C216.111 91.8893 215.948 93.2741 215.704 94.659Z" fill="#FDFDFC"/>
<path fill-rule="evenodd" clip-rule="evenodd" d="M205.347 19.8767C203.39 24.1127 201.025 28.1858 199.638 32.5848C198.415 36.5764 198.252 40.8939 197.599 45.0485C195.397 44.8856 193.196 44.8041 190.994 44.6412C191.483 33.8882 195.397 25.0903 205.347 19.8767Z" fill="#CDB270"/>
<path fill-rule="evenodd" clip-rule="evenodd" d="M191.075 44.5598C193.277 44.7227 195.479 44.8042 197.681 44.9671C197.192 46.5149 196.947 48.2256 196.05 49.6105C193.93 52.869 194.827 55.2314 198.496 56.4533C199.964 56.9421 201.106 58.164 202.411 59.0601C192.951 59.4674 190.668 56.5348 191.075 44.5598Z" fill="#8B6C35"/>
<path fill-rule="evenodd" clip-rule="evenodd" d="M208.283 19.9582C207.304 19.9582 206.325 19.8767 205.347 19.8767C206.978 18.9806 208.69 18.0846 210.321 17.1885C210.24 17.7587 210.24 18.3289 210.158 18.9806C209.506 19.3065 208.935 19.6323 208.283 19.9582Z" fill="#CDB270"/>
<path fill-rule="evenodd" clip-rule="evenodd" d="M210.158 18.9807C210.24 18.4105 210.24 17.8402 210.321 17.1885C210.484 17.0256 210.729 16.9441 210.974 17.0256C210.729 17.6773 210.484 18.329 210.158 18.9807Z" fill="#E8BE8B"/>
<path fill-rule="evenodd" clip-rule="evenodd" d="M57.9014 112.907C60.4295 115.432 63.61 117.55 65.3226 120.483C69.074 126.837 66.7906 134.494 60.5926 138.73C59.7771 139.3 57.1675 139.463 59.6956 141.255C56.1889 141.255 52.6822 141.255 49.1754 141.255C48.6046 140.93 48.1153 140.604 47.5444 140.278C38.3291 135.635 35.9641 129.199 39.797 119.749C40.2048 118.772 40.2863 117.631 40.531 116.572C41.2649 116.165 42.0805 115.839 42.8144 115.432C42.4067 115.188 41.9174 114.943 41.5096 114.617C45.0163 113.64 48.523 112.744 52.0297 111.766C53.987 112.255 55.9442 112.581 57.9014 112.907Z" fill="#705C52"/>
<path fill-rule="evenodd" clip-rule="evenodd" d="M29.7663 142.559C27.5644 142.233 25.3625 141.826 23.1606 141.5C23.65 128.71 30.908 118.12 41.4282 114.699C41.102 115.35 40.7758 116.002 40.4496 116.654C39.5525 117.224 38.4108 117.55 37.7584 118.365C32.2129 125.126 29.277 132.783 30.011 141.663C30.011 141.907 29.9294 142.233 29.7663 142.559Z" fill="#705C52"/>
<path fill-rule="evenodd" clip-rule="evenodd" d="M79.2681 42.9305C79.2681 27.4527 91.0115 15.5593 107.73 14.0115C110.584 14.4188 113.357 14.9076 116.211 15.3149C118.494 19.1436 121.756 22.7279 122.817 26.8825C124.448 33.8068 120.696 38.6945 112.623 42.9305C112.46 43.1749 112.133 43.2564 111.889 43.2564C109.524 43.4193 107.24 43.6637 104.875 43.8266C104.549 43.5822 104.141 43.3378 103.815 43.0935C97.2094 39.4277 93.0503 34.2955 94.2735 26.2308C94.5997 23.7869 95.5784 21.4245 96.2308 18.9807C97.0463 18.5734 97.7803 18.2475 98.5958 17.8402C98.188 17.4329 97.7803 16.9441 97.454 16.5368C97.0463 17.3514 96.6385 18.166 96.3123 18.8992C87.9941 24.8459 87.1786 34.1326 85.7106 43.012C83.4272 43.0935 81.3069 43.012 79.2681 42.9305Z" fill="#D47D2F"/>
<path fill-rule="evenodd" clip-rule="evenodd" d="M112.541 43.012C120.696 38.776 124.366 33.8068 122.735 26.964C121.756 22.8094 118.413 19.2251 116.129 15.3964C128.444 18.4919 137.333 29.5708 137.333 41.953C137.333 57.6752 137.333 73.3974 137.251 89.1196C137.251 90.7488 136.599 92.3781 136.273 94.0073C134.478 90.1786 132.603 86.2684 130.809 82.4397C128.444 79.2627 126.079 76.0042 123.714 72.8272C120.533 70.9535 115.477 70.6277 116.782 64.8439C117.516 64.2736 118.331 63.7034 119.065 63.1332C121.185 61.5039 123.224 59.7932 125.345 58.3269C127.057 57.105 129.014 56.2089 130.809 55.1499C134.315 55.5572 136.273 53.1948 135.946 50.5065C135.783 48.6329 133.5 46.5964 131.706 45.2115C130.156 44.071 127.954 43.9081 126.079 43.3379C121.675 43.3379 117.271 43.2564 112.949 43.2564C112.867 43.2564 112.704 43.175 112.541 43.012Z" fill="#AE4731"/>
<path fill-rule="evenodd" clip-rule="evenodd" d="M270.506 111.929C272.464 111.603 274.339 111.196 276.297 110.87C278.254 111.196 280.129 111.603 282.087 111.929C286.572 115.106 290.405 118.69 290.813 124.8C291.302 132.295 286.898 136.449 281.108 139.708C277.601 140.033 274.095 140.278 270.588 140.604C269.609 139.463 268.794 138.16 267.652 137.264C262.514 133.028 260.639 127.162 262.677 121.053C263.33 119.016 264.145 116.898 264.879 114.862C266.103 114.21 267.407 113.558 268.631 112.907H268.712C269.283 112.418 269.854 112.173 270.506 111.929Z" fill="#CDB270"/>
<path fill-rule="evenodd" clip-rule="evenodd" d="M304.758 191.518C302.638 187.363 300.599 183.208 298.478 179.054C296.195 176.04 293.912 173.026 291.628 170.011C290.65 169.441 289.671 168.871 288.692 168.301C287.387 167.405 286.164 166.59 284.859 165.694C284.778 164.309 284.696 162.924 284.696 161.539C285.43 160.969 286.164 160.399 286.98 159.829C287.469 159.666 287.958 159.666 288.285 159.34C292.117 156.57 296.195 153.963 299.702 150.868C300.762 149.972 300.762 147.528 300.599 145.817C300.436 143.699 299.62 141.663 299.049 139.626C301.007 139.626 302.964 139.626 305.003 139.626C305.003 156.978 304.839 174.248 304.758 191.518Z" fill="#8B6C35"/>
<path fill-rule="evenodd" clip-rule="evenodd" d="M305.084 139.626C303.127 139.626 301.17 139.626 299.131 139.626C293.096 139.626 286.98 139.626 280.945 139.626C286.735 136.286 291.139 132.213 290.649 124.719C290.242 118.69 286.49 115.106 281.923 111.848C293.912 112.662 306.47 127.162 305.084 139.626Z" fill="#A18549"/>
<path fill-rule="evenodd" clip-rule="evenodd" d="M253.299 180.357C251.423 184.023 249.629 187.607 247.753 191.273C247.427 190.133 246.856 188.911 246.856 187.77C246.856 172.048 246.856 156.326 246.938 140.604C249.058 140.604 251.26 140.604 253.381 140.604C253.381 140.929 253.462 141.255 253.381 141.581C250.852 146.958 249.629 151.275 257.621 153.719C261.536 154.86 264.472 158.933 267.897 161.702C267.815 163.087 267.815 164.472 267.734 165.857C266.429 166.753 265.206 167.568 263.901 168.464C262.922 168.871 261.943 169.278 261.046 169.686C258.437 173.107 255.827 176.773 253.299 180.357Z" fill="#8B6C35"/>
<path fill-rule="evenodd" clip-rule="evenodd" d="M253.381 140.522C251.179 140.522 249.058 140.522 246.938 140.522C247.02 128.466 254.278 117.143 263.738 114.536L263.982 114.78C256.398 121.786 253.544 130.584 253.381 140.522Z" fill="#CDB270"/>
<path fill-rule="evenodd" clip-rule="evenodd" d="M268.549 112.744C267.326 113.395 266.021 114.047 264.798 114.699C264.798 114.291 264.716 113.966 264.716 113.558C266.021 113.314 267.326 113.069 268.549 112.744Z" fill="#E8BE8B"/>
<path fill-rule="evenodd" clip-rule="evenodd" d="M270.507 111.929C269.854 112.173 269.283 112.499 268.631 112.744C269.283 112.418 269.854 112.173 270.507 111.929Z" fill="#E8BE8B"/>
<path fill-rule="evenodd" clip-rule="evenodd" d="M264.716 113.64C264.716 114.047 264.797 114.373 264.797 114.78C264.471 114.78 264.145 114.78 263.9 114.78L263.656 114.536C263.982 114.21 264.39 113.884 264.716 113.64Z" fill="#CDB270"/>
<path fill-rule="evenodd" clip-rule="evenodd" d="M79.2681 42.9305C81.3069 43.012 83.4272 43.0935 85.466 43.1749C85.6291 43.5822 85.7922 43.9895 85.8738 44.3969C83.2641 45.8632 79.2681 46.6778 80.5729 50.7509C81.1438 52.5431 83.7534 53.765 85.466 55.2313C87.0155 55.7201 88.8096 55.883 90.1144 56.7791C93.6212 59.3044 96.9648 62.1556 100.308 64.8439C100.471 68.1023 100.064 70.9535 96.0677 71.6867C95.0891 72.094 94.192 72.5013 93.2134 72.9086C90.6038 76.4929 88.0757 80.1587 85.466 83.7431C83.6719 87.4089 81.7962 90.9932 80.0021 94.659C79.5943 93.6814 78.9419 92.6224 78.9419 91.6449C79.0234 75.3525 79.1865 59.1415 79.2681 42.9305Z" fill="#AE4731"/>
<path fill-rule="evenodd" clip-rule="evenodd" d="M30.0926 141.663C29.3587 132.783 32.2945 125.126 37.84 118.365C38.4924 117.55 39.6341 117.224 40.5312 116.654C40.2866 117.713 40.205 118.853 39.7972 119.831C35.9643 129.28 38.4109 135.716 47.5446 140.359C48.1155 140.604 48.6048 141.011 49.1757 141.337C43.0593 141.418 37.0245 141.5 30.9081 141.581C30.6635 141.581 30.4188 141.581 30.0926 141.663Z" fill="#958176"/>
<path fill-rule="evenodd" clip-rule="evenodd" d="M52.2747 145.247C53.5795 147.039 54.8843 148.017 54.7212 148.831C54.5581 149.972 53.3348 150.868 52.6009 151.927C51.7853 151.112 50.3174 150.379 50.2359 149.564C50.1543 148.505 51.2145 147.365 52.2747 145.247Z" fill="#E8BE8B"/>
<path fill-rule="evenodd" clip-rule="evenodd" d="M224.593 93.8443C223.94 96.6955 223.206 99.4652 222.554 102.316C222.228 103.05 221.82 103.783 221.494 104.516C221.005 105.249 220.515 106.064 220.026 106.797C219.7 105.901 219.374 105.086 218.966 104.19C219.21 102.561 219.7 100.85 219.7 99.2209C219.781 90.0156 219.781 80.8919 219.781 71.6866C221.983 71.6866 224.267 71.6866 226.469 71.6866C224.919 74.7822 222.228 77.8778 222.065 81.0548C221.983 85.2908 223.696 89.6083 224.593 93.8443Z" fill="#AE4731"/>
<path fill-rule="evenodd" clip-rule="evenodd" d="M221.575 104.516C221.901 103.783 222.309 103.05 222.635 102.316C222.309 102.968 221.901 103.783 221.575 104.516Z" fill="#7A7A6F"/>
<path fill-rule="evenodd" clip-rule="evenodd" d="M112.949 288.213C112.052 291.064 111.236 293.834 110.339 296.685H110.421C110.094 297.418 109.687 298.151 109.36 298.885C109.116 299.048 108.871 299.21 108.545 299.292C108.545 287.969 108.463 276.645 108.463 265.241C110.421 265.485 112.378 265.729 114.335 265.974C110.258 270.291 109.279 275.179 111.318 280.8C112.133 283.162 112.459 285.688 112.949 288.213Z" fill="#D47D2F"/>
<path fill-rule="evenodd" clip-rule="evenodd" d="M109.36 298.885C109.687 298.151 110.094 297.418 110.421 296.685C110.094 297.337 109.768 298.151 109.36 298.885Z" fill="#5A576D"/>
<path fill-rule="evenodd" clip-rule="evenodd" d="M219.863 71.6866C219.863 80.8919 219.863 90.0156 219.781 99.2209C219.781 100.85 219.292 102.561 219.047 104.19C218.966 103.946 218.803 103.783 218.64 103.538C217.661 100.606 216.682 97.5916 215.704 94.659C215.948 93.2741 216.112 91.8078 216.438 90.5044C218.313 83.906 219.292 77.389 213.828 71.7681C215.867 71.7681 217.906 71.6866 219.863 71.6866Z" fill="#D68163"/>
<path fill-rule="evenodd" clip-rule="evenodd" d="M96.0674 71.6053C100.063 70.9536 100.39 68.0209 100.308 64.7625C105.854 64.7625 111.318 64.7625 116.863 64.7625C115.558 70.5463 120.614 70.8721 123.795 72.7457C121.593 76.2486 119.31 79.67 117.108 83.1729C116.781 83.1729 116.374 83.2544 116.047 83.2544C109.36 79.3442 102.755 75.5155 96.0674 71.6053Z" fill="#C29365"/>
<path fill-rule="evenodd" clip-rule="evenodd" d="M96.0677 71.6052C102.755 75.5154 109.361 79.3441 116.048 83.2543C108.464 89.1196 95.0075 83.8245 93.2949 72.8272C94.192 72.4198 95.1706 72.0125 96.0677 71.6052Z" fill="#E8BE8B"/>
<path fill-rule="evenodd" clip-rule="evenodd" d="M260.965 169.523C261.943 169.115 262.922 168.708 263.819 168.301C267.163 172.863 270.996 176.528 277.194 176.284C279.314 177.75 281.516 179.135 283.636 180.602C272.627 184.919 263.248 180.357 260.965 169.523Z" fill="#E8BE8B"/>
<path fill-rule="evenodd" clip-rule="evenodd" d="M283.717 180.602C281.597 179.135 279.395 177.75 277.275 176.284C279.803 175.225 282.494 174.492 284.696 173.026C286.327 171.967 287.387 169.93 288.774 168.301C289.752 168.871 290.731 169.441 291.709 170.011C289.344 173.596 286.979 177.099 284.615 180.683C284.288 180.764 283.962 180.683 283.717 180.602Z" fill="#C29365"/>
<path fill-rule="evenodd" clip-rule="evenodd" d="M95.0889 265.078C97.2908 265.078 99.4926 265.159 101.695 265.159C107.729 271.188 106.18 278.112 104.304 285.118C104.06 286.014 103.896 286.91 103.652 287.887C100.879 280.311 98.0247 272.654 95.0889 265.078Z" fill="#FDFDFC"/>
<path fill-rule="evenodd" clip-rule="evenodd" d="M205.673 212.698C206.896 212.616 208.038 212.535 209.261 212.372C205.917 218.074 203.634 224.184 208.201 230.049C210.403 232.9 213.991 234.692 216.927 236.973C210.81 237.055 204.776 237.136 198.659 237.218H198.251L197.844 237.299C197.028 229.886 199.393 223.369 203.063 217.097C203.96 215.712 204.776 214.164 205.673 212.698Z" fill="#958176"/>
<path fill-rule="evenodd" clip-rule="evenodd" d="M224.593 252.696C223.043 254.243 221.575 256.036 219.7 257.013C219.21 257.257 217.253 254.651 216.03 253.347C217.579 252.451 219.047 251.555 220.597 250.659C221.983 251.311 223.288 252.044 224.593 252.696Z" fill="#D68163"/>
<path fill-rule="evenodd" clip-rule="evenodd" d="M220.271 249.193C219.047 246.993 217.987 245.853 217.987 244.794C217.987 243.898 219.374 243.083 220.189 242.268C221.005 243.083 222.391 243.898 222.473 244.712C222.554 245.771 221.494 246.912 220.271 249.193Z" fill="#E8BE8B"/>
<path fill-rule="evenodd" clip-rule="evenodd" d="M96.1491 212.453C96.8015 212.453 97.4539 212.453 98.1063 212.453C96.9646 214.816 95.252 217.097 94.6811 219.622C93.2948 225.161 94.3549 230.293 99.0849 234.204C100.471 235.344 101.613 236.81 102.836 238.114L102.918 238.358C99.0849 238.358 95.1704 238.358 91.3375 238.358C89.5434 238.766 87.7493 239.173 85.8736 239.58C85.7105 239.173 85.6289 238.766 85.4658 238.358C86.1998 228.583 88.7279 219.459 96.1491 212.453Z" fill="#958176"/>
<path fill-rule="evenodd" clip-rule="evenodd" d="M111.807 238.521C109.361 241.454 107.077 241.372 104.875 238.195C107.159 238.358 109.442 238.44 111.807 238.521Z" fill="#958176"/>
<path fill-rule="evenodd" clip-rule="evenodd" d="M125.834 238.358C125.508 240.639 125.997 243.816 124.692 244.957C122.98 246.504 119.473 247.563 117.353 246.912C113.52 245.771 112.623 242.268 114.172 238.44C118.087 238.358 121.92 238.358 125.834 238.358Z" fill="#C29365"/>
<path fill-rule="evenodd" clip-rule="evenodd" d="M112.949 288.213C112.378 285.769 112.133 283.162 111.236 280.8C109.197 275.179 110.176 270.291 114.254 265.974C116.7 265.648 119.065 265.404 121.512 265.078C118.739 272.817 115.885 280.474 112.949 288.213Z" fill="#FDFDFC"/>
<path fill-rule="evenodd" clip-rule="evenodd" d="M105.528 242.757C106.914 242.594 108.219 242.431 109.605 242.268C110.258 242.839 110.91 243.409 111.563 243.979V243.898C111.155 245.364 110.992 246.912 110.258 248.134C109.932 248.622 107.811 248.785 107.404 248.378C106.588 247.563 106.425 246.097 106.099 244.875C105.772 244.142 105.691 243.49 105.528 242.757Z" fill="#E8BE8B"/>
<path fill-rule="evenodd" clip-rule="evenodd" d="M91.2564 238.358C95.0893 238.358 99.0038 238.358 102.837 238.358C102.184 240.965 101.613 243.572 100.961 246.097C97.6174 244.468 94.3553 242.92 91.0117 241.291C91.0117 240.884 91.0117 240.476 91.0117 240.069C91.1748 239.499 91.2564 238.929 91.2564 238.358Z" fill="#C29365"/>
<path fill-rule="evenodd" clip-rule="evenodd" d="M91.0928 241.291C94.4364 242.92 97.6985 244.468 101.042 246.097C95.4966 249.111 92.0714 247.482 91.0928 241.291Z" fill="#E8BE8B"/>
<path fill-rule="evenodd" clip-rule="evenodd" d="M111.563 243.979C110.91 243.409 110.258 242.839 109.605 242.268C110.258 242.839 110.91 243.409 111.563 243.979Z" fill="#C29365"/>
<path fill-rule="evenodd" clip-rule="evenodd" d="M208.283 19.9582C208.935 19.6324 209.506 19.3065 210.158 19.0621C209.506 19.3065 208.935 19.6324 208.283 19.9582Z" fill="#E8BE8B"/>
<path fill-rule="evenodd" clip-rule="evenodd" d="M224.593 93.8444C223.696 89.6084 221.902 85.2909 222.146 81.0549C222.309 77.8778 225.001 74.8637 226.55 71.6867C228.752 71.6053 230.954 71.6053 233.156 71.5238C230.301 79.0183 227.447 86.4314 224.593 93.8444Z" fill="#FDFDFC"/>
<path fill-rule="evenodd" clip-rule="evenodd" d="M224.43 51.9729C222.88 53.3577 221.902 54.9055 220.923 54.9055C220.026 54.9055 219.047 53.3577 218.15 52.4616C219.129 51.5656 219.945 50.2622 221.086 49.9363C221.739 49.6919 222.88 50.9953 224.43 51.9729Z" fill="#E8BE8B"/>
<path fill-rule="evenodd" clip-rule="evenodd" d="M40.5312 116.654C40.8575 116.002 41.1837 115.35 41.5099 114.699C41.9176 114.943 42.4069 115.188 42.8147 115.513C42.0807 115.921 41.2652 116.328 40.5312 116.654Z" fill="#958176"/>
<path fill-rule="evenodd" clip-rule="evenodd" d="M85.9556 44.3154C85.7925 43.9081 85.6294 43.5008 85.5479 43.0935C87.0158 34.1327 87.8313 24.846 96.1495 18.9807C95.4971 21.4246 94.6001 23.787 94.1923 26.2308C93.0506 34.2141 97.1282 39.3462 103.734 43.0935C103.571 44.5598 103.245 46.1076 103.163 47.5739C103.081 50.2622 102.021 51.9729 99.0038 51.81C96.2311 50.0992 93.4583 48.3071 90.6856 46.5964C90.4409 45.5374 90.2778 44.5598 90.1147 43.7452C88.6468 43.9896 87.2604 44.1525 85.9556 44.3154Z" fill="#C29365"/>
<path fill-rule="evenodd" clip-rule="evenodd" d="M85.9552 44.3154C87.3415 44.1525 88.6463 43.9081 90.1958 43.7452C90.3589 44.5598 90.6036 45.6188 90.7667 46.5963C90.9298 51.8914 92.9686 53.1948 99.0849 51.8099C102.102 52.0543 103.081 50.2621 103.244 47.5739C103.326 46.0261 103.652 44.5598 103.815 43.0935C104.141 43.3379 104.549 43.5822 104.875 43.8266C107.322 45.3744 109.768 46.1076 111.889 43.2564C112.215 43.2564 112.459 43.1749 112.622 42.9305C112.704 43.0935 112.867 43.1749 113.112 43.1749C113.193 44.1525 113.356 45.0486 113.438 46.0261C113.683 51.3211 114.906 52.3802 119.962 52.4616C124.447 52.5431 126.486 50.588 126.078 46.1076C125.997 45.13 126.16 44.2339 126.242 43.2564C128.117 43.8266 130.401 44.071 131.869 45.13C133.663 46.4334 135.865 48.47 136.109 50.4251C136.354 53.1948 134.478 55.4757 130.972 55.0684C132.032 52.706 133.092 50.3436 134.152 47.9812C132.358 47.4924 130.482 46.9222 128.688 46.4334C128.851 47.0036 129.096 47.5739 129.259 48.1441C127.057 50.1807 125.1 53.1948 122.49 54.0094C118.494 55.3128 114.254 54.5796 111.562 50.5065C110.828 49.2846 110.339 47.3295 109.279 47.0036C107.729 46.4334 105.283 46.2705 105.364 49.2846C104.549 50.6694 103.733 52.0543 102.918 53.3577C95.9044 55.4757 91.3375 54.4982 89.2172 50.7509C88.4017 49.2031 87.0153 47.8997 85.6289 46.7593C85.4658 46.5963 83.1009 48.2256 83.1824 48.7144C83.5086 50.4251 84.4872 52.0543 85.1396 53.765C85.3027 54.1723 85.3843 54.6611 85.4658 55.1499C83.7533 53.6835 81.1436 52.4616 80.5728 50.6694C79.3495 46.5963 83.3455 45.7817 85.9552 44.3154Z" fill="#FDFDFC"/>
<path fill-rule="evenodd" clip-rule="evenodd" d="M111.807 43.2563C109.687 46.1075 107.322 45.3744 104.794 43.8266C107.159 43.6637 109.442 43.5007 111.807 43.2563Z" fill="#C29365"/>
<path fill-rule="evenodd" clip-rule="evenodd" d="M96.1494 18.9807C96.5572 18.1661 96.9649 17.3514 97.2911 16.6183C97.6989 17.0256 98.1066 17.5144 98.4329 17.9217C97.6989 18.2475 96.8834 18.6548 96.1494 18.9807Z" fill="#C29365"/>
<path fill-rule="evenodd" clip-rule="evenodd" d="M85.4662 55.2313C85.3846 54.7425 85.3031 54.3352 85.14 53.8464C84.4876 52.1357 83.5089 50.5065 83.1827 48.7958C83.1012 48.2255 85.4662 46.6778 85.6293 46.8407C86.9341 47.9812 88.3205 49.2845 89.2175 50.8323C91.3379 54.5796 95.9048 55.5571 102.918 53.4391C104.468 54.661 106.017 55.883 107.567 57.1049C103.571 57.5937 104.223 59.7117 106.099 61.8297C108.219 64.2736 110.584 63.296 112.623 59.2229C114.825 60.5263 117.027 61.7483 119.228 63.0517C118.495 63.6219 117.679 64.1921 116.945 64.7624C111.4 64.7624 105.936 64.7624 100.39 64.7624C96.9649 62.0741 93.7029 59.2229 90.1962 56.6976C88.8098 55.8015 87.0156 55.7201 85.4662 55.2313Z" fill="#E8BE8B"/>
<path fill-rule="evenodd" clip-rule="evenodd" d="M119.147 63.1331C116.945 61.8297 114.743 60.6078 112.541 59.3044C110.828 58.5713 109.197 57.8381 107.485 57.1864C105.935 55.9645 104.386 54.7425 102.836 53.5206C103.652 52.1357 104.467 50.7509 105.283 49.4475L105.691 49.6919C106.506 50.9953 107.322 52.2172 108.056 53.5206C109.197 52.543 110.339 51.647 111.399 50.6694C114.091 54.7425 118.413 55.4757 122.327 54.1723C124.937 53.3577 126.894 50.3436 129.096 48.307C128.933 47.7368 128.688 47.1665 128.525 46.5963C130.319 47.0851 132.195 47.6553 133.989 48.1441C132.929 50.5065 131.869 52.8689 130.809 55.2313C129.014 56.2903 127.057 57.1864 125.345 58.4083C123.306 59.7932 121.267 61.5039 119.147 63.1331Z" fill="#C29365"/>
<path fill-rule="evenodd" clip-rule="evenodd" d="M126.16 43.2564C126.078 44.2339 125.915 45.13 125.997 46.1076C126.405 50.588 124.366 52.5431 119.881 52.4616C114.824 52.3801 113.601 51.2397 113.356 46.0261C113.275 45.0486 113.112 44.1525 113.03 43.1749C117.434 43.2564 121.838 43.2564 126.16 43.2564Z" fill="#C29365"/>
<path fill-rule="evenodd" clip-rule="evenodd" d="M281.027 139.626C287.061 139.626 293.178 139.626 299.213 139.626C299.783 141.663 300.599 143.699 300.762 145.817C300.925 147.528 300.844 149.972 299.865 150.868C296.277 153.963 292.281 156.57 288.448 159.34C288.122 159.584 287.551 159.666 287.143 159.829C284.86 158.525 282.658 157.222 280.374 156C279.069 155.348 277.765 154.615 276.46 153.963C275.481 153.149 274.584 152.334 273.524 151.683C267.489 148.017 261.454 144.351 255.338 140.685C260.394 140.685 265.532 140.604 270.588 140.604C274.013 140.278 277.52 139.952 281.027 139.626ZM279.722 148.18C278.172 147.039 277.194 145.817 276.052 145.654C275.318 145.573 274.421 146.958 273.524 147.691C274.502 148.75 275.318 150.053 276.541 150.623C277.031 150.868 278.254 149.32 279.722 148.18Z" fill="#C29365"/>
<path fill-rule="evenodd" clip-rule="evenodd" d="M270.506 140.522C265.45 140.522 260.312 140.604 255.256 140.604C255.175 140.522 255.175 140.359 255.093 140.278C255.012 140.196 254.93 140.196 254.848 140.196C255.012 140.359 255.093 140.441 255.256 140.604C261.291 144.269 267.407 147.935 273.442 151.601C274.502 152.253 275.399 153.149 276.378 153.882C275.073 154.452 273.85 155.022 272.545 155.593C273.524 157.059 274.584 158.607 275.563 160.073C277.112 158.688 278.743 157.303 280.293 155.918C282.576 157.222 284.778 158.525 287.061 159.747C286.327 160.317 285.593 160.888 284.778 161.458C279.151 161.458 273.524 161.458 267.897 161.458C264.472 158.688 261.454 154.697 257.621 153.475C249.711 151.031 250.934 146.713 253.381 141.337C253.462 141.092 253.381 140.685 253.381 140.359C253.544 130.421 256.398 121.541 263.901 114.617C264.227 114.617 264.553 114.617 264.798 114.617C264.064 116.654 263.33 118.69 262.596 120.808C260.557 126.918 262.433 132.783 267.571 137.019C268.712 138.078 269.528 139.382 270.506 140.522Z" fill="#E8BE8B"/>
<path fill-rule="evenodd" clip-rule="evenodd" d="M267.815 161.539C273.442 161.539 279.069 161.539 284.696 161.539C284.778 162.924 284.859 164.309 284.859 165.694C283.473 169.849 280.863 172.211 276.215 172.211C271.566 172.211 268.957 169.93 267.57 165.694C267.733 164.391 267.815 163.006 267.815 161.539Z" fill="#C29365"/>
<path fill-rule="evenodd" clip-rule="evenodd" d="M267.733 165.775C269.038 170.011 271.729 172.292 276.378 172.292C281.026 172.292 283.636 169.93 285.022 165.775C286.327 166.671 287.55 167.486 288.855 168.382C287.55 170.011 286.49 172.048 284.778 173.107C282.576 174.573 279.803 175.306 277.356 176.365C271.158 176.61 267.244 172.944 263.982 168.382C265.124 167.486 266.428 166.59 267.733 165.775Z" fill="#6F886C"/>
<path fill-rule="evenodd" clip-rule="evenodd" d="M99.0033 51.8913C92.8869 53.1947 90.9297 51.9728 90.6851 46.6777C93.5394 48.3884 96.3121 50.0991 99.0033 51.8913Z" fill="#E8BE8B"/>
<path fill-rule="evenodd" clip-rule="evenodd" d="M105.283 49.3661C105.202 46.2705 107.648 46.5149 109.198 47.0852C110.258 47.4925 110.747 49.3661 111.481 50.588C109.524 50.2622 107.648 49.9363 105.691 49.6105L105.283 49.3661Z" fill="#C29365"/>
<path fill-rule="evenodd" clip-rule="evenodd" d="M107.485 57.1864C109.197 57.9196 110.828 58.6527 112.541 59.3044C110.502 63.2961 108.219 64.3551 106.017 61.9112C104.141 59.7932 103.489 57.5937 107.485 57.1864Z" fill="#D68163"/>
<path fill-rule="evenodd" clip-rule="evenodd" d="M105.691 49.6105C107.648 49.9363 109.524 50.2622 111.481 50.588C110.339 51.5656 109.198 52.4617 108.137 53.4392C107.322 52.2173 106.506 50.9139 105.691 49.6105Z" fill="#E8BE8B"/>
<path fill-rule="evenodd" clip-rule="evenodd" d="M280.211 156C278.661 157.385 277.03 158.77 275.481 160.155C274.502 158.688 273.442 157.141 272.463 155.674C273.768 155.104 274.991 154.534 276.296 153.964C277.601 154.615 278.906 155.267 280.211 156Z" fill="#D68163"/>
<path fill-rule="evenodd" clip-rule="evenodd" d="M279.722 148.18C278.254 149.402 277.031 150.868 276.541 150.705C275.318 150.135 274.503 148.831 273.524 147.772C274.339 147.039 275.318 145.654 276.052 145.736C277.194 145.817 278.172 147.039 279.722 148.18Z" fill="#E8BE8B"/>
<path fill-rule="evenodd" clip-rule="evenodd" d="M255.256 140.604C255.093 140.441 255.012 140.359 254.849 140.196C254.93 140.196 255.012 140.196 255.093 140.278C255.175 140.359 255.175 140.522 255.256 140.604Z" fill="#CDB270"/>
</g>
<defs>
<clipPath id="clip0">
<rect width="328" height="312" fill="white"/>
</clipPath>
</defs>
</svg>
