<?xml version="1.0" encoding="iso-8859-1"?>
<!-- Generator: Adobe Illustrator 19.0.0, SVG Export Plug-In . SVG Version: 6.00 Build 0)  -->
<svg version="1.1" id="Layer_1" xmlns="http://www.w3.org/2000/svg" xmlns:xlink="http://www.w3.org/1999/xlink" x="0px" y="0px"
	 viewBox="0 0 512 512" style="enable-background:new 0 0 512 512;" xml:space="preserve">
<path style="fill:#FF6464;" d="M416.814,219.93h-32.063h-15.029c0,0-59.784-48.094-89.174-48.094H240.47h-14.027
	c-10.2,0-20.341,1.548-30.076,4.59l-74.137,29.855c-11.948,3.733-24.393,5.633-36.911,5.633H30.061
	c-7.748,0-14.029,6.281-14.029,14.029v66.127c0,14.027,9.686,27.053,28.055,32.063l80.157,8.016h255.499h74.145h43.084v-32.063
	C496.971,255.817,461.084,219.93,416.814,219.93z"/>
<path style="fill:#C7CFE2;" d="M185.362,219.93l167.327,16.031c0,0,8.684-16.031,32.063-16.031h-15.029
	c0,0-59.784-48.094-89.174-48.094H240.47C204.149,171.836,185.362,219.93,185.362,219.93z"/>
<g>
	<circle style="fill:#464655;" cx="88.172" cy="300.086" r="48.094"/>
	<circle style="fill:#464655;" cx="416.814" cy="300.086" r="48.094"/>
</g>
<g>
	<circle style="fill:#B8BFD4;" cx="88.172" cy="300.086" r="25.049"/>
	<circle style="fill:#B8BFD4;" cx="415.812" cy="300.086" r="25.049"/>
</g>
<path style="fill:#FF6464;" d="M40.033,187.867H24.092c-8.878,0-16.076-7.198-16.076-16.076v-7.971H56.11v7.971
	C56.11,180.669,48.912,187.867,40.033,187.867z"/>
<path d="M152.297,300.086c0-4.427,3.588-8.016,8.016-8.016h133.799c8.611,0,16.712-4.587,21.142-11.97l14.529-24.216
	c2.278-3.796,7.202-5.027,10.997-2.749c3.796,2.277,5.027,7.201,2.749,10.997l-14.529,24.216
	c-7.31,12.185-20.679,19.754-34.888,19.754h-133.8C155.885,308.102,152.297,304.513,152.297,300.086z M512,332.149
	c0,4.427-3.589,8.016-8.016,8.016h-47.956c-10.124,9.907-23.965,16.031-39.215,16.031s-29.091-6.124-39.215-16.031H127.387
	c-10.124,9.907-23.965,16.031-39.215,16.031c-19.149,0-36.081-9.649-46.21-24.334c-20.622-5.63-33.946-21.247-33.946-39.792v-66.127
	c0-12.156,9.889-22.045,22.045-22.045h6.697l-8.016-8.016h-4.651C10.808,195.883,0,185.074,0,171.791v-7.971
	c0-4.428,3.589-8.016,8.016-8.016H56.11c4.427,0,8.016,3.588,8.016,8.016v7.971c0,9.932-6.043,18.478-14.644,22.159l7.787,7.787
	c0.647,0.647,1.153,1.381,1.533,2.161h26.517c11.615,0,23.125-1.74,34.219-5.175l73.835-29.733c0.198-0.08,0.399-0.151,0.603-0.215
	c10.521-3.287,21.444-4.955,32.466-4.955h54.106c28.974,0,79.554,38.328,91.971,48.094h44.296c48.618,0,88.172,39.554,88.172,88.172
	v24.116C508.939,324.696,512,328.062,512,332.149z M24.092,179.851h15.941c4.43,0,8.037-3.592,8.061-8.016H16.031
	C16.055,176.259,19.662,179.851,24.092,179.851z M280.548,179.851H240.47c-21.066,0-35.76,20.508-42.836,33.202l151.275,14.493
	c1.836-2.178,4.497-4.843,8.075-7.353C336.979,205.125,299.476,179.851,280.548,179.851z M32.924,309.816
	c-0.556-3.163-0.862-6.411-0.862-9.73c0-30.938,25.171-56.11,56.11-56.11s56.11,25.171,56.11,56.11
	c0,8.602-1.951,16.754-5.425,24.047H366.13c-3.474-7.293-5.425-15.445-5.425-24.047c0-30.938,25.171-56.11,56.11-56.11
	s56.11,25.171,56.11,56.11c0,8.602-1.951,16.754-5.425,24.047h21.455v-24.047c0-39.779-32.362-72.141-72.141-72.141h-32.063
	c-17.585,0-24.476,10.933-25.035,11.874c-1.372,2.659-4.019,4.161-6.956,4.161c-0.277,0-0.556-0.014-0.837-0.041l-167.327-16.031
	c-2.502-0.239-4.746-1.639-6.063-3.779c-1.317-2.141-1.553-4.775-0.639-7.116c0.484-1.24,7.345-18.397,20.829-32.895l-73.501,29.599
	c-0.198,0.08-0.399,0.151-0.603,0.215c-12.736,3.98-25.958,5.998-39.302,5.998H30.061c-3.316,0-6.014,2.697-6.014,6.014v66.127
	C24.047,299.012,27.27,305.205,32.924,309.816z M88.172,340.164c22.099,0,40.078-17.979,40.078-40.078
	c0-22.099-17.979-40.078-40.078-40.078s-40.078,17.979-40.078,40.078C48.094,322.185,66.073,340.164,88.172,340.164z
	 M456.892,300.086c0-22.099-17.979-40.078-40.078-40.078s-40.078,17.979-40.078,40.078c0,22.099,17.979,40.078,40.078,40.078
	S456.892,322.185,456.892,300.086z M112.219,292.07c-4.428,0-8.016,3.589-8.016,8.016c0,8.839-7.192,16.031-16.031,16.031
	s-16.031-7.192-16.031-16.031c0-8.839,7.192-16.031,16.031-16.031c4.428,0,8.016-3.589,8.016-8.016c0-4.427-3.588-8.016-8.016-8.016
	c-17.68,0-32.063,14.383-32.063,32.063c0,17.68,14.383,32.063,32.063,32.063s32.063-14.383,32.063-32.063
	C120.235,295.659,116.647,292.07,112.219,292.07z M440.861,292.07c-4.427,0-8.016,3.589-8.016,8.016
	c0,8.839-7.192,16.031-16.031,16.031s-16.031-7.192-16.031-16.031c0-8.839,7.192-16.031,16.031-16.031
	c4.427,0,8.016-3.589,8.016-8.016c0-4.427-3.589-8.016-8.016-8.016c-17.68,0-32.063,14.383-32.063,32.063
	c0,17.68,14.383,32.063,32.063,32.063s32.063-14.383,32.063-32.063C448.877,295.659,445.288,292.07,440.861,292.07z"/>
<g>
</g>
<g>
</g>
<g>
</g>
<g>
</g>
<g>
</g>
<g>
</g>
<g>
</g>
<g>
</g>
<g>
</g>
<g>
</g>
<g>
</g>
<g>
</g>
<g>
</g>
<g>
</g>
<g>
</g>
</svg>
